G75*
%MOIN*%
%OFA0B0*%
%FSLAX25Y25*%
%IPPOS*%
%LPD*%
%AMOC8*
5,1,8,0,0,1.08239X$1,22.5*
%
%ADD10C,0.06600*%
%ADD11R,0.02362X0.01181*%
%ADD12R,0.01181X0.02362*%
%ADD13R,0.01969X0.01969*%
%ADD14R,0.02765X0.05324*%
%ADD15R,0.05324X0.05324*%
%ADD16R,0.03356X0.04143*%
%ADD17R,0.04537X0.18710*%
%ADD18R,0.06899X0.13986*%
%ADD19R,0.04143X0.03356*%
%ADD20R,0.03543X0.05512*%
%ADD21R,0.04331X0.05512*%
%ADD22R,0.05400X0.09400*%
%ADD23R,0.14773X0.09261*%
%ADD24R,0.07687X0.08080*%
%ADD25R,0.08080X0.08080*%
%ADD26R,0.08868X0.06899*%
%ADD27R,0.02175X0.05915*%
%ADD28R,0.04400X0.04400*%
%ADD29R,0.03300X0.03300*%
D10*
X0011867Y0016565D02*
X0017867Y0016565D01*
X0017867Y0026565D02*
X0011867Y0026565D01*
X0011867Y0036565D02*
X0017867Y0036565D01*
X0017867Y0046565D02*
X0011867Y0046565D01*
X0011867Y0056565D02*
X0017867Y0056565D01*
X0017867Y0066565D02*
X0011867Y0066565D01*
X0011867Y0076565D02*
X0017867Y0076565D01*
X0017867Y0086565D02*
X0011867Y0086565D01*
X0011867Y0096565D02*
X0017867Y0096565D01*
X0017867Y0106565D02*
X0011867Y0106565D01*
X0011867Y0116565D02*
X0017867Y0116565D01*
X0017867Y0126565D02*
X0011867Y0126565D01*
X0011867Y0136565D02*
X0017867Y0136565D01*
X0017867Y0146565D02*
X0011867Y0146565D01*
X0101867Y0146565D02*
X0107867Y0146565D01*
X0107867Y0136565D02*
X0101867Y0136565D01*
X0101867Y0126565D02*
X0107867Y0126565D01*
X0107867Y0116565D02*
X0101867Y0116565D01*
X0101867Y0106565D02*
X0107867Y0106565D01*
X0107867Y0096565D02*
X0101867Y0096565D01*
X0101867Y0086565D02*
X0107867Y0086565D01*
X0107867Y0076565D02*
X0101867Y0076565D01*
X0101867Y0066565D02*
X0107867Y0066565D01*
X0107867Y0056565D02*
X0101867Y0056565D01*
X0101867Y0046565D02*
X0107867Y0046565D01*
X0107867Y0036565D02*
X0101867Y0036565D01*
X0101867Y0026565D02*
X0107867Y0026565D01*
X0107867Y0016565D02*
X0101867Y0016565D01*
D11*
X0043922Y0090660D03*
X0043922Y0092628D03*
X0043922Y0094597D03*
X0043922Y0096565D03*
X0043922Y0098534D03*
X0043922Y0100502D03*
X0043922Y0102471D03*
X0038804Y0101486D03*
X0038804Y0099518D03*
X0038804Y0097549D03*
X0038804Y0095581D03*
X0038804Y0093612D03*
X0038804Y0091644D03*
X0034867Y0091644D03*
X0034867Y0093612D03*
X0034867Y0095581D03*
X0034867Y0097549D03*
X0034867Y0099518D03*
X0034867Y0101486D03*
X0030930Y0101486D03*
X0030930Y0099518D03*
X0030930Y0097549D03*
X0030930Y0095581D03*
X0030930Y0093612D03*
X0030930Y0091644D03*
X0025812Y0092628D03*
X0025812Y0094597D03*
X0025812Y0096565D03*
X0025812Y0098534D03*
X0025812Y0100502D03*
X0025812Y0102471D03*
X0025812Y0090660D03*
D12*
X0028961Y0087510D03*
X0030930Y0087510D03*
X0032898Y0087510D03*
X0034867Y0087510D03*
X0036835Y0087510D03*
X0038804Y0087510D03*
X0040772Y0087510D03*
X0040772Y0105620D03*
X0038804Y0105620D03*
X0036835Y0105620D03*
X0034867Y0105620D03*
X0032898Y0105620D03*
X0030930Y0105620D03*
X0028961Y0105620D03*
D13*
X0043144Y0088288D03*
D14*
X0076752Y0094572D03*
X0084232Y0094572D03*
X0084232Y0104809D03*
X0080492Y0104809D03*
X0076752Y0104809D03*
D15*
X0085733Y0147815D03*
X0094001Y0147815D03*
X0034001Y0147815D03*
X0025733Y0147815D03*
D16*
X0027308Y0142190D03*
X0032426Y0142190D03*
X0087308Y0142190D03*
X0092426Y0142190D03*
X0062426Y0050940D03*
X0057308Y0050940D03*
X0033676Y0048440D03*
X0028558Y0048440D03*
X0084808Y0048440D03*
X0089926Y0048440D03*
D17*
X0063804Y0038632D03*
X0055930Y0038632D03*
D18*
X0046481Y0018160D03*
X0073252Y0018160D03*
D19*
X0083617Y0020374D03*
X0083617Y0015256D03*
X0091742Y0015256D03*
X0091742Y0020374D03*
X0039242Y0047131D03*
X0039242Y0052249D03*
X0043617Y0112131D03*
X0043617Y0117249D03*
X0049242Y0117249D03*
X0049242Y0112131D03*
X0036742Y0115256D03*
X0036742Y0120374D03*
X0030492Y0120374D03*
X0030492Y0115256D03*
X0072367Y0112756D03*
X0072367Y0117874D03*
D20*
X0066146Y0110625D03*
X0058587Y0110625D03*
X0058587Y0121255D03*
D21*
X0065752Y0121255D03*
D22*
X0072017Y0058115D03*
X0081117Y0058115D03*
X0090217Y0058115D03*
D23*
X0081117Y0082516D03*
D24*
X0074827Y0146565D03*
X0044906Y0146565D03*
D25*
X0055142Y0146565D03*
X0064591Y0146565D03*
D26*
X0071678Y0132786D03*
X0048056Y0132786D03*
D27*
X0054749Y0132293D03*
X0057308Y0132293D03*
X0059867Y0132293D03*
X0062426Y0132293D03*
X0064985Y0132293D03*
D28*
X0079867Y0117815D03*
X0066117Y0103440D03*
X0062367Y0090315D03*
X0057992Y0090315D03*
X0049242Y0090315D03*
X0049242Y0085940D03*
X0039867Y0083440D03*
X0031742Y0075315D03*
X0023617Y0055940D03*
X0023617Y0040940D03*
X0024242Y0031565D03*
X0026742Y0020940D03*
X0034867Y0033440D03*
X0051742Y0064065D03*
X0072367Y0065940D03*
X0087367Y0069690D03*
X0091117Y0094690D03*
X0089867Y0041565D03*
X0079242Y0023440D03*
X0074242Y0034065D03*
X0047992Y0102190D03*
X0049242Y0107815D03*
X0048617Y0121565D03*
X0042992Y0122190D03*
X0032992Y0110940D03*
X0029867Y0129065D03*
D29*
X0032367Y0137190D03*
X0039242Y0130940D03*
X0021742Y0120940D03*
X0026742Y0109690D03*
X0026742Y0076565D03*
X0065492Y0126565D03*
X0087992Y0137190D03*
X0081742Y0075940D03*
X0081742Y0065315D03*
M02*
