%
M48
M72
T01C0.0130
T02C0.0240
T03C0.0335
T04C0.0400
%
T01
X2737Y7657
X2237Y12094
X2737Y10969
X2674Y22782
X2174Y27219
X2674Y26094
X8174Y22719
X8174Y21657
X8237Y6532
X8237Y7594
X14549Y22782
X14049Y27219
X14549Y26094
X20049Y22719
X20112Y7594
X14612Y10969
X14112Y12094
X14612Y7657
X20112Y6532
X26237Y10969
X25737Y12094
X20049Y21657
X26174Y22782
X25674Y27219
X26174Y26094
X31674Y22719
X31674Y21657
X26237Y7657
X31737Y7594
X31737Y6532
T02
X2737Y2094
X3237Y7532
X3362Y11094
X4362Y12219
X3237Y28844
X2987Y28032
X4299Y27344
X3299Y26219
X4862Y27282
X6674Y27844
X3987Y23469
X4924Y24157
X6612Y25469
X9112Y24594
X7987Y26907
X4924Y25907
X4799Y25344
X4924Y23719
X5799Y24157
X6237Y24157
X8237Y29407
X3487Y18469
X2362Y20719
X2362Y19219
X2424Y18282
X5174Y21532
X3174Y22657
X8987Y19282
X7237Y21719
X8737Y22094
X7924Y17469
X7424Y18532
X2674Y17219
X4924Y12157
X4987Y10782
X4862Y10219
X8299Y14282
X6674Y10344
X4987Y9032
X4987Y8594
X4049Y8344
X2424Y4094
X2424Y5594
X5237Y6407
X7299Y6594
X9049Y4157
X8799Y6969
X9174Y9469
X6299Y9032
X5862Y9032
X8049Y11782
X6737Y12719
X14549Y17219
X14299Y18282
X15049Y22657
X15112Y28844
X16174Y27344
X14862Y28032
X15174Y26219
X16737Y27282
X18549Y27844
X15862Y23469
X16799Y24157
X16674Y25344
X16799Y25907
X18487Y25469
X20987Y24594
X20112Y29407
X15362Y18469
X14237Y20719
X14237Y19219
X17049Y21532
X19112Y21719
X19799Y17469
X20862Y19282
X15237Y11094
X15174Y13719
X14924Y12907
X16237Y12219
X16799Y12157
X20174Y14282
X15924Y8344
X16737Y10219
X16862Y10782
X18549Y10344
X16862Y8594
X16862Y9032
X15112Y7532
X14612Y2094
X17112Y6407
X15424Y3344
X14299Y4094
X14362Y3157
X14299Y5594
X3549Y3344
X2487Y3157
X7987Y2344
X7487Y3407
X19174Y6594
X20924Y4157
X20674Y6969
X18174Y9032
X17737Y9032
X21049Y9469
X19862Y2344
X19362Y3407
X26862Y11094
X18612Y12719
X19924Y11782
X19299Y18532
X20612Y22094
X19862Y26907
X18112Y24157
X17674Y24157
X16799Y23719
X25924Y18282
X26674Y22657
X26737Y28844
X26487Y28032
X27799Y27344
X28362Y27282
X27487Y23469
X26799Y26219
X28424Y25907
X28299Y25344
X28424Y24157
X30112Y25469
X32612Y24594
X31737Y29407
X30174Y27844
X31487Y26907
X29737Y24157
X29299Y24157
X28424Y23719
X26987Y18469
X28674Y21532
X25862Y20719
X25862Y19219
X26174Y17219
X30737Y21719
X31424Y17469
X30924Y18532
X32237Y22094
X32487Y19282
X28424Y12157
X26799Y13719
X26549Y12907
X27862Y12219
X28487Y10782
X28362Y10219
X26737Y7532
X27549Y8344
X28487Y9032
X28487Y8594
X29362Y9032
X29799Y9032
X26237Y2094
X28737Y6407
X25924Y5594
X25924Y4094
X25987Y3157
X27049Y3344
X31487Y2344
X30987Y3407
X32549Y4157
X30799Y6594
X32299Y6969
X32674Y9469
X30237Y12719
X31799Y14282
X31549Y11782
X30174Y10344
X3299Y13719
X3049Y12907
T03
X5239Y28603
X5301Y13478
X6797Y13478
X6735Y28603
X17114Y28603
X18610Y28603
X17176Y13478
X28801Y13478
X30297Y13478
X28739Y28603
X30235Y28603
X18672Y13478
T04
X1549Y1657
X1549Y3657
X1549Y8657
X1549Y14657
X1487Y16782
X1487Y25782
X1487Y26782
X1487Y27782
X1487Y28782
X1487Y29782
X10487Y28782
X10487Y26782
X10487Y29782
X10487Y27782
X10487Y25782
X10487Y24782
X10487Y23782
X10487Y22782
X1487Y20782
X1487Y19782
X1487Y18782
X1487Y17782
X1487Y22782
X1487Y23782
X1487Y24782
X10487Y17782
X10487Y19782
X10487Y20782
X10487Y21782
X13362Y22782
X22362Y24782
X22362Y19782
X22362Y20782
X22362Y21782
X22362Y22782
X22362Y23782
X22362Y26782
X22362Y27782
X22362Y28782
X22362Y29782
X22362Y25782
X24987Y26782
X24987Y27782
X24987Y28782
X24987Y29782
X24987Y19782
X24987Y20782
X24987Y21782
X24987Y22782
X24987Y23782
X24987Y24782
X24987Y25782
X33987Y16782
X33987Y17782
X33987Y18782
X33987Y19782
X33987Y20782
X33987Y21782
X33987Y22782
X33987Y23782
X33987Y24782
X33987Y28782
X33987Y25782
X33987Y26782
X33987Y27782
X33987Y29782
X24987Y17782
X24987Y18782
X24987Y16782
X25049Y11657
X25049Y10657
X25049Y14657
X13424Y12657
X13424Y14657
X10549Y13657
X1549Y12657
X1549Y13657
X1549Y11657
X1549Y10657
X1549Y9657
X1549Y2657
X10549Y7657
X10549Y1657
X10549Y2657
X10549Y3657
X10549Y4657
X10549Y5657
X10549Y6657
X10549Y8657
X10549Y9657
X10549Y10657
X10549Y12657
X10549Y14657
X10487Y16782
X10487Y18782
X13362Y17782
X13362Y16782
X13362Y20782
X13362Y21782
X13362Y23782
X13362Y24782
X13362Y25782
X13362Y26782
X13362Y27782
X13362Y28782
X13362Y29782
X13362Y19782
X13362Y18782
X22424Y13657
X13424Y10657
X13424Y11657
X13424Y9657
X13424Y8657
X13424Y7657
X13424Y2657
X13424Y1657
X13424Y3657
X13424Y4657
X13424Y5657
X13424Y6657
X22424Y7657
X22424Y1657
X22424Y2657
X22424Y3657
X22424Y4657
X22424Y5657
X22424Y6657
X22424Y9657
X22424Y10657
X22424Y12657
X22424Y14657
X22362Y16782
X22362Y17782
X22362Y18782
X22424Y11657
X25049Y9657
X25049Y2657
X25049Y1657
X25049Y5657
X25049Y4657
X25049Y3657
X25049Y7657
X34049Y6657
X34049Y7657
X34049Y8657
X34049Y13657
X34049Y12657
X34049Y10657
X34049Y9657
X34049Y11657
X34049Y14657
X25049Y13657
X25049Y12657
X25049Y8657
X25049Y6657
X22424Y8657
X13424Y13657
X10549Y11657
X1549Y7657
X1549Y6657
X1549Y5657
X1549Y4657
X1487Y21782
X34049Y4657
X34049Y3657
X34049Y2657
X34049Y1657
X34049Y5657
M30
