G75*
%MOIN*%
%OFA0B0*%
%FSLAX25Y25*%
%IPPOS*%
%LPD*%
%AMOC8*
5,1,8,0,0,1.08239X$1,22.5*
%
%ADD10C,0.00600*%
%ADD11C,0.00500*%
%ADD12C,0.00400*%
%ADD13C,0.00800*%
%ADD14R,0.00750X0.03500*%
%ADD15C,0.00394*%
%ADD16R,0.01969X0.02461*%
%ADD17C,0.00100*%
%ADD18C,0.00000*%
%ADD19C,0.01200*%
D10*
X0007992Y0011565D02*
X0347367Y0011565D01*
X0347367Y0302815D01*
X0007367Y0302815D01*
X0007367Y0162815D01*
X0007992Y0162815D01*
X0007992Y0011565D01*
X0010492Y0014065D02*
X0012992Y0011565D01*
X0017992Y0011565D01*
X0020492Y0014065D01*
X0020492Y0019065D01*
X0017992Y0021565D01*
X0020492Y0024065D01*
X0020492Y0029065D01*
X0017992Y0031565D01*
X0012992Y0031565D01*
X0010492Y0029065D01*
X0010492Y0024065D01*
X0012992Y0021565D01*
X0017992Y0021565D01*
X0012992Y0021565D02*
X0010492Y0019065D01*
X0010492Y0014065D01*
X0012992Y0031565D02*
X0010492Y0034065D01*
X0010492Y0039065D01*
X0012992Y0041565D01*
X0010492Y0044065D01*
X0010492Y0049065D01*
X0012992Y0051565D01*
X0010492Y0054065D01*
X0010492Y0059065D01*
X0012992Y0061565D01*
X0017992Y0061565D01*
X0020492Y0059065D01*
X0020492Y0054065D01*
X0017992Y0051565D01*
X0020492Y0049065D01*
X0020492Y0044065D01*
X0017992Y0041565D01*
X0020492Y0039065D01*
X0020492Y0034065D01*
X0017992Y0031565D01*
X0017992Y0041565D02*
X0012992Y0041565D01*
X0012992Y0051565D02*
X0017992Y0051565D01*
X0017992Y0061565D02*
X0020492Y0064065D01*
X0020492Y0069065D01*
X0017992Y0071565D01*
X0020492Y0074065D01*
X0020492Y0079065D01*
X0017992Y0081565D01*
X0020492Y0084065D01*
X0020492Y0089065D01*
X0017992Y0091565D01*
X0012992Y0091565D01*
X0010492Y0089065D01*
X0010492Y0084065D01*
X0012992Y0081565D01*
X0017992Y0081565D01*
X0012992Y0081565D02*
X0010492Y0079065D01*
X0010492Y0074065D01*
X0012992Y0071565D01*
X0017992Y0071565D01*
X0012992Y0071565D02*
X0010492Y0069065D01*
X0010492Y0064065D01*
X0012992Y0061565D01*
X0012992Y0091565D02*
X0010492Y0094065D01*
X0010492Y0099065D01*
X0012992Y0101565D01*
X0010492Y0104065D01*
X0010492Y0109065D01*
X0012992Y0111565D01*
X0010492Y0114065D01*
X0010492Y0119065D01*
X0012992Y0121565D01*
X0017992Y0121565D01*
X0020492Y0119065D01*
X0020492Y0114065D01*
X0017992Y0111565D01*
X0020492Y0109065D01*
X0020492Y0104065D01*
X0017992Y0101565D01*
X0020492Y0099065D01*
X0020492Y0094065D01*
X0017992Y0091565D01*
X0017992Y0101565D02*
X0012992Y0101565D01*
X0012992Y0111565D02*
X0017992Y0111565D01*
X0017992Y0121565D02*
X0020492Y0124065D01*
X0020492Y0129065D01*
X0017992Y0131565D01*
X0020492Y0134065D01*
X0020492Y0139065D01*
X0017992Y0141565D01*
X0020492Y0144065D01*
X0020492Y0149065D01*
X0017992Y0151565D01*
X0012992Y0151565D01*
X0010492Y0149065D01*
X0010492Y0144065D01*
X0012992Y0141565D01*
X0017992Y0141565D01*
X0012992Y0141565D02*
X0010492Y0139065D01*
X0010492Y0134065D01*
X0012992Y0131565D01*
X0017992Y0131565D01*
X0012992Y0131565D02*
X0010492Y0129065D01*
X0010492Y0124065D01*
X0012992Y0121565D01*
X0026006Y0140915D02*
X0027740Y0140915D01*
X0028952Y0140915D02*
X0028952Y0143517D01*
X0030687Y0143517D01*
X0031899Y0143517D02*
X0033200Y0143517D01*
X0033633Y0143084D01*
X0033633Y0141349D01*
X0033200Y0140915D01*
X0031899Y0140915D01*
X0031899Y0143517D01*
X0029820Y0142216D02*
X0028952Y0142216D01*
X0028952Y0140915D02*
X0030687Y0140915D01*
X0034845Y0140915D02*
X0036580Y0140915D01*
X0035713Y0140915D02*
X0035713Y0143517D01*
X0034845Y0142650D01*
X0031492Y0146315D02*
X0031492Y0149315D01*
X0029492Y0147815D01*
X0031492Y0146315D01*
X0031492Y0146829D02*
X0030807Y0146829D01*
X0031492Y0147427D02*
X0030009Y0147427D01*
X0029772Y0148026D02*
X0031492Y0148026D01*
X0031492Y0148624D02*
X0030570Y0148624D01*
X0031368Y0149223D02*
X0031492Y0149223D01*
X0026006Y0143517D02*
X0026006Y0140915D01*
X0017367Y0162815D02*
X0012367Y0162815D01*
X0009867Y0165315D01*
X0009867Y0170315D01*
X0012367Y0172815D01*
X0009867Y0175315D01*
X0009867Y0180315D01*
X0012367Y0182815D01*
X0017367Y0182815D01*
X0019867Y0180315D01*
X0019867Y0175315D01*
X0017367Y0172815D01*
X0019867Y0170315D01*
X0019867Y0165315D01*
X0017367Y0162815D01*
X0017367Y0172815D02*
X0012367Y0172815D01*
X0012367Y0182815D02*
X0009867Y0185315D01*
X0009867Y0190315D01*
X0012367Y0192815D01*
X0009867Y0195315D01*
X0009867Y0200315D01*
X0012367Y0202815D01*
X0009867Y0205315D01*
X0009867Y0210315D01*
X0012367Y0212815D01*
X0017367Y0212815D01*
X0019867Y0210315D01*
X0019867Y0205315D01*
X0017367Y0202815D01*
X0019867Y0200315D01*
X0019867Y0195315D01*
X0017367Y0192815D01*
X0019867Y0190315D01*
X0019867Y0185315D01*
X0017367Y0182815D01*
X0017367Y0192815D02*
X0012367Y0192815D01*
X0012367Y0202815D02*
X0017367Y0202815D01*
X0017367Y0212815D02*
X0019867Y0215315D01*
X0019867Y0220315D01*
X0017367Y0222815D01*
X0019867Y0225315D01*
X0019867Y0230315D01*
X0017367Y0232815D01*
X0019867Y0235315D01*
X0019867Y0240315D01*
X0017367Y0242815D01*
X0012367Y0242815D01*
X0009867Y0240315D01*
X0009867Y0235315D01*
X0012367Y0232815D01*
X0017367Y0232815D01*
X0012367Y0232815D02*
X0009867Y0230315D01*
X0009867Y0225315D01*
X0012367Y0222815D01*
X0017367Y0222815D01*
X0012367Y0222815D02*
X0009867Y0220315D01*
X0009867Y0215315D01*
X0012367Y0212815D01*
X0012367Y0242815D02*
X0009867Y0245315D01*
X0009867Y0250315D01*
X0012367Y0252815D01*
X0009867Y0255315D01*
X0009867Y0260315D01*
X0012367Y0262815D01*
X0009867Y0265315D01*
X0009867Y0270315D01*
X0012367Y0272815D01*
X0017367Y0272815D01*
X0019867Y0270315D01*
X0019867Y0265315D01*
X0017367Y0262815D01*
X0019867Y0260315D01*
X0019867Y0255315D01*
X0017367Y0252815D01*
X0019867Y0250315D01*
X0019867Y0245315D01*
X0017367Y0242815D01*
X0017367Y0252815D02*
X0012367Y0252815D01*
X0012367Y0262815D02*
X0017367Y0262815D01*
X0017367Y0272815D02*
X0019867Y0275315D01*
X0019867Y0280315D01*
X0017367Y0282815D01*
X0019867Y0285315D01*
X0019867Y0290315D01*
X0017367Y0292815D01*
X0019867Y0295315D01*
X0019867Y0300315D01*
X0017367Y0302815D01*
X0012367Y0302815D01*
X0009867Y0300315D01*
X0009867Y0295315D01*
X0012367Y0292815D01*
X0017367Y0292815D01*
X0012367Y0292815D02*
X0009867Y0290315D01*
X0009867Y0285315D01*
X0012367Y0282815D01*
X0017367Y0282815D01*
X0012367Y0282815D02*
X0009867Y0280315D01*
X0009867Y0275315D01*
X0012367Y0272815D01*
X0025381Y0292165D02*
X0027115Y0292165D01*
X0028327Y0292165D02*
X0030062Y0292165D01*
X0031274Y0292165D02*
X0032575Y0292165D01*
X0033008Y0292599D01*
X0033008Y0294334D01*
X0032575Y0294767D01*
X0031274Y0294767D01*
X0031274Y0292165D01*
X0029195Y0293466D02*
X0028327Y0293466D01*
X0028327Y0294767D02*
X0028327Y0292165D01*
X0028327Y0294767D02*
X0030062Y0294767D01*
X0030867Y0297565D02*
X0030867Y0300565D01*
X0028867Y0299065D01*
X0030867Y0297565D01*
X0030867Y0297653D02*
X0030749Y0297653D01*
X0030867Y0298252D02*
X0029951Y0298252D01*
X0029153Y0298851D02*
X0030867Y0298851D01*
X0030867Y0299449D02*
X0029379Y0299449D01*
X0030177Y0300048D02*
X0030867Y0300048D01*
X0034220Y0294767D02*
X0035955Y0294767D01*
X0035955Y0294334D01*
X0034220Y0292599D01*
X0034220Y0292165D01*
X0025381Y0292165D02*
X0025381Y0294767D01*
X0064165Y0250642D02*
X0064165Y0248474D01*
X0064598Y0248040D01*
X0065466Y0248040D01*
X0065900Y0248474D01*
X0065900Y0250642D01*
X0067111Y0249775D02*
X0067979Y0250642D01*
X0067979Y0248040D01*
X0068846Y0248040D02*
X0067111Y0248040D01*
X0070058Y0248040D02*
X0071793Y0248040D01*
X0070925Y0248040D02*
X0070925Y0250642D01*
X0070058Y0249775D01*
X0099867Y0250315D02*
X0099867Y0245315D01*
X0102367Y0242815D01*
X0099867Y0240315D01*
X0099867Y0235315D01*
X0102367Y0232815D01*
X0099867Y0230315D01*
X0099867Y0225315D01*
X0102367Y0222815D01*
X0107367Y0222815D01*
X0109867Y0225315D01*
X0109867Y0230315D01*
X0107367Y0232815D01*
X0102367Y0232815D01*
X0107367Y0232815D02*
X0109867Y0235315D01*
X0109867Y0240315D01*
X0107367Y0242815D01*
X0102367Y0242815D01*
X0107367Y0242815D02*
X0109867Y0245315D01*
X0109867Y0250315D01*
X0107367Y0252815D01*
X0102367Y0252815D01*
X0099867Y0255315D01*
X0099867Y0260315D01*
X0102367Y0262815D01*
X0099867Y0265315D01*
X0099867Y0270315D01*
X0102367Y0272815D01*
X0099867Y0275315D01*
X0099867Y0280315D01*
X0102367Y0282815D01*
X0099867Y0285315D01*
X0099867Y0290315D01*
X0102367Y0292815D01*
X0099867Y0295315D01*
X0099867Y0300315D01*
X0102367Y0302815D01*
X0107367Y0302815D01*
X0109867Y0300315D01*
X0109867Y0295315D01*
X0107367Y0292815D01*
X0109867Y0290315D01*
X0109867Y0285315D01*
X0107367Y0282815D01*
X0102367Y0282815D01*
X0107367Y0282815D02*
X0109867Y0280315D01*
X0109867Y0275315D01*
X0107367Y0272815D01*
X0109867Y0270315D01*
X0109867Y0265315D01*
X0107367Y0262815D01*
X0109867Y0260315D01*
X0109867Y0255315D01*
X0107367Y0252815D01*
X0102367Y0252815D02*
X0099867Y0250315D01*
X0102367Y0262815D02*
X0107367Y0262815D01*
X0107367Y0272815D02*
X0102367Y0272815D01*
X0102367Y0292815D02*
X0107367Y0292815D01*
X0095955Y0292599D02*
X0095521Y0292165D01*
X0094654Y0292165D01*
X0094220Y0292599D01*
X0094220Y0293032D01*
X0094654Y0293466D01*
X0095521Y0293466D01*
X0095955Y0293032D01*
X0095955Y0292599D01*
X0095521Y0293466D02*
X0095955Y0293900D01*
X0095955Y0294334D01*
X0095521Y0294767D01*
X0094654Y0294767D01*
X0094220Y0294334D01*
X0094220Y0293900D01*
X0094654Y0293466D01*
X0093008Y0292599D02*
X0093008Y0294334D01*
X0092575Y0294767D01*
X0091274Y0294767D01*
X0091274Y0292165D01*
X0092575Y0292165D01*
X0093008Y0292599D01*
X0090062Y0292165D02*
X0088327Y0292165D01*
X0088327Y0294767D01*
X0090062Y0294767D01*
X0089195Y0293466D02*
X0088327Y0293466D01*
X0087115Y0292165D02*
X0085381Y0292165D01*
X0085381Y0294767D01*
X0088867Y0299065D02*
X0090867Y0300565D01*
X0090867Y0297565D01*
X0088867Y0299065D01*
X0089153Y0298851D02*
X0090867Y0298851D01*
X0090867Y0299449D02*
X0089379Y0299449D01*
X0090177Y0300048D02*
X0090867Y0300048D01*
X0090867Y0298252D02*
X0089951Y0298252D01*
X0090749Y0297653D02*
X0090867Y0297653D01*
X0128617Y0295315D02*
X0131117Y0292815D01*
X0136117Y0292815D01*
X0138617Y0295315D01*
X0138617Y0300315D01*
X0136117Y0302815D01*
X0131117Y0302815D01*
X0128617Y0300315D01*
X0128617Y0295315D01*
X0131117Y0292815D02*
X0128617Y0290315D01*
X0128617Y0285315D01*
X0131117Y0282815D01*
X0136117Y0282815D01*
X0138617Y0285315D01*
X0138617Y0290315D01*
X0136117Y0292815D01*
X0144131Y0292165D02*
X0145865Y0292165D01*
X0147077Y0292165D02*
X0148812Y0292165D01*
X0150024Y0292165D02*
X0150024Y0294767D01*
X0151325Y0294767D01*
X0151758Y0294334D01*
X0151758Y0292599D01*
X0151325Y0292165D01*
X0150024Y0292165D01*
X0147945Y0293466D02*
X0147077Y0293466D01*
X0147077Y0294767D02*
X0147077Y0292165D01*
X0147077Y0294767D02*
X0148812Y0294767D01*
X0149617Y0297565D02*
X0147617Y0299065D01*
X0149617Y0300565D01*
X0149617Y0297565D01*
X0149617Y0297653D02*
X0149499Y0297653D01*
X0149617Y0298252D02*
X0148701Y0298252D01*
X0147903Y0298851D02*
X0149617Y0298851D01*
X0149617Y0299449D02*
X0148129Y0299449D01*
X0148927Y0300048D02*
X0149617Y0300048D01*
X0153404Y0294767D02*
X0152970Y0294334D01*
X0152970Y0293900D01*
X0153404Y0293466D01*
X0154705Y0293466D01*
X0154705Y0292599D02*
X0154705Y0294334D01*
X0154271Y0294767D01*
X0153404Y0294767D01*
X0152970Y0292599D02*
X0153404Y0292165D01*
X0154271Y0292165D01*
X0154705Y0292599D01*
X0144131Y0292165D02*
X0144131Y0294767D01*
X0136117Y0282815D02*
X0138617Y0280315D01*
X0138617Y0275315D01*
X0136117Y0272815D01*
X0138617Y0270315D01*
X0138617Y0265315D01*
X0136117Y0262815D01*
X0138617Y0260315D01*
X0138617Y0255315D01*
X0136117Y0252815D01*
X0138617Y0250315D01*
X0138617Y0245315D01*
X0136117Y0242815D01*
X0138617Y0240315D01*
X0138617Y0235315D01*
X0136117Y0232815D01*
X0138617Y0230315D01*
X0138617Y0225315D01*
X0136117Y0222815D01*
X0138617Y0220315D01*
X0138617Y0215315D01*
X0136117Y0212815D01*
X0138617Y0210315D01*
X0138617Y0205315D01*
X0136117Y0202815D01*
X0138617Y0200315D01*
X0138617Y0195315D01*
X0136117Y0192815D01*
X0138617Y0190315D01*
X0138617Y0185315D01*
X0136117Y0182815D01*
X0138617Y0180315D01*
X0138617Y0175315D01*
X0136117Y0172815D01*
X0138617Y0170315D01*
X0138617Y0165315D01*
X0136117Y0162815D01*
X0131117Y0162815D01*
X0128617Y0165315D01*
X0128617Y0170315D01*
X0131117Y0172815D01*
X0128617Y0175315D01*
X0128617Y0180315D01*
X0131117Y0182815D01*
X0136117Y0182815D01*
X0131117Y0182815D02*
X0128617Y0185315D01*
X0128617Y0190315D01*
X0131117Y0192815D01*
X0128617Y0195315D01*
X0128617Y0200315D01*
X0131117Y0202815D01*
X0128617Y0205315D01*
X0128617Y0210315D01*
X0131117Y0212815D01*
X0136117Y0212815D01*
X0131117Y0212815D02*
X0128617Y0215315D01*
X0128617Y0220315D01*
X0131117Y0222815D01*
X0128617Y0225315D01*
X0128617Y0230315D01*
X0131117Y0232815D01*
X0128617Y0235315D01*
X0128617Y0240315D01*
X0131117Y0242815D01*
X0136117Y0242815D01*
X0131117Y0242815D02*
X0128617Y0245315D01*
X0128617Y0250315D01*
X0131117Y0252815D01*
X0128617Y0255315D01*
X0128617Y0260315D01*
X0131117Y0262815D01*
X0128617Y0265315D01*
X0128617Y0270315D01*
X0131117Y0272815D01*
X0136117Y0272815D01*
X0131117Y0272815D02*
X0128617Y0275315D01*
X0128617Y0280315D01*
X0131117Y0282815D01*
X0131117Y0262815D02*
X0136117Y0262815D01*
X0136117Y0252815D02*
X0131117Y0252815D01*
X0131117Y0232815D02*
X0136117Y0232815D01*
X0136117Y0222815D02*
X0131117Y0222815D01*
X0131117Y0202815D02*
X0136117Y0202815D01*
X0136117Y0192815D02*
X0131117Y0192815D01*
X0109867Y0190315D02*
X0109867Y0185315D01*
X0107367Y0182815D01*
X0109867Y0180315D01*
X0109867Y0175315D01*
X0107367Y0172815D01*
X0109867Y0170315D01*
X0109867Y0165315D01*
X0107367Y0162815D01*
X0102367Y0162815D01*
X0099867Y0165315D01*
X0099867Y0170315D01*
X0102367Y0172815D01*
X0099867Y0175315D01*
X0099867Y0180315D01*
X0102367Y0182815D01*
X0099867Y0185315D01*
X0099867Y0190315D01*
X0102367Y0192815D01*
X0099867Y0195315D01*
X0099867Y0200315D01*
X0102367Y0202815D01*
X0099867Y0205315D01*
X0099867Y0210315D01*
X0102367Y0212815D01*
X0099867Y0215315D01*
X0099867Y0220315D01*
X0102367Y0222815D01*
X0107367Y0222815D02*
X0109867Y0220315D01*
X0109867Y0215315D01*
X0107367Y0212815D01*
X0109867Y0210315D01*
X0109867Y0205315D01*
X0107367Y0202815D01*
X0109867Y0200315D01*
X0109867Y0195315D01*
X0107367Y0192815D01*
X0102367Y0192815D01*
X0107367Y0192815D02*
X0109867Y0190315D01*
X0107367Y0182815D02*
X0102367Y0182815D01*
X0102367Y0172815D02*
X0107367Y0172815D01*
X0131117Y0172815D02*
X0136117Y0172815D01*
X0136742Y0151565D02*
X0131742Y0151565D01*
X0129242Y0149065D01*
X0129242Y0144065D01*
X0131742Y0141565D01*
X0136742Y0141565D01*
X0139242Y0144065D01*
X0139242Y0149065D01*
X0136742Y0151565D01*
X0144756Y0143517D02*
X0144756Y0140915D01*
X0146490Y0140915D01*
X0147702Y0140915D02*
X0149437Y0140915D01*
X0150649Y0140915D02*
X0151950Y0140915D01*
X0152383Y0141349D01*
X0152383Y0143084D01*
X0151950Y0143517D01*
X0150649Y0143517D01*
X0150649Y0140915D01*
X0148570Y0142216D02*
X0147702Y0142216D01*
X0147702Y0143517D02*
X0147702Y0140915D01*
X0147702Y0143517D02*
X0149437Y0143517D01*
X0150242Y0146315D02*
X0148242Y0147815D01*
X0150242Y0149315D01*
X0150242Y0146315D01*
X0150242Y0146829D02*
X0149557Y0146829D01*
X0150242Y0147427D02*
X0148759Y0147427D01*
X0148522Y0148026D02*
X0150242Y0148026D01*
X0150242Y0148624D02*
X0149320Y0148624D01*
X0150118Y0149223D02*
X0150242Y0149223D01*
X0154029Y0143517D02*
X0154896Y0143517D01*
X0155330Y0143084D01*
X0155330Y0142650D01*
X0154896Y0142216D01*
X0155330Y0141782D01*
X0155330Y0141349D01*
X0154896Y0140915D01*
X0154029Y0140915D01*
X0153595Y0141349D01*
X0154463Y0142216D02*
X0154896Y0142216D01*
X0153595Y0143084D02*
X0154029Y0143517D01*
X0139242Y0139065D02*
X0139242Y0134065D01*
X0136742Y0131565D01*
X0139242Y0129065D01*
X0139242Y0124065D01*
X0136742Y0121565D01*
X0139242Y0119065D01*
X0139242Y0114065D01*
X0136742Y0111565D01*
X0139242Y0109065D01*
X0139242Y0104065D01*
X0136742Y0101565D01*
X0139242Y0099065D01*
X0139242Y0094065D01*
X0136742Y0091565D01*
X0139242Y0089065D01*
X0139242Y0084065D01*
X0136742Y0081565D01*
X0139242Y0079065D01*
X0139242Y0074065D01*
X0136742Y0071565D01*
X0139242Y0069065D01*
X0139242Y0064065D01*
X0136742Y0061565D01*
X0139242Y0059065D01*
X0139242Y0054065D01*
X0136742Y0051565D01*
X0139242Y0049065D01*
X0139242Y0044065D01*
X0136742Y0041565D01*
X0139242Y0039065D01*
X0139242Y0034065D01*
X0136742Y0031565D01*
X0139242Y0029065D01*
X0139242Y0024065D01*
X0136742Y0021565D01*
X0139242Y0019065D01*
X0139242Y0014065D01*
X0136742Y0011565D01*
X0131742Y0011565D01*
X0129242Y0014065D01*
X0129242Y0019065D01*
X0131742Y0021565D01*
X0129242Y0024065D01*
X0129242Y0029065D01*
X0131742Y0031565D01*
X0136742Y0031565D01*
X0131742Y0031565D02*
X0129242Y0034065D01*
X0129242Y0039065D01*
X0131742Y0041565D01*
X0129242Y0044065D01*
X0129242Y0049065D01*
X0131742Y0051565D01*
X0129242Y0054065D01*
X0129242Y0059065D01*
X0131742Y0061565D01*
X0136742Y0061565D01*
X0131742Y0061565D02*
X0129242Y0064065D01*
X0129242Y0069065D01*
X0131742Y0071565D01*
X0129242Y0074065D01*
X0129242Y0079065D01*
X0131742Y0081565D01*
X0129242Y0084065D01*
X0129242Y0089065D01*
X0131742Y0091565D01*
X0136742Y0091565D01*
X0131742Y0091565D02*
X0129242Y0094065D01*
X0129242Y0099065D01*
X0131742Y0101565D01*
X0129242Y0104065D01*
X0129242Y0109065D01*
X0131742Y0111565D01*
X0129242Y0114065D01*
X0129242Y0119065D01*
X0131742Y0121565D01*
X0136742Y0121565D01*
X0131742Y0121565D02*
X0129242Y0124065D01*
X0129242Y0129065D01*
X0131742Y0131565D01*
X0129242Y0134065D01*
X0129242Y0139065D01*
X0131742Y0141565D01*
X0136742Y0141565D02*
X0139242Y0139065D01*
X0136742Y0131565D02*
X0131742Y0131565D01*
X0131742Y0111565D02*
X0136742Y0111565D01*
X0136742Y0101565D02*
X0131742Y0101565D01*
X0110492Y0099065D02*
X0110492Y0094065D01*
X0107992Y0091565D01*
X0110492Y0089065D01*
X0110492Y0084065D01*
X0107992Y0081565D01*
X0110492Y0079065D01*
X0110492Y0074065D01*
X0107992Y0071565D01*
X0102992Y0071565D01*
X0100492Y0074065D01*
X0100492Y0079065D01*
X0102992Y0081565D01*
X0100492Y0084065D01*
X0100492Y0089065D01*
X0102992Y0091565D01*
X0100492Y0094065D01*
X0100492Y0099065D01*
X0102992Y0101565D01*
X0100492Y0104065D01*
X0100492Y0109065D01*
X0102992Y0111565D01*
X0100492Y0114065D01*
X0100492Y0119065D01*
X0102992Y0121565D01*
X0100492Y0124065D01*
X0100492Y0129065D01*
X0102992Y0131565D01*
X0100492Y0134065D01*
X0100492Y0139065D01*
X0102992Y0141565D01*
X0100492Y0144065D01*
X0100492Y0149065D01*
X0102992Y0151565D01*
X0107992Y0151565D01*
X0110492Y0149065D01*
X0110492Y0144065D01*
X0107992Y0141565D01*
X0110492Y0139065D01*
X0110492Y0134065D01*
X0107992Y0131565D01*
X0102992Y0131565D01*
X0107992Y0131565D02*
X0110492Y0129065D01*
X0110492Y0124065D01*
X0107992Y0121565D01*
X0110492Y0119065D01*
X0110492Y0114065D01*
X0107992Y0111565D01*
X0110492Y0109065D01*
X0110492Y0104065D01*
X0107992Y0101565D01*
X0102992Y0101565D01*
X0107992Y0101565D02*
X0110492Y0099065D01*
X0107992Y0091565D02*
X0102992Y0091565D01*
X0102992Y0081565D02*
X0107992Y0081565D01*
X0107992Y0071565D02*
X0110492Y0069065D01*
X0110492Y0064065D01*
X0107992Y0061565D01*
X0110492Y0059065D01*
X0110492Y0054065D01*
X0107992Y0051565D01*
X0110492Y0049065D01*
X0110492Y0044065D01*
X0107992Y0041565D01*
X0102992Y0041565D01*
X0100492Y0044065D01*
X0100492Y0049065D01*
X0102992Y0051565D01*
X0100492Y0054065D01*
X0100492Y0059065D01*
X0102992Y0061565D01*
X0100492Y0064065D01*
X0100492Y0069065D01*
X0102992Y0071565D01*
X0102992Y0061565D02*
X0107992Y0061565D01*
X0107992Y0051565D02*
X0102992Y0051565D01*
X0102992Y0041565D02*
X0100492Y0039065D01*
X0100492Y0034065D01*
X0102992Y0031565D01*
X0100492Y0029065D01*
X0100492Y0024065D01*
X0102992Y0021565D01*
X0100492Y0019065D01*
X0100492Y0014065D01*
X0102992Y0011565D01*
X0107992Y0011565D01*
X0110492Y0014065D01*
X0110492Y0019065D01*
X0107992Y0021565D01*
X0102992Y0021565D01*
X0107992Y0021565D02*
X0110492Y0024065D01*
X0110492Y0029065D01*
X0107992Y0031565D01*
X0102992Y0031565D01*
X0107992Y0031565D02*
X0110492Y0034065D01*
X0110492Y0039065D01*
X0107992Y0041565D01*
X0131742Y0041565D02*
X0136742Y0041565D01*
X0136742Y0051565D02*
X0131742Y0051565D01*
X0131742Y0071565D02*
X0136742Y0071565D01*
X0136742Y0081565D02*
X0131742Y0081565D01*
X0107992Y0111565D02*
X0102992Y0111565D01*
X0102992Y0121565D02*
X0107992Y0121565D01*
X0107992Y0141565D02*
X0102992Y0141565D01*
X0096580Y0140915D02*
X0094845Y0140915D01*
X0096580Y0142650D01*
X0096580Y0143084D01*
X0096146Y0143517D01*
X0095279Y0143517D01*
X0094845Y0143084D01*
X0093633Y0143084D02*
X0093200Y0143517D01*
X0091899Y0143517D01*
X0091899Y0140915D01*
X0093200Y0140915D01*
X0093633Y0141349D01*
X0093633Y0143084D01*
X0090687Y0143517D02*
X0088952Y0143517D01*
X0088952Y0140915D01*
X0090687Y0140915D01*
X0089820Y0142216D02*
X0088952Y0142216D01*
X0087740Y0140915D02*
X0086006Y0140915D01*
X0086006Y0143517D01*
X0089492Y0147815D02*
X0091492Y0149315D01*
X0091492Y0146315D01*
X0089492Y0147815D01*
X0089772Y0148026D02*
X0091492Y0148026D01*
X0091492Y0148624D02*
X0090570Y0148624D01*
X0091368Y0149223D02*
X0091492Y0149223D01*
X0091492Y0147427D02*
X0090009Y0147427D01*
X0090807Y0146829D02*
X0091492Y0146829D01*
X0067705Y0165966D02*
X0065970Y0165966D01*
X0067271Y0167267D01*
X0067271Y0164665D01*
X0064758Y0164665D02*
X0064758Y0167267D01*
X0063024Y0167267D02*
X0064758Y0164665D01*
X0063024Y0164665D02*
X0063024Y0167267D01*
X0061812Y0166834D02*
X0061378Y0167267D01*
X0060511Y0167267D01*
X0060077Y0166834D01*
X0060077Y0165099D01*
X0060511Y0164665D01*
X0061378Y0164665D01*
X0061812Y0165099D01*
X0102367Y0202815D02*
X0107367Y0202815D01*
X0107367Y0212815D02*
X0102367Y0212815D01*
X0178827Y0166834D02*
X0178827Y0165099D01*
X0179261Y0164665D01*
X0180128Y0164665D01*
X0180562Y0165099D01*
X0181774Y0164665D02*
X0181774Y0167267D01*
X0183508Y0164665D01*
X0183508Y0167267D01*
X0184720Y0167267D02*
X0184720Y0165966D01*
X0185588Y0166400D01*
X0186021Y0166400D01*
X0186455Y0165966D01*
X0186455Y0165099D01*
X0186021Y0164665D01*
X0185154Y0164665D01*
X0184720Y0165099D01*
X0184720Y0167267D02*
X0186455Y0167267D01*
X0180562Y0166834D02*
X0180128Y0167267D01*
X0179261Y0167267D01*
X0178827Y0166834D01*
X0204756Y0143517D02*
X0204756Y0140915D01*
X0206490Y0140915D01*
X0207702Y0140915D02*
X0209437Y0140915D01*
X0210649Y0140915D02*
X0210649Y0143517D01*
X0211950Y0143517D01*
X0212383Y0143084D01*
X0212383Y0141349D01*
X0211950Y0140915D01*
X0210649Y0140915D01*
X0208570Y0142216D02*
X0207702Y0142216D01*
X0207702Y0143517D02*
X0207702Y0140915D01*
X0207702Y0143517D02*
X0209437Y0143517D01*
X0210242Y0146315D02*
X0208242Y0147815D01*
X0210242Y0149315D01*
X0210242Y0146315D01*
X0210242Y0146829D02*
X0209557Y0146829D01*
X0210242Y0147427D02*
X0208759Y0147427D01*
X0208522Y0148026D02*
X0210242Y0148026D01*
X0210242Y0148624D02*
X0209320Y0148624D01*
X0210118Y0149223D02*
X0210242Y0149223D01*
X0214896Y0143517D02*
X0213595Y0142216D01*
X0215330Y0142216D01*
X0214896Y0140915D02*
X0214896Y0143517D01*
X0219242Y0144065D02*
X0219242Y0149065D01*
X0221742Y0151565D01*
X0226742Y0151565D01*
X0229242Y0149065D01*
X0229242Y0144065D01*
X0226742Y0141565D01*
X0229242Y0139065D01*
X0229242Y0134065D01*
X0226742Y0131565D01*
X0221742Y0131565D01*
X0219242Y0134065D01*
X0219242Y0139065D01*
X0221742Y0141565D01*
X0219242Y0144065D01*
X0221742Y0141565D02*
X0226742Y0141565D01*
X0226742Y0131565D02*
X0229242Y0129065D01*
X0229242Y0124065D01*
X0226742Y0121565D01*
X0229242Y0119065D01*
X0229242Y0114065D01*
X0226742Y0111565D01*
X0229242Y0109065D01*
X0229242Y0104065D01*
X0226742Y0101565D01*
X0221742Y0101565D01*
X0219242Y0104065D01*
X0219242Y0109065D01*
X0221742Y0111565D01*
X0219242Y0114065D01*
X0219242Y0119065D01*
X0221742Y0121565D01*
X0219242Y0124065D01*
X0219242Y0129065D01*
X0221742Y0131565D01*
X0221742Y0121565D02*
X0226742Y0121565D01*
X0226742Y0111565D02*
X0221742Y0111565D01*
X0221742Y0101565D02*
X0219242Y0099065D01*
X0219242Y0094065D01*
X0221742Y0091565D01*
X0219242Y0089065D01*
X0219242Y0084065D01*
X0221742Y0081565D01*
X0219242Y0079065D01*
X0219242Y0074065D01*
X0221742Y0071565D01*
X0226742Y0071565D01*
X0229242Y0074065D01*
X0229242Y0079065D01*
X0226742Y0081565D01*
X0221742Y0081565D01*
X0226742Y0081565D02*
X0229242Y0084065D01*
X0229242Y0089065D01*
X0226742Y0091565D01*
X0221742Y0091565D01*
X0226742Y0091565D02*
X0229242Y0094065D01*
X0229242Y0099065D01*
X0226742Y0101565D01*
X0245492Y0099065D02*
X0245492Y0094065D01*
X0247992Y0091565D01*
X0252992Y0091565D01*
X0255492Y0089065D01*
X0255492Y0084065D01*
X0252992Y0081565D01*
X0255492Y0079065D01*
X0255492Y0074065D01*
X0252992Y0071565D01*
X0255492Y0069065D01*
X0255492Y0064065D01*
X0252992Y0061565D01*
X0255492Y0059065D01*
X0255492Y0054065D01*
X0252992Y0051565D01*
X0255492Y0049065D01*
X0255492Y0044065D01*
X0252992Y0041565D01*
X0255492Y0039065D01*
X0255492Y0034065D01*
X0252992Y0031565D01*
X0255492Y0029065D01*
X0255492Y0024065D01*
X0252992Y0021565D01*
X0255492Y0019065D01*
X0255492Y0014065D01*
X0252992Y0011565D01*
X0247992Y0011565D01*
X0245492Y0014065D01*
X0245492Y0019065D01*
X0247992Y0021565D01*
X0245492Y0024065D01*
X0245492Y0029065D01*
X0247992Y0031565D01*
X0252992Y0031565D01*
X0247992Y0031565D02*
X0245492Y0034065D01*
X0245492Y0039065D01*
X0247992Y0041565D01*
X0245492Y0044065D01*
X0245492Y0049065D01*
X0247992Y0051565D01*
X0245492Y0054065D01*
X0245492Y0059065D01*
X0247992Y0061565D01*
X0252992Y0061565D01*
X0247992Y0061565D02*
X0245492Y0064065D01*
X0245492Y0069065D01*
X0247992Y0071565D01*
X0245492Y0074065D01*
X0245492Y0079065D01*
X0247992Y0081565D01*
X0245492Y0084065D01*
X0245492Y0089065D01*
X0247992Y0091565D01*
X0252992Y0091565D02*
X0255492Y0094065D01*
X0255492Y0099065D01*
X0252992Y0101565D01*
X0255492Y0104065D01*
X0255492Y0109065D01*
X0252992Y0111565D01*
X0255492Y0114065D01*
X0255492Y0119065D01*
X0252992Y0121565D01*
X0247992Y0121565D01*
X0245492Y0119065D01*
X0245492Y0114065D01*
X0247992Y0111565D01*
X0252992Y0111565D01*
X0247992Y0111565D02*
X0245492Y0109065D01*
X0245492Y0104065D01*
X0247992Y0101565D01*
X0252992Y0101565D01*
X0247992Y0101565D02*
X0245492Y0099065D01*
X0247992Y0081565D02*
X0252992Y0081565D01*
X0252992Y0071565D02*
X0247992Y0071565D01*
X0229242Y0069065D02*
X0229242Y0064065D01*
X0226742Y0061565D01*
X0229242Y0059065D01*
X0229242Y0054065D01*
X0226742Y0051565D01*
X0229242Y0049065D01*
X0229242Y0044065D01*
X0226742Y0041565D01*
X0221742Y0041565D01*
X0219242Y0044065D01*
X0219242Y0049065D01*
X0221742Y0051565D01*
X0219242Y0054065D01*
X0219242Y0059065D01*
X0221742Y0061565D01*
X0219242Y0064065D01*
X0219242Y0069065D01*
X0221742Y0071565D01*
X0226742Y0071565D02*
X0229242Y0069065D01*
X0226742Y0061565D02*
X0221742Y0061565D01*
X0221742Y0051565D02*
X0226742Y0051565D01*
X0226742Y0041565D02*
X0229242Y0039065D01*
X0229242Y0034065D01*
X0226742Y0031565D01*
X0229242Y0029065D01*
X0229242Y0024065D01*
X0226742Y0021565D01*
X0229242Y0019065D01*
X0229242Y0014065D01*
X0226742Y0011565D01*
X0221742Y0011565D01*
X0219242Y0014065D01*
X0219242Y0019065D01*
X0221742Y0021565D01*
X0219242Y0024065D01*
X0219242Y0029065D01*
X0221742Y0031565D01*
X0219242Y0034065D01*
X0219242Y0039065D01*
X0221742Y0041565D01*
X0221742Y0031565D02*
X0226742Y0031565D01*
X0226742Y0021565D02*
X0221742Y0021565D01*
X0247992Y0021565D02*
X0252992Y0021565D01*
X0252992Y0041565D02*
X0247992Y0041565D01*
X0247992Y0051565D02*
X0252992Y0051565D01*
X0295702Y0015584D02*
X0295702Y0013849D01*
X0296136Y0013415D01*
X0297003Y0013415D01*
X0297437Y0013849D01*
X0298649Y0013415D02*
X0298649Y0016017D01*
X0300383Y0013415D01*
X0300383Y0016017D01*
X0301595Y0015584D02*
X0302029Y0016017D01*
X0302896Y0016017D01*
X0303330Y0015584D01*
X0303330Y0015150D01*
X0301595Y0013415D01*
X0303330Y0013415D01*
X0297437Y0015584D02*
X0297003Y0016017D01*
X0296136Y0016017D01*
X0295702Y0015584D01*
X0335492Y0014065D02*
X0335492Y0019065D01*
X0337992Y0021565D01*
X0335492Y0024065D01*
X0335492Y0029065D01*
X0337992Y0031565D01*
X0335492Y0034065D01*
X0335492Y0039065D01*
X0337992Y0041565D01*
X0335492Y0044065D01*
X0335492Y0049065D01*
X0337992Y0051565D01*
X0335492Y0054065D01*
X0335492Y0059065D01*
X0337992Y0061565D01*
X0335492Y0064065D01*
X0335492Y0069065D01*
X0337992Y0071565D01*
X0335492Y0074065D01*
X0335492Y0079065D01*
X0337992Y0081565D01*
X0335492Y0084065D01*
X0335492Y0089065D01*
X0337992Y0091565D01*
X0335492Y0094065D01*
X0335492Y0099065D01*
X0337992Y0101565D01*
X0335492Y0104065D01*
X0335492Y0109065D01*
X0337992Y0111565D01*
X0335492Y0114065D01*
X0335492Y0119065D01*
X0337992Y0121565D01*
X0335492Y0124065D01*
X0335492Y0129065D01*
X0337992Y0131565D01*
X0335492Y0134065D01*
X0335492Y0139065D01*
X0337992Y0141565D01*
X0335492Y0144065D01*
X0335492Y0149065D01*
X0337992Y0151565D01*
X0342992Y0151565D01*
X0345492Y0149065D01*
X0345492Y0144065D01*
X0342992Y0141565D01*
X0345492Y0139065D01*
X0345492Y0134065D01*
X0342992Y0131565D01*
X0337992Y0131565D01*
X0342992Y0131565D02*
X0345492Y0129065D01*
X0345492Y0124065D01*
X0342992Y0121565D01*
X0345492Y0119065D01*
X0345492Y0114065D01*
X0342992Y0111565D01*
X0345492Y0109065D01*
X0345492Y0104065D01*
X0342992Y0101565D01*
X0337992Y0101565D01*
X0342992Y0101565D02*
X0345492Y0099065D01*
X0345492Y0094065D01*
X0342992Y0091565D01*
X0345492Y0089065D01*
X0345492Y0084065D01*
X0342992Y0081565D01*
X0345492Y0079065D01*
X0345492Y0074065D01*
X0342992Y0071565D01*
X0337992Y0071565D01*
X0342992Y0071565D02*
X0345492Y0069065D01*
X0345492Y0064065D01*
X0342992Y0061565D01*
X0345492Y0059065D01*
X0345492Y0054065D01*
X0342992Y0051565D01*
X0345492Y0049065D01*
X0345492Y0044065D01*
X0342992Y0041565D01*
X0337992Y0041565D01*
X0342992Y0041565D02*
X0345492Y0039065D01*
X0345492Y0034065D01*
X0342992Y0031565D01*
X0345492Y0029065D01*
X0345492Y0024065D01*
X0342992Y0021565D01*
X0345492Y0019065D01*
X0345492Y0014065D01*
X0342992Y0011565D01*
X0337992Y0011565D01*
X0335492Y0014065D01*
X0337992Y0021565D02*
X0342992Y0021565D01*
X0342992Y0031565D02*
X0337992Y0031565D01*
X0347367Y0011565D02*
X0347992Y0011565D01*
X0342992Y0051565D02*
X0337992Y0051565D01*
X0337992Y0061565D02*
X0342992Y0061565D01*
X0342992Y0081565D02*
X0337992Y0081565D01*
X0337992Y0091565D02*
X0342992Y0091565D01*
X0342992Y0111565D02*
X0337992Y0111565D01*
X0337992Y0121565D02*
X0342992Y0121565D01*
X0342992Y0141565D02*
X0337992Y0141565D01*
X0331580Y0141349D02*
X0331580Y0141782D01*
X0331146Y0142216D01*
X0329845Y0142216D01*
X0329845Y0141349D01*
X0330279Y0140915D01*
X0331146Y0140915D01*
X0331580Y0141349D01*
X0330713Y0143084D02*
X0329845Y0142216D01*
X0330713Y0143084D02*
X0331580Y0143517D01*
X0328633Y0143084D02*
X0328633Y0141349D01*
X0328200Y0140915D01*
X0326899Y0140915D01*
X0326899Y0143517D01*
X0328200Y0143517D01*
X0328633Y0143084D01*
X0325687Y0143517D02*
X0323952Y0143517D01*
X0323952Y0140915D01*
X0325687Y0140915D01*
X0324820Y0142216D02*
X0323952Y0142216D01*
X0322740Y0140915D02*
X0321006Y0140915D01*
X0321006Y0143517D01*
X0324492Y0147815D02*
X0326492Y0149315D01*
X0326492Y0146315D01*
X0324492Y0147815D01*
X0324772Y0148026D02*
X0326492Y0148026D01*
X0326492Y0148624D02*
X0325570Y0148624D01*
X0326368Y0149223D02*
X0326492Y0149223D01*
X0326492Y0147427D02*
X0325009Y0147427D01*
X0325807Y0146829D02*
X0326492Y0146829D01*
X0337367Y0162815D02*
X0334867Y0165315D01*
X0334867Y0170315D01*
X0337367Y0172815D01*
X0334867Y0175315D01*
X0334867Y0180315D01*
X0337367Y0182815D01*
X0334867Y0185315D01*
X0334867Y0190315D01*
X0337367Y0192815D01*
X0334867Y0195315D01*
X0334867Y0200315D01*
X0337367Y0202815D01*
X0334867Y0205315D01*
X0334867Y0210315D01*
X0337367Y0212815D01*
X0334867Y0215315D01*
X0334867Y0220315D01*
X0337367Y0222815D01*
X0334867Y0225315D01*
X0334867Y0230315D01*
X0337367Y0232815D01*
X0334867Y0235315D01*
X0334867Y0240315D01*
X0337367Y0242815D01*
X0334867Y0245315D01*
X0334867Y0250315D01*
X0337367Y0252815D01*
X0334867Y0255315D01*
X0334867Y0260315D01*
X0337367Y0262815D01*
X0334867Y0265315D01*
X0334867Y0270315D01*
X0337367Y0272815D01*
X0334867Y0275315D01*
X0334867Y0280315D01*
X0337367Y0282815D01*
X0334867Y0285315D01*
X0334867Y0290315D01*
X0337367Y0292815D01*
X0334867Y0295315D01*
X0334867Y0300315D01*
X0337367Y0302815D01*
X0342367Y0302815D01*
X0344867Y0300315D01*
X0344867Y0295315D01*
X0342367Y0292815D01*
X0344867Y0290315D01*
X0344867Y0285315D01*
X0342367Y0282815D01*
X0337367Y0282815D01*
X0342367Y0282815D02*
X0344867Y0280315D01*
X0344867Y0275315D01*
X0342367Y0272815D01*
X0344867Y0270315D01*
X0344867Y0265315D01*
X0342367Y0262815D01*
X0344867Y0260315D01*
X0344867Y0255315D01*
X0342367Y0252815D01*
X0337367Y0252815D01*
X0342367Y0252815D02*
X0344867Y0250315D01*
X0344867Y0245315D01*
X0342367Y0242815D01*
X0344867Y0240315D01*
X0344867Y0235315D01*
X0342367Y0232815D01*
X0344867Y0230315D01*
X0344867Y0225315D01*
X0342367Y0222815D01*
X0337367Y0222815D01*
X0342367Y0222815D02*
X0344867Y0220315D01*
X0344867Y0215315D01*
X0342367Y0212815D01*
X0344867Y0210315D01*
X0344867Y0205315D01*
X0342367Y0202815D01*
X0344867Y0200315D01*
X0344867Y0195315D01*
X0342367Y0192815D01*
X0337367Y0192815D01*
X0342367Y0192815D02*
X0344867Y0190315D01*
X0344867Y0185315D01*
X0342367Y0182815D01*
X0344867Y0180315D01*
X0344867Y0175315D01*
X0342367Y0172815D01*
X0344867Y0170315D01*
X0344867Y0165315D01*
X0342367Y0162815D01*
X0337367Y0162815D01*
X0337367Y0172815D02*
X0342367Y0172815D01*
X0342367Y0182815D02*
X0337367Y0182815D01*
X0337367Y0202815D02*
X0342367Y0202815D01*
X0342367Y0212815D02*
X0337367Y0212815D01*
X0337367Y0232815D02*
X0342367Y0232815D01*
X0342367Y0242815D02*
X0337367Y0242815D01*
X0337367Y0262815D02*
X0342367Y0262815D01*
X0342367Y0272815D02*
X0337367Y0272815D01*
X0337367Y0292815D02*
X0342367Y0292815D01*
X0330955Y0292165D02*
X0329220Y0292165D01*
X0330955Y0293900D01*
X0330955Y0294334D01*
X0330521Y0294767D01*
X0329654Y0294767D01*
X0329220Y0294334D01*
X0327141Y0294767D02*
X0327141Y0292165D01*
X0326274Y0292165D02*
X0328008Y0292165D01*
X0326274Y0293900D02*
X0327141Y0294767D01*
X0325062Y0294334D02*
X0325062Y0292599D01*
X0324628Y0292165D01*
X0323327Y0292165D01*
X0323327Y0294767D01*
X0324628Y0294767D01*
X0325062Y0294334D01*
X0322115Y0294767D02*
X0320381Y0294767D01*
X0320381Y0292165D01*
X0322115Y0292165D01*
X0321248Y0293466D02*
X0320381Y0293466D01*
X0319169Y0292165D02*
X0317434Y0292165D01*
X0317434Y0294767D01*
X0323867Y0299065D02*
X0325867Y0300565D01*
X0325867Y0297565D01*
X0323867Y0299065D01*
X0324153Y0298851D02*
X0325867Y0298851D01*
X0325867Y0299449D02*
X0324379Y0299449D01*
X0325177Y0300048D02*
X0325867Y0300048D01*
X0325867Y0298252D02*
X0324951Y0298252D01*
X0325749Y0297653D02*
X0325867Y0297653D01*
X0306793Y0250642D02*
X0305058Y0250642D01*
X0306793Y0250642D02*
X0306793Y0250209D01*
X0305058Y0248474D01*
X0305058Y0248040D01*
X0303846Y0248040D02*
X0302111Y0248040D01*
X0302979Y0248040D02*
X0302979Y0250642D01*
X0302111Y0249775D01*
X0300900Y0250642D02*
X0300900Y0248474D01*
X0300466Y0248040D01*
X0299598Y0248040D01*
X0299165Y0248474D01*
X0299165Y0250642D01*
X0254867Y0250315D02*
X0254867Y0245315D01*
X0252367Y0242815D01*
X0254867Y0240315D01*
X0254867Y0235315D01*
X0252367Y0232815D01*
X0254867Y0230315D01*
X0254867Y0225315D01*
X0252367Y0222815D01*
X0254867Y0220315D01*
X0254867Y0215315D01*
X0252367Y0212815D01*
X0254867Y0210315D01*
X0254867Y0205315D01*
X0252367Y0202815D01*
X0254867Y0200315D01*
X0254867Y0195315D01*
X0252367Y0192815D01*
X0254867Y0190315D01*
X0254867Y0185315D01*
X0252367Y0182815D01*
X0254867Y0180315D01*
X0254867Y0175315D01*
X0252367Y0172815D01*
X0254867Y0170315D01*
X0254867Y0165315D01*
X0252367Y0162815D01*
X0247367Y0162815D01*
X0244867Y0165315D01*
X0244867Y0170315D01*
X0247367Y0172815D01*
X0244867Y0175315D01*
X0244867Y0180315D01*
X0247367Y0182815D01*
X0252367Y0182815D01*
X0247367Y0182815D02*
X0244867Y0185315D01*
X0244867Y0190315D01*
X0247367Y0192815D01*
X0244867Y0195315D01*
X0244867Y0200315D01*
X0247367Y0202815D01*
X0244867Y0205315D01*
X0244867Y0210315D01*
X0247367Y0212815D01*
X0252367Y0212815D01*
X0247367Y0212815D02*
X0244867Y0215315D01*
X0244867Y0220315D01*
X0247367Y0222815D01*
X0244867Y0225315D01*
X0244867Y0230315D01*
X0247367Y0232815D01*
X0244867Y0235315D01*
X0244867Y0240315D01*
X0247367Y0242815D01*
X0252367Y0242815D01*
X0247367Y0242815D02*
X0244867Y0245315D01*
X0244867Y0250315D01*
X0247367Y0252815D01*
X0244867Y0255315D01*
X0244867Y0260315D01*
X0247367Y0262815D01*
X0244867Y0265315D01*
X0244867Y0270315D01*
X0247367Y0272815D01*
X0252367Y0272815D01*
X0254867Y0270315D01*
X0254867Y0265315D01*
X0252367Y0262815D01*
X0254867Y0260315D01*
X0254867Y0255315D01*
X0252367Y0252815D01*
X0254867Y0250315D01*
X0252367Y0252815D02*
X0247367Y0252815D01*
X0247367Y0262815D02*
X0252367Y0262815D01*
X0252367Y0272815D02*
X0254867Y0275315D01*
X0254867Y0280315D01*
X0252367Y0282815D01*
X0254867Y0285315D01*
X0254867Y0290315D01*
X0252367Y0292815D01*
X0254867Y0295315D01*
X0254867Y0300315D01*
X0252367Y0302815D01*
X0247367Y0302815D01*
X0244867Y0300315D01*
X0244867Y0295315D01*
X0247367Y0292815D01*
X0252367Y0292815D01*
X0257434Y0292165D02*
X0257434Y0294767D01*
X0257434Y0292165D02*
X0259169Y0292165D01*
X0260381Y0292165D02*
X0260381Y0294767D01*
X0262115Y0294767D01*
X0263327Y0294767D02*
X0263327Y0292165D01*
X0264628Y0292165D01*
X0265062Y0292599D01*
X0265062Y0294334D01*
X0264628Y0294767D01*
X0263327Y0294767D01*
X0261248Y0293466D02*
X0260381Y0293466D01*
X0260381Y0292165D02*
X0262115Y0292165D01*
X0266274Y0292165D02*
X0268008Y0292165D01*
X0267141Y0292165D02*
X0267141Y0294767D01*
X0266274Y0293900D01*
X0269220Y0293900D02*
X0270088Y0294767D01*
X0270088Y0292165D01*
X0270955Y0292165D02*
X0269220Y0292165D01*
X0265867Y0297565D02*
X0265867Y0300565D01*
X0263867Y0299065D01*
X0265867Y0297565D01*
X0265867Y0297653D02*
X0265749Y0297653D01*
X0265867Y0298252D02*
X0264951Y0298252D01*
X0264153Y0298851D02*
X0265867Y0298851D01*
X0265867Y0299449D02*
X0264379Y0299449D01*
X0265177Y0300048D02*
X0265867Y0300048D01*
X0247367Y0292815D02*
X0244867Y0290315D01*
X0244867Y0285315D01*
X0247367Y0282815D01*
X0252367Y0282815D01*
X0247367Y0282815D02*
X0244867Y0280315D01*
X0244867Y0275315D01*
X0247367Y0272815D01*
X0228617Y0270315D02*
X0228617Y0265315D01*
X0226117Y0262815D01*
X0228617Y0260315D01*
X0228617Y0255315D01*
X0226117Y0252815D01*
X0221117Y0252815D01*
X0218617Y0255315D01*
X0218617Y0260315D01*
X0221117Y0262815D01*
X0218617Y0265315D01*
X0218617Y0270315D01*
X0221117Y0272815D01*
X0218617Y0275315D01*
X0218617Y0280315D01*
X0221117Y0282815D01*
X0218617Y0285315D01*
X0218617Y0290315D01*
X0221117Y0292815D01*
X0218617Y0295315D01*
X0218617Y0300315D01*
X0221117Y0302815D01*
X0226117Y0302815D01*
X0228617Y0300315D01*
X0228617Y0295315D01*
X0226117Y0292815D01*
X0228617Y0290315D01*
X0228617Y0285315D01*
X0226117Y0282815D01*
X0221117Y0282815D01*
X0226117Y0282815D02*
X0228617Y0280315D01*
X0228617Y0275315D01*
X0226117Y0272815D01*
X0228617Y0270315D01*
X0226117Y0272815D02*
X0221117Y0272815D01*
X0221117Y0262815D02*
X0226117Y0262815D01*
X0226117Y0252815D02*
X0228617Y0250315D01*
X0228617Y0245315D01*
X0226117Y0242815D01*
X0228617Y0240315D01*
X0228617Y0235315D01*
X0226117Y0232815D01*
X0228617Y0230315D01*
X0228617Y0225315D01*
X0226117Y0222815D01*
X0221117Y0222815D01*
X0218617Y0225315D01*
X0218617Y0230315D01*
X0221117Y0232815D01*
X0218617Y0235315D01*
X0218617Y0240315D01*
X0221117Y0242815D01*
X0218617Y0245315D01*
X0218617Y0250315D01*
X0221117Y0252815D01*
X0221117Y0242815D02*
X0226117Y0242815D01*
X0226117Y0232815D02*
X0221117Y0232815D01*
X0221117Y0222815D02*
X0218617Y0220315D01*
X0218617Y0215315D01*
X0221117Y0212815D01*
X0218617Y0210315D01*
X0218617Y0205315D01*
X0221117Y0202815D01*
X0218617Y0200315D01*
X0218617Y0195315D01*
X0221117Y0192815D01*
X0226117Y0192815D01*
X0228617Y0195315D01*
X0228617Y0200315D01*
X0226117Y0202815D01*
X0221117Y0202815D01*
X0226117Y0202815D02*
X0228617Y0205315D01*
X0228617Y0210315D01*
X0226117Y0212815D01*
X0221117Y0212815D01*
X0226117Y0212815D02*
X0228617Y0215315D01*
X0228617Y0220315D01*
X0226117Y0222815D01*
X0247367Y0222815D02*
X0252367Y0222815D01*
X0252367Y0232815D02*
X0247367Y0232815D01*
X0247367Y0202815D02*
X0252367Y0202815D01*
X0252367Y0192815D02*
X0247367Y0192815D01*
X0228617Y0190315D02*
X0228617Y0185315D01*
X0226117Y0182815D01*
X0228617Y0180315D01*
X0228617Y0175315D01*
X0226117Y0172815D01*
X0228617Y0170315D01*
X0228617Y0165315D01*
X0226117Y0162815D01*
X0221117Y0162815D01*
X0218617Y0165315D01*
X0218617Y0170315D01*
X0221117Y0172815D01*
X0218617Y0175315D01*
X0218617Y0180315D01*
X0221117Y0182815D01*
X0218617Y0185315D01*
X0218617Y0190315D01*
X0221117Y0192815D01*
X0226117Y0192815D02*
X0228617Y0190315D01*
X0226117Y0182815D02*
X0221117Y0182815D01*
X0221117Y0172815D02*
X0226117Y0172815D01*
X0247367Y0172815D02*
X0252367Y0172815D01*
X0252992Y0151565D02*
X0247992Y0151565D01*
X0245492Y0149065D01*
X0245492Y0144065D01*
X0247992Y0141565D01*
X0252992Y0141565D01*
X0255492Y0144065D01*
X0255492Y0149065D01*
X0252992Y0151565D01*
X0261006Y0143517D02*
X0261006Y0140915D01*
X0262740Y0140915D01*
X0263952Y0140915D02*
X0263952Y0143517D01*
X0265687Y0143517D01*
X0266899Y0143517D02*
X0266899Y0140915D01*
X0268200Y0140915D01*
X0268633Y0141349D01*
X0268633Y0143084D01*
X0268200Y0143517D01*
X0266899Y0143517D01*
X0264820Y0142216D02*
X0263952Y0142216D01*
X0263952Y0140915D02*
X0265687Y0140915D01*
X0269845Y0141349D02*
X0270279Y0140915D01*
X0271146Y0140915D01*
X0271580Y0141349D01*
X0271580Y0142216D01*
X0271146Y0142650D01*
X0270713Y0142650D01*
X0269845Y0142216D01*
X0269845Y0143517D01*
X0271580Y0143517D01*
X0266492Y0146315D02*
X0266492Y0149315D01*
X0264492Y0147815D01*
X0266492Y0146315D01*
X0266492Y0146829D02*
X0265807Y0146829D01*
X0266492Y0147427D02*
X0265009Y0147427D01*
X0264772Y0148026D02*
X0266492Y0148026D01*
X0266492Y0148624D02*
X0265570Y0148624D01*
X0266368Y0149223D02*
X0266492Y0149223D01*
X0255492Y0139065D02*
X0255492Y0134065D01*
X0252992Y0131565D01*
X0255492Y0129065D01*
X0255492Y0124065D01*
X0252992Y0121565D01*
X0247992Y0121565D02*
X0245492Y0124065D01*
X0245492Y0129065D01*
X0247992Y0131565D01*
X0245492Y0134065D01*
X0245492Y0139065D01*
X0247992Y0141565D01*
X0252992Y0141565D02*
X0255492Y0139065D01*
X0252992Y0131565D02*
X0247992Y0131565D01*
X0295077Y0165099D02*
X0295511Y0164665D01*
X0296378Y0164665D01*
X0296812Y0165099D01*
X0298024Y0164665D02*
X0298024Y0167267D01*
X0299758Y0164665D01*
X0299758Y0167267D01*
X0300970Y0165966D02*
X0302271Y0165966D01*
X0302705Y0165532D01*
X0302705Y0165099D01*
X0302271Y0164665D01*
X0301404Y0164665D01*
X0300970Y0165099D01*
X0300970Y0165966D01*
X0301838Y0166834D01*
X0302705Y0167267D01*
X0296812Y0166834D02*
X0296378Y0167267D01*
X0295511Y0167267D01*
X0295077Y0166834D01*
X0295077Y0165099D01*
X0302736Y0099392D02*
X0302736Y0097224D01*
X0303170Y0096790D01*
X0304037Y0096790D01*
X0304471Y0097224D01*
X0304471Y0099392D01*
X0305683Y0098959D02*
X0305683Y0098525D01*
X0306116Y0098091D01*
X0306984Y0098091D01*
X0307418Y0097657D01*
X0307418Y0097224D01*
X0306984Y0096790D01*
X0306116Y0096790D01*
X0305683Y0097224D01*
X0305683Y0097657D01*
X0306116Y0098091D01*
X0306984Y0098091D02*
X0307418Y0098525D01*
X0307418Y0098959D01*
X0306984Y0099392D01*
X0306116Y0099392D01*
X0305683Y0098959D01*
X0191168Y0099392D02*
X0189433Y0099392D01*
X0189433Y0098091D01*
X0190300Y0098525D01*
X0190734Y0098525D01*
X0191168Y0098091D01*
X0191168Y0097224D01*
X0190734Y0096790D01*
X0189866Y0096790D01*
X0189433Y0097224D01*
X0188221Y0097224D02*
X0188221Y0099392D01*
X0186486Y0099392D02*
X0186486Y0097224D01*
X0186920Y0096790D01*
X0187787Y0096790D01*
X0188221Y0097224D01*
X0136742Y0021565D02*
X0131742Y0021565D01*
X0179452Y0015584D02*
X0179452Y0013849D01*
X0179886Y0013415D01*
X0180753Y0013415D01*
X0181187Y0013849D01*
X0182399Y0013415D02*
X0182399Y0016017D01*
X0184133Y0013415D01*
X0184133Y0016017D01*
X0185345Y0015150D02*
X0186213Y0016017D01*
X0186213Y0013415D01*
X0187080Y0013415D02*
X0185345Y0013415D01*
X0181187Y0015584D02*
X0180753Y0016017D01*
X0179886Y0016017D01*
X0179452Y0015584D01*
X0072418Y0096790D02*
X0070683Y0096790D01*
X0071550Y0096790D02*
X0071550Y0099392D01*
X0070683Y0098525D01*
X0069471Y0099392D02*
X0069471Y0097224D01*
X0069037Y0096790D01*
X0068170Y0096790D01*
X0067736Y0097224D01*
X0067736Y0099392D01*
X0067896Y0016017D02*
X0067029Y0016017D01*
X0066595Y0015584D01*
X0067463Y0014716D02*
X0067896Y0014716D01*
X0068330Y0014282D01*
X0068330Y0013849D01*
X0067896Y0013415D01*
X0067029Y0013415D01*
X0066595Y0013849D01*
X0065383Y0013415D02*
X0065383Y0016017D01*
X0063649Y0016017D02*
X0063649Y0013415D01*
X0062437Y0013849D02*
X0062003Y0013415D01*
X0061136Y0013415D01*
X0060702Y0013849D01*
X0060702Y0015584D01*
X0061136Y0016017D01*
X0062003Y0016017D01*
X0062437Y0015584D01*
X0063649Y0016017D02*
X0065383Y0013415D01*
X0067896Y0014716D02*
X0068330Y0015150D01*
X0068330Y0015584D01*
X0067896Y0016017D01*
X0183348Y0248040D02*
X0184216Y0248040D01*
X0184650Y0248474D01*
X0184650Y0250642D01*
X0185861Y0249775D02*
X0186729Y0250642D01*
X0186729Y0248040D01*
X0187596Y0248040D02*
X0185861Y0248040D01*
X0183348Y0248040D02*
X0182915Y0248474D01*
X0182915Y0250642D01*
X0188808Y0249341D02*
X0190543Y0249341D01*
X0190109Y0248040D02*
X0190109Y0250642D01*
X0188808Y0249341D01*
X0201184Y0292165D02*
X0202919Y0292165D01*
X0204131Y0292165D02*
X0205865Y0292165D01*
X0207077Y0292165D02*
X0207077Y0294767D01*
X0208378Y0294767D01*
X0208812Y0294334D01*
X0208812Y0292599D01*
X0208378Y0292165D01*
X0207077Y0292165D01*
X0204998Y0293466D02*
X0204131Y0293466D01*
X0204131Y0294767D02*
X0204131Y0292165D01*
X0204131Y0294767D02*
X0205865Y0294767D01*
X0208701Y0298252D02*
X0209617Y0298252D01*
X0209617Y0298851D02*
X0207903Y0298851D01*
X0207617Y0299065D02*
X0209617Y0300565D01*
X0209617Y0297565D01*
X0207617Y0299065D01*
X0208129Y0299449D02*
X0209617Y0299449D01*
X0209617Y0300048D02*
X0208927Y0300048D01*
X0209499Y0297653D02*
X0209617Y0297653D01*
X0210891Y0294767D02*
X0210891Y0292165D01*
X0210024Y0292165D02*
X0211758Y0292165D01*
X0212970Y0292599D02*
X0214705Y0294334D01*
X0214705Y0292599D01*
X0214271Y0292165D01*
X0213404Y0292165D01*
X0212970Y0292599D01*
X0212970Y0294334D01*
X0213404Y0294767D01*
X0214271Y0294767D01*
X0214705Y0294334D01*
X0210891Y0294767D02*
X0210024Y0293900D01*
X0201184Y0294767D02*
X0201184Y0292165D01*
X0221117Y0292815D02*
X0226117Y0292815D01*
D11*
X0008042Y0012266D02*
X0007291Y0011515D01*
X0008042Y0012266D02*
X0008042Y0013016D01*
X0007291Y0013767D01*
X0003538Y0013767D01*
X0003538Y0013016D02*
X0003538Y0014518D01*
X0003538Y0016119D02*
X0003538Y0018371D01*
X0004288Y0019122D01*
X0005790Y0019122D01*
X0006540Y0018371D01*
X0006540Y0016119D01*
X0008042Y0016119D02*
X0003538Y0016119D01*
X0005039Y0020723D02*
X0003538Y0022224D01*
X0008042Y0022224D01*
X0008042Y0020723D02*
X0008042Y0023725D01*
X0122288Y0022975D02*
X0122288Y0021474D01*
X0123038Y0020723D01*
X0123038Y0019122D02*
X0124540Y0019122D01*
X0125290Y0018371D01*
X0125290Y0016119D01*
X0126792Y0016119D02*
X0122288Y0016119D01*
X0122288Y0018371D01*
X0123038Y0019122D01*
X0126041Y0020723D02*
X0126792Y0021474D01*
X0126792Y0022975D01*
X0126041Y0023725D01*
X0125290Y0023725D01*
X0124540Y0022975D01*
X0124540Y0022224D01*
X0124540Y0022975D02*
X0123789Y0023725D01*
X0123038Y0023725D01*
X0122288Y0022975D01*
X0122288Y0014518D02*
X0122288Y0013016D01*
X0122288Y0013767D02*
X0126041Y0013767D01*
X0126792Y0013016D01*
X0126792Y0012266D01*
X0126041Y0011515D01*
X0238538Y0013016D02*
X0238538Y0014518D01*
X0238538Y0013767D02*
X0242291Y0013767D01*
X0243042Y0013016D01*
X0243042Y0012266D01*
X0242291Y0011515D01*
X0241540Y0016119D02*
X0241540Y0018371D01*
X0240790Y0019122D01*
X0239288Y0019122D01*
X0238538Y0018371D01*
X0238538Y0016119D01*
X0243042Y0016119D01*
X0242291Y0020723D02*
X0243042Y0021474D01*
X0243042Y0022975D01*
X0242291Y0023725D01*
X0240790Y0023725D01*
X0240039Y0022975D01*
X0240039Y0022224D01*
X0240790Y0020723D01*
X0238538Y0020723D01*
X0238538Y0023725D01*
X0235441Y0138303D02*
X0236192Y0139054D01*
X0236192Y0139805D01*
X0235441Y0140555D01*
X0231688Y0140555D01*
X0231688Y0139805D02*
X0231688Y0141306D01*
X0231688Y0142907D02*
X0231688Y0145159D01*
X0232438Y0145910D01*
X0233940Y0145910D01*
X0234690Y0145159D01*
X0234690Y0142907D01*
X0236192Y0142907D02*
X0231688Y0142907D01*
X0233940Y0147511D02*
X0233940Y0150514D01*
X0236192Y0149763D02*
X0231688Y0149763D01*
X0233940Y0147511D01*
X0241666Y0162765D02*
X0242417Y0163516D01*
X0242417Y0164266D01*
X0241666Y0165017D01*
X0237913Y0165017D01*
X0237913Y0164266D02*
X0237913Y0165768D01*
X0237913Y0167369D02*
X0237913Y0169621D01*
X0238663Y0170372D01*
X0240165Y0170372D01*
X0240915Y0169621D01*
X0240915Y0167369D01*
X0242417Y0167369D02*
X0237913Y0167369D01*
X0239414Y0171973D02*
X0237913Y0173474D01*
X0242417Y0173474D01*
X0242417Y0171973D02*
X0242417Y0174975D01*
X0242417Y0176577D02*
X0242417Y0179579D01*
X0242417Y0178078D02*
X0237913Y0178078D01*
X0239414Y0176577D01*
X0347938Y0150514D02*
X0348688Y0149012D01*
X0350190Y0147511D01*
X0350190Y0149763D01*
X0350940Y0150514D01*
X0351691Y0150514D01*
X0352442Y0149763D01*
X0352442Y0148262D01*
X0351691Y0147511D01*
X0350190Y0147511D01*
X0350190Y0145910D02*
X0350940Y0145159D01*
X0350940Y0142907D01*
X0352442Y0142907D02*
X0347938Y0142907D01*
X0347938Y0145159D01*
X0348688Y0145910D01*
X0350190Y0145910D01*
X0347938Y0141306D02*
X0347938Y0139805D01*
X0347938Y0140555D02*
X0351691Y0140555D01*
X0352442Y0139805D01*
X0352442Y0139054D01*
X0351691Y0138303D01*
X0351066Y0284949D02*
X0351817Y0285700D01*
X0351817Y0286451D01*
X0351066Y0287201D01*
X0347313Y0287201D01*
X0347313Y0286451D02*
X0347313Y0287952D01*
X0347313Y0289553D02*
X0347313Y0291805D01*
X0348063Y0292556D01*
X0349565Y0292556D01*
X0350315Y0291805D01*
X0350315Y0289553D01*
X0351817Y0289553D02*
X0347313Y0289553D01*
X0348814Y0294157D02*
X0347313Y0295658D01*
X0351817Y0295658D01*
X0351817Y0294157D02*
X0351817Y0297160D01*
X0351817Y0298761D02*
X0348814Y0301764D01*
X0348063Y0301764D01*
X0347313Y0301013D01*
X0347313Y0299512D01*
X0348063Y0298761D01*
X0351817Y0298761D02*
X0351817Y0301764D01*
X0235567Y0301013D02*
X0235567Y0299512D01*
X0234816Y0298761D01*
X0231813Y0301764D01*
X0234816Y0301764D01*
X0235567Y0301013D01*
X0234816Y0298761D02*
X0231813Y0298761D01*
X0231063Y0299512D01*
X0231063Y0301013D01*
X0231813Y0301764D01*
X0235567Y0297160D02*
X0235567Y0294157D01*
X0235567Y0295658D02*
X0231063Y0295658D01*
X0232564Y0294157D01*
X0231813Y0292556D02*
X0233315Y0292556D01*
X0234065Y0291805D01*
X0234065Y0289553D01*
X0235567Y0289553D02*
X0231063Y0289553D01*
X0231063Y0291805D01*
X0231813Y0292556D01*
X0231063Y0287952D02*
X0231063Y0286451D01*
X0231063Y0287201D02*
X0234816Y0287201D01*
X0235567Y0286451D01*
X0235567Y0285700D01*
X0234816Y0284949D01*
X0116817Y0290304D02*
X0116817Y0291055D01*
X0116066Y0291805D01*
X0112313Y0291805D01*
X0112313Y0291055D02*
X0112313Y0292556D01*
X0112313Y0294157D02*
X0112313Y0296409D01*
X0113063Y0297160D01*
X0114565Y0297160D01*
X0115315Y0296409D01*
X0115315Y0294157D01*
X0116817Y0294157D02*
X0112313Y0294157D01*
X0113063Y0298761D02*
X0113814Y0298761D01*
X0114565Y0299512D01*
X0114565Y0301013D01*
X0115315Y0301764D01*
X0116066Y0301764D01*
X0116817Y0301013D01*
X0116817Y0299512D01*
X0116066Y0298761D01*
X0115315Y0298761D01*
X0114565Y0299512D01*
X0114565Y0301013D02*
X0113814Y0301764D01*
X0113063Y0301764D01*
X0112313Y0301013D01*
X0112313Y0299512D01*
X0113063Y0298761D01*
X0116817Y0290304D02*
X0116066Y0289553D01*
X0122413Y0174975D02*
X0121663Y0174225D01*
X0121663Y0172724D01*
X0122413Y0171973D01*
X0123164Y0171973D01*
X0123915Y0172724D01*
X0123915Y0174975D01*
X0125416Y0174975D02*
X0122413Y0174975D01*
X0125416Y0174975D02*
X0126167Y0174225D01*
X0126167Y0172724D01*
X0125416Y0171973D01*
X0123915Y0170372D02*
X0124665Y0169621D01*
X0124665Y0167369D01*
X0126167Y0167369D02*
X0121663Y0167369D01*
X0121663Y0169621D01*
X0122413Y0170372D01*
X0123915Y0170372D01*
X0121663Y0165768D02*
X0121663Y0164266D01*
X0121663Y0165017D02*
X0125416Y0165017D01*
X0126167Y0164266D01*
X0126167Y0163516D01*
X0125416Y0162765D01*
X0117442Y0150514D02*
X0117442Y0147511D01*
X0114439Y0150514D01*
X0113688Y0150514D01*
X0112938Y0149763D01*
X0112938Y0148262D01*
X0113688Y0147511D01*
X0113688Y0145910D02*
X0115190Y0145910D01*
X0115940Y0145159D01*
X0115940Y0142907D01*
X0117442Y0142907D02*
X0112938Y0142907D01*
X0112938Y0145159D01*
X0113688Y0145910D01*
X0112938Y0141306D02*
X0112938Y0139805D01*
X0112938Y0140555D02*
X0116691Y0140555D01*
X0117442Y0139805D01*
X0117442Y0139054D01*
X0116691Y0138303D01*
X0007417Y0163516D02*
X0007417Y0164266D01*
X0006666Y0165017D01*
X0002913Y0165017D01*
X0002913Y0164266D02*
X0002913Y0165768D01*
X0002913Y0167369D02*
X0002913Y0169621D01*
X0003663Y0170372D01*
X0005165Y0170372D01*
X0005915Y0169621D01*
X0005915Y0167369D01*
X0007417Y0167369D02*
X0002913Y0167369D01*
X0007417Y0163516D02*
X0006666Y0162765D01*
X0006666Y0171973D02*
X0007417Y0171973D01*
X0006666Y0171973D02*
X0003663Y0174975D01*
X0002913Y0174975D01*
X0002913Y0171973D01*
D12*
X0028192Y0149494D02*
X0030494Y0149494D01*
X0031261Y0148727D01*
X0031261Y0147192D01*
X0030494Y0146425D01*
X0028192Y0146425D01*
X0029726Y0146425D02*
X0031261Y0144890D01*
X0032796Y0144890D02*
X0035865Y0144890D01*
X0034330Y0144890D02*
X0034330Y0149494D01*
X0032796Y0147959D01*
X0028192Y0149494D02*
X0028192Y0144890D01*
X0027649Y0123188D02*
X0026882Y0123188D01*
X0026115Y0122421D01*
X0026115Y0120119D01*
X0027649Y0120119D01*
X0028417Y0120886D01*
X0028417Y0122421D01*
X0027649Y0123188D01*
X0030063Y0122421D02*
X0032365Y0120119D01*
X0032365Y0123188D01*
X0034667Y0122421D02*
X0030063Y0122421D01*
X0030830Y0118584D02*
X0032365Y0118584D01*
X0033132Y0117817D01*
X0033132Y0115515D01*
X0034667Y0115515D02*
X0030063Y0115515D01*
X0030063Y0117817D01*
X0030830Y0118584D01*
X0028417Y0117817D02*
X0028417Y0116282D01*
X0027649Y0115515D01*
X0024580Y0115515D01*
X0023813Y0116282D01*
X0023813Y0117817D01*
X0024580Y0118584D01*
X0026115Y0120119D02*
X0024580Y0121654D01*
X0023813Y0123188D01*
X0027649Y0118584D02*
X0028417Y0117817D01*
X0033132Y0117050D02*
X0034667Y0118584D01*
X0036938Y0120063D02*
X0036938Y0116994D01*
X0039240Y0116994D01*
X0038472Y0118529D01*
X0038472Y0119296D01*
X0039240Y0120063D01*
X0040774Y0120063D01*
X0041542Y0119296D01*
X0041542Y0117761D01*
X0040774Y0116994D01*
X0040774Y0115459D02*
X0041542Y0114692D01*
X0041542Y0113157D01*
X0040774Y0112390D01*
X0037705Y0112390D01*
X0036938Y0113157D01*
X0036938Y0114692D01*
X0037705Y0115459D01*
X0042563Y0114692D02*
X0042563Y0113157D01*
X0043330Y0112390D01*
X0046399Y0112390D01*
X0047167Y0113157D01*
X0047167Y0114692D01*
X0046399Y0115459D01*
X0044865Y0116994D02*
X0044865Y0120063D01*
X0047167Y0119296D02*
X0042563Y0119296D01*
X0044865Y0116994D01*
X0043330Y0115459D02*
X0042563Y0114692D01*
X0065688Y0115317D02*
X0065688Y0113782D01*
X0066455Y0113015D01*
X0069524Y0113015D01*
X0070292Y0113782D01*
X0070292Y0115317D01*
X0069524Y0116084D01*
X0069689Y0116161D02*
X0069689Y0117095D01*
X0070156Y0117562D01*
X0070623Y0117562D01*
X0071090Y0117095D01*
X0071558Y0117562D01*
X0072025Y0117562D01*
X0072492Y0117095D01*
X0072492Y0116161D01*
X0072025Y0115694D01*
X0072025Y0114615D02*
X0069689Y0114615D01*
X0070156Y0115694D02*
X0069689Y0116161D01*
X0071090Y0116628D02*
X0071090Y0117095D01*
X0070292Y0117619D02*
X0070292Y0120688D01*
X0070292Y0117619D02*
X0067222Y0120688D01*
X0066455Y0120688D01*
X0065688Y0119921D01*
X0065688Y0118386D01*
X0066455Y0117619D01*
X0066455Y0116084D02*
X0065688Y0115317D01*
X0069689Y0112747D02*
X0072025Y0112747D01*
X0072492Y0113214D01*
X0072492Y0114148D01*
X0072025Y0114615D01*
X0083984Y0134890D02*
X0083984Y0139494D01*
X0086286Y0139494D01*
X0087053Y0138727D01*
X0087053Y0137192D01*
X0086286Y0136425D01*
X0083984Y0136425D01*
X0085518Y0136425D02*
X0087053Y0134890D01*
X0088588Y0134890D02*
X0091657Y0137959D01*
X0091657Y0138727D01*
X0090890Y0139494D01*
X0089355Y0139494D01*
X0088588Y0138727D01*
X0088588Y0134890D02*
X0091657Y0134890D01*
X0090917Y0157953D02*
X0086313Y0157953D01*
X0086313Y0160255D01*
X0087080Y0161023D01*
X0088615Y0161023D01*
X0089382Y0160255D01*
X0089382Y0157953D01*
X0089382Y0159488D02*
X0090917Y0161023D01*
X0088615Y0162557D02*
X0088615Y0165626D01*
X0089042Y0166765D02*
X0084438Y0166765D01*
X0084438Y0169067D01*
X0085205Y0169834D01*
X0086740Y0169834D01*
X0087507Y0169067D01*
X0087507Y0166765D01*
X0088615Y0167161D02*
X0087847Y0168696D01*
X0087847Y0169463D01*
X0088615Y0170230D01*
X0090149Y0170230D01*
X0090917Y0169463D01*
X0090917Y0167928D01*
X0090149Y0167161D01*
X0088615Y0167161D02*
X0086313Y0167161D01*
X0086313Y0170230D01*
X0086740Y0171369D02*
X0084438Y0173671D01*
X0089042Y0173671D01*
X0086740Y0174438D02*
X0086740Y0171369D01*
X0089042Y0169834D02*
X0087507Y0168300D01*
X0086313Y0164859D02*
X0088615Y0162557D01*
X0090917Y0164859D02*
X0086313Y0164859D01*
X0086740Y0175973D02*
X0086740Y0179042D01*
X0089042Y0178275D02*
X0084438Y0178275D01*
X0086740Y0175973D01*
X0086230Y0192390D02*
X0087765Y0192390D01*
X0088532Y0193157D01*
X0088532Y0193925D01*
X0087765Y0194692D01*
X0085463Y0194692D01*
X0085463Y0193157D01*
X0086230Y0192390D01*
X0085463Y0194692D02*
X0086997Y0196227D01*
X0088532Y0196994D01*
X0083928Y0194692D02*
X0080859Y0194692D01*
X0083161Y0196994D01*
X0083161Y0192390D01*
X0079324Y0193157D02*
X0078557Y0192390D01*
X0077022Y0192390D01*
X0076255Y0193157D01*
X0076255Y0196227D01*
X0077022Y0196994D01*
X0078557Y0196994D01*
X0079324Y0196227D01*
X0069844Y0204890D02*
X0066775Y0204890D01*
X0069844Y0207959D01*
X0069844Y0208727D01*
X0069076Y0209494D01*
X0067542Y0209494D01*
X0066775Y0208727D01*
X0066717Y0208765D02*
X0066717Y0210300D01*
X0066717Y0209532D02*
X0062113Y0209532D01*
X0062113Y0208765D02*
X0062113Y0210300D01*
X0062880Y0211834D02*
X0065949Y0211834D01*
X0066717Y0212602D01*
X0066717Y0214136D01*
X0065949Y0214904D01*
X0065949Y0216438D02*
X0065182Y0216438D01*
X0064415Y0217206D01*
X0064415Y0218740D01*
X0065182Y0219508D01*
X0065949Y0219508D01*
X0066717Y0218740D01*
X0066717Y0217206D01*
X0065949Y0216438D01*
X0064415Y0217206D02*
X0063647Y0216438D01*
X0062880Y0216438D01*
X0062113Y0217206D01*
X0062113Y0218740D01*
X0062880Y0219508D01*
X0063647Y0219508D01*
X0064415Y0218740D01*
X0062880Y0214904D02*
X0062113Y0214136D01*
X0062113Y0212602D01*
X0062880Y0211834D01*
X0064473Y0209494D02*
X0062171Y0207192D01*
X0065240Y0207192D01*
X0064473Y0204890D02*
X0064473Y0209494D01*
X0060636Y0208727D02*
X0059869Y0209494D01*
X0058334Y0209494D01*
X0057567Y0208727D01*
X0057567Y0205657D01*
X0058334Y0204890D01*
X0059869Y0204890D01*
X0060636Y0205657D01*
X0046542Y0202105D02*
X0046542Y0199036D01*
X0046542Y0200571D02*
X0041938Y0200571D01*
X0043472Y0199036D01*
X0044240Y0197501D02*
X0045774Y0197501D01*
X0046542Y0196734D01*
X0046542Y0195200D01*
X0045774Y0194432D01*
X0044240Y0194432D02*
X0043472Y0195967D01*
X0043472Y0196734D01*
X0044240Y0197501D01*
X0041938Y0197501D02*
X0041938Y0194432D01*
X0044240Y0194432D01*
X0044240Y0192898D02*
X0045007Y0192130D01*
X0045007Y0189828D01*
X0046542Y0189828D02*
X0041938Y0189828D01*
X0041938Y0192130D01*
X0042705Y0192898D01*
X0044240Y0192898D01*
X0045007Y0191363D02*
X0046542Y0192898D01*
X0041094Y0202390D02*
X0038025Y0202390D01*
X0041094Y0205459D01*
X0041094Y0206227D01*
X0040326Y0206994D01*
X0038792Y0206994D01*
X0038025Y0206227D01*
X0036490Y0206994D02*
X0033421Y0206994D01*
X0033421Y0204692D01*
X0034955Y0205459D01*
X0035723Y0205459D01*
X0036490Y0204692D01*
X0036490Y0203157D01*
X0035723Y0202390D01*
X0034188Y0202390D01*
X0033421Y0203157D01*
X0031886Y0202390D02*
X0030351Y0203925D01*
X0031119Y0203925D02*
X0028817Y0203925D01*
X0028817Y0202390D02*
X0028817Y0206994D01*
X0031119Y0206994D01*
X0031886Y0206227D01*
X0031886Y0204692D01*
X0031119Y0203925D01*
X0032790Y0230515D02*
X0034324Y0230515D01*
X0033557Y0230515D02*
X0033557Y0235119D01*
X0032790Y0235119D02*
X0034324Y0235119D01*
X0035859Y0234352D02*
X0035859Y0231282D01*
X0036626Y0230515D01*
X0038161Y0230515D01*
X0038928Y0231282D01*
X0040463Y0231282D02*
X0040463Y0230515D01*
X0040463Y0231282D02*
X0043532Y0234352D01*
X0043532Y0235119D01*
X0040463Y0235119D01*
X0038928Y0234352D02*
X0038161Y0235119D01*
X0036626Y0235119D01*
X0035859Y0234352D01*
X0037080Y0263640D02*
X0040149Y0263640D01*
X0040917Y0264407D01*
X0040917Y0265942D01*
X0040149Y0266709D01*
X0041938Y0265942D02*
X0041938Y0264407D01*
X0042705Y0263640D01*
X0045774Y0263640D01*
X0046542Y0264407D01*
X0046542Y0265942D01*
X0045774Y0266709D01*
X0044240Y0268244D02*
X0044240Y0271313D01*
X0045774Y0272848D02*
X0046542Y0273615D01*
X0046542Y0275150D01*
X0045774Y0275917D01*
X0045007Y0275917D01*
X0044240Y0275150D01*
X0044240Y0274383D01*
X0044240Y0275150D02*
X0043472Y0275917D01*
X0042705Y0275917D01*
X0041938Y0275150D01*
X0041938Y0273615D01*
X0042705Y0272848D01*
X0041938Y0270546D02*
X0044240Y0268244D01*
X0042705Y0266709D02*
X0041938Y0265942D01*
X0038615Y0268244D02*
X0038615Y0271313D01*
X0038615Y0272848D02*
X0038615Y0275917D01*
X0040917Y0275150D02*
X0036313Y0275150D01*
X0038615Y0272848D01*
X0040917Y0270546D02*
X0036313Y0270546D01*
X0038615Y0268244D01*
X0037080Y0266709D02*
X0036313Y0265942D01*
X0036313Y0264407D01*
X0037080Y0263640D01*
X0034042Y0266765D02*
X0029438Y0266765D01*
X0029438Y0269067D01*
X0030205Y0269834D01*
X0031740Y0269834D01*
X0032507Y0269067D01*
X0032507Y0266765D01*
X0032507Y0268300D02*
X0034042Y0269834D01*
X0031740Y0271369D02*
X0031740Y0274438D01*
X0033274Y0275973D02*
X0034042Y0276740D01*
X0034042Y0278275D01*
X0033274Y0279042D01*
X0032507Y0279042D01*
X0031740Y0278275D01*
X0031740Y0277508D01*
X0031740Y0278275D02*
X0030972Y0279042D01*
X0030205Y0279042D01*
X0029438Y0278275D01*
X0029438Y0276740D01*
X0030205Y0275973D01*
X0029438Y0273671D02*
X0031740Y0271369D01*
X0034042Y0273671D02*
X0029438Y0273671D01*
X0027792Y0273671D02*
X0023188Y0273671D01*
X0025490Y0271369D01*
X0025490Y0274438D01*
X0025490Y0275973D02*
X0024722Y0277508D01*
X0024722Y0278275D01*
X0025490Y0279042D01*
X0027024Y0279042D01*
X0027792Y0278275D01*
X0027792Y0276740D01*
X0027024Y0275973D01*
X0025490Y0275973D02*
X0023188Y0275973D01*
X0023188Y0279042D01*
X0023955Y0269834D02*
X0023188Y0269067D01*
X0023188Y0267532D01*
X0023955Y0266765D01*
X0027024Y0266765D01*
X0027792Y0267532D01*
X0027792Y0269067D01*
X0027024Y0269834D01*
X0041938Y0270546D02*
X0046542Y0270546D01*
X0065063Y0271171D02*
X0067365Y0268869D01*
X0067365Y0271938D01*
X0066597Y0273473D02*
X0065063Y0275008D01*
X0069667Y0275008D01*
X0069667Y0276542D02*
X0069667Y0273473D01*
X0069667Y0271171D02*
X0065063Y0271171D01*
X0065830Y0267334D02*
X0065063Y0266567D01*
X0065063Y0265032D01*
X0065830Y0264265D01*
X0068899Y0264265D01*
X0069667Y0265032D01*
X0069667Y0266567D01*
X0068899Y0267334D01*
X0069064Y0267411D02*
X0069531Y0266944D01*
X0069064Y0267411D02*
X0069064Y0268345D01*
X0069531Y0268812D01*
X0069998Y0268812D01*
X0071867Y0266944D01*
X0071867Y0268812D01*
X0071867Y0265865D02*
X0071867Y0263997D01*
X0071867Y0264931D02*
X0069064Y0264931D01*
X0069998Y0263997D01*
X0069064Y0262919D02*
X0071400Y0262919D01*
X0071867Y0262452D01*
X0071867Y0261518D01*
X0071400Y0261051D01*
X0069064Y0261051D01*
X0078755Y0286140D02*
X0078755Y0290744D01*
X0081057Y0290744D01*
X0081824Y0289977D01*
X0081824Y0288442D01*
X0081057Y0287675D01*
X0078755Y0287675D01*
X0080289Y0287675D02*
X0081824Y0286140D01*
X0083359Y0288442D02*
X0086428Y0288442D01*
X0087963Y0289209D02*
X0089497Y0290744D01*
X0089497Y0286140D01*
X0087963Y0286140D02*
X0091032Y0286140D01*
X0085661Y0286140D02*
X0085661Y0290744D01*
X0083359Y0288442D01*
X0039844Y0296907D02*
X0039076Y0296140D01*
X0037542Y0296140D01*
X0036775Y0296907D01*
X0039844Y0299977D01*
X0039844Y0296907D01*
X0036775Y0296907D02*
X0036775Y0299977D01*
X0037542Y0300744D01*
X0039076Y0300744D01*
X0039844Y0299977D01*
X0035240Y0298442D02*
X0032171Y0298442D01*
X0034473Y0300744D01*
X0034473Y0296140D01*
X0030636Y0296140D02*
X0029101Y0297675D01*
X0029869Y0297675D02*
X0027567Y0297675D01*
X0027567Y0296140D02*
X0027567Y0300744D01*
X0029869Y0300744D01*
X0030636Y0299977D01*
X0030636Y0298442D01*
X0029869Y0297675D01*
X0141938Y0278275D02*
X0141938Y0276740D01*
X0142705Y0275973D01*
X0143472Y0275973D01*
X0144240Y0276740D01*
X0144240Y0278275D01*
X0145007Y0279042D01*
X0145774Y0279042D01*
X0146542Y0278275D01*
X0146542Y0276740D01*
X0145774Y0275973D01*
X0145007Y0275973D01*
X0144240Y0276740D01*
X0144240Y0278275D02*
X0143472Y0279042D01*
X0142705Y0279042D01*
X0141938Y0278275D01*
X0141938Y0274438D02*
X0141938Y0271369D01*
X0144240Y0271369D01*
X0143472Y0272904D01*
X0143472Y0273671D01*
X0144240Y0274438D01*
X0145774Y0274438D01*
X0146542Y0273671D01*
X0146542Y0272136D01*
X0145774Y0271369D01*
X0145774Y0269834D02*
X0146542Y0269067D01*
X0146542Y0267532D01*
X0145774Y0266765D01*
X0142705Y0266765D01*
X0141938Y0267532D01*
X0141938Y0269067D01*
X0142705Y0269834D01*
X0148188Y0269067D02*
X0148188Y0266765D01*
X0152792Y0266765D01*
X0151257Y0266765D02*
X0151257Y0269067D01*
X0150490Y0269834D01*
X0148955Y0269834D01*
X0148188Y0269067D01*
X0148188Y0271369D02*
X0150490Y0271369D01*
X0149722Y0272904D01*
X0149722Y0273671D01*
X0150490Y0274438D01*
X0152024Y0274438D01*
X0152792Y0273671D01*
X0152792Y0272136D01*
X0152024Y0271369D01*
X0152792Y0269834D02*
X0151257Y0268300D01*
X0155063Y0268244D02*
X0155063Y0271313D01*
X0155063Y0272848D02*
X0155063Y0275917D01*
X0155830Y0275917D01*
X0158899Y0272848D01*
X0159667Y0272848D01*
X0158899Y0271313D02*
X0159667Y0270546D01*
X0159667Y0269011D01*
X0158899Y0268244D01*
X0157365Y0268244D02*
X0156597Y0269779D01*
X0156597Y0270546D01*
X0157365Y0271313D01*
X0158899Y0271313D01*
X0160688Y0271313D02*
X0160688Y0268244D01*
X0162990Y0268244D01*
X0162222Y0269779D01*
X0162222Y0270546D01*
X0162990Y0271313D01*
X0164524Y0271313D01*
X0165292Y0270546D01*
X0165292Y0269011D01*
X0164524Y0268244D01*
X0164524Y0266709D02*
X0165292Y0265942D01*
X0165292Y0264407D01*
X0164524Y0263640D01*
X0161455Y0263640D01*
X0160688Y0264407D01*
X0160688Y0265942D01*
X0161455Y0266709D01*
X0159667Y0265942D02*
X0159667Y0264407D01*
X0158899Y0263640D01*
X0155830Y0263640D01*
X0155063Y0264407D01*
X0155063Y0265942D01*
X0155830Y0266709D01*
X0155063Y0268244D02*
X0157365Y0268244D01*
X0158899Y0266709D02*
X0159667Y0265942D01*
X0162990Y0272848D02*
X0162990Y0275150D01*
X0163757Y0275917D01*
X0164524Y0275917D01*
X0165292Y0275150D01*
X0165292Y0273615D01*
X0164524Y0272848D01*
X0162990Y0272848D01*
X0161455Y0274383D01*
X0160688Y0275917D01*
X0152792Y0276740D02*
X0152792Y0278275D01*
X0152024Y0279042D01*
X0151257Y0279042D01*
X0150490Y0278275D01*
X0150490Y0275973D01*
X0152024Y0275973D01*
X0152792Y0276740D01*
X0150490Y0275973D02*
X0148955Y0277508D01*
X0148188Y0279042D01*
X0148188Y0274438D02*
X0148188Y0271369D01*
X0149386Y0296140D02*
X0147851Y0297675D01*
X0148619Y0297675D02*
X0146317Y0297675D01*
X0146317Y0296140D02*
X0146317Y0300744D01*
X0148619Y0300744D01*
X0149386Y0299977D01*
X0149386Y0298442D01*
X0148619Y0297675D01*
X0150921Y0298442D02*
X0150921Y0300744D01*
X0153990Y0300744D01*
X0155525Y0299977D02*
X0156292Y0300744D01*
X0157826Y0300744D01*
X0158594Y0299977D01*
X0158594Y0299209D01*
X0157826Y0298442D01*
X0158594Y0297675D01*
X0158594Y0296907D01*
X0157826Y0296140D01*
X0156292Y0296140D01*
X0155525Y0296907D01*
X0153990Y0296907D02*
X0153223Y0296140D01*
X0151688Y0296140D01*
X0150921Y0296907D01*
X0150921Y0298442D02*
X0152455Y0299209D01*
X0153223Y0299209D01*
X0153990Y0298442D01*
X0153990Y0296907D01*
X0157059Y0298442D02*
X0157826Y0298442D01*
X0183813Y0275775D02*
X0186115Y0273473D01*
X0186115Y0276542D01*
X0188417Y0275775D02*
X0183813Y0275775D01*
X0183813Y0271938D02*
X0183813Y0268869D01*
X0186115Y0268869D01*
X0185347Y0270404D01*
X0185347Y0271171D01*
X0186115Y0271938D01*
X0187649Y0271938D01*
X0188417Y0271171D01*
X0188417Y0269636D01*
X0187649Y0268869D01*
X0187814Y0268812D02*
X0187814Y0266944D01*
X0189215Y0266944D01*
X0188748Y0267878D01*
X0188748Y0268345D01*
X0189215Y0268812D01*
X0190150Y0268812D01*
X0190617Y0268345D01*
X0190617Y0267411D01*
X0190150Y0266944D01*
X0190617Y0265865D02*
X0190617Y0263997D01*
X0190617Y0264931D02*
X0187814Y0264931D01*
X0188748Y0263997D01*
X0188417Y0265032D02*
X0188417Y0266567D01*
X0187649Y0267334D01*
X0188417Y0265032D02*
X0187649Y0264265D01*
X0184580Y0264265D01*
X0183813Y0265032D01*
X0183813Y0266567D01*
X0184580Y0267334D01*
X0187814Y0262919D02*
X0190150Y0262919D01*
X0190617Y0262452D01*
X0190617Y0261518D01*
X0190150Y0261051D01*
X0187814Y0261051D01*
X0197505Y0286140D02*
X0197505Y0290744D01*
X0199807Y0290744D01*
X0200574Y0289977D01*
X0200574Y0288442D01*
X0199807Y0287675D01*
X0197505Y0287675D01*
X0199039Y0287675D02*
X0200574Y0286140D01*
X0202109Y0286907D02*
X0202876Y0286140D01*
X0204411Y0286140D01*
X0205178Y0286907D01*
X0205178Y0288442D01*
X0204411Y0289209D01*
X0203643Y0289209D01*
X0202109Y0288442D01*
X0202109Y0290744D01*
X0205178Y0290744D01*
X0206713Y0288442D02*
X0209782Y0288442D01*
X0209015Y0286140D02*
X0209015Y0290744D01*
X0206713Y0288442D01*
X0258188Y0277508D02*
X0262792Y0277508D01*
X0262792Y0279042D02*
X0262792Y0275973D01*
X0264438Y0276740D02*
X0264438Y0278275D01*
X0265205Y0279042D01*
X0268274Y0279042D01*
X0269042Y0278275D01*
X0269042Y0276740D01*
X0268274Y0275973D01*
X0268274Y0274438D02*
X0267507Y0274438D01*
X0266740Y0273671D01*
X0266740Y0271369D01*
X0268274Y0271369D01*
X0269042Y0272136D01*
X0269042Y0273671D01*
X0268274Y0274438D01*
X0265972Y0275973D02*
X0266740Y0276740D01*
X0266740Y0279042D01*
X0265972Y0275973D02*
X0265205Y0275973D01*
X0264438Y0276740D01*
X0264438Y0274438D02*
X0265205Y0272904D01*
X0266740Y0271369D01*
X0266740Y0269834D02*
X0267507Y0269067D01*
X0267507Y0266765D01*
X0269042Y0266765D02*
X0264438Y0266765D01*
X0264438Y0269067D01*
X0265205Y0269834D01*
X0266740Y0269834D01*
X0267507Y0268300D02*
X0269042Y0269834D01*
X0271313Y0271313D02*
X0271313Y0268244D01*
X0272080Y0266709D02*
X0271313Y0265942D01*
X0271313Y0264407D01*
X0272080Y0263640D01*
X0275149Y0263640D01*
X0275917Y0264407D01*
X0275917Y0265942D01*
X0275149Y0266709D01*
X0275149Y0268244D02*
X0275917Y0268244D01*
X0275149Y0268244D02*
X0272080Y0271313D01*
X0271313Y0271313D01*
X0272080Y0272848D02*
X0271313Y0273615D01*
X0271313Y0275150D01*
X0272080Y0275917D01*
X0275149Y0272848D01*
X0275917Y0273615D01*
X0275917Y0275150D01*
X0275149Y0275917D01*
X0272080Y0275917D01*
X0272080Y0272848D02*
X0275149Y0272848D01*
X0276938Y0273615D02*
X0277705Y0272848D01*
X0278472Y0272848D01*
X0279240Y0273615D01*
X0279240Y0275917D01*
X0280774Y0275917D02*
X0277705Y0275917D01*
X0276938Y0275150D01*
X0276938Y0273615D01*
X0276938Y0271313D02*
X0277705Y0269779D01*
X0279240Y0268244D01*
X0279240Y0270546D01*
X0280007Y0271313D01*
X0280774Y0271313D01*
X0281542Y0270546D01*
X0281542Y0269011D01*
X0280774Y0268244D01*
X0279240Y0268244D01*
X0280774Y0266709D02*
X0281542Y0265942D01*
X0281542Y0264407D01*
X0280774Y0263640D01*
X0277705Y0263640D01*
X0276938Y0264407D01*
X0276938Y0265942D01*
X0277705Y0266709D01*
X0280774Y0272848D02*
X0281542Y0273615D01*
X0281542Y0275150D01*
X0280774Y0275917D01*
X0300063Y0276542D02*
X0300063Y0273473D01*
X0300063Y0271938D02*
X0300830Y0270404D01*
X0302365Y0268869D01*
X0302365Y0271171D01*
X0303132Y0271938D01*
X0303899Y0271938D01*
X0304667Y0271171D01*
X0304667Y0269636D01*
X0303899Y0268869D01*
X0302365Y0268869D01*
X0304064Y0268345D02*
X0304531Y0268812D01*
X0304998Y0268812D01*
X0305465Y0268345D01*
X0305465Y0267411D01*
X0304998Y0266944D01*
X0304531Y0266944D01*
X0304064Y0267411D01*
X0304064Y0268345D01*
X0303899Y0267334D02*
X0304667Y0266567D01*
X0304667Y0265032D01*
X0303899Y0264265D01*
X0300830Y0264265D01*
X0300063Y0265032D01*
X0300063Y0266567D01*
X0300830Y0267334D01*
X0304064Y0264931D02*
X0306867Y0264931D01*
X0306867Y0263997D02*
X0306867Y0265865D01*
X0306400Y0266944D02*
X0305933Y0266944D01*
X0305465Y0267411D01*
X0305465Y0268345D02*
X0305933Y0268812D01*
X0306400Y0268812D01*
X0306867Y0268345D01*
X0306867Y0267411D01*
X0306400Y0266944D01*
X0304064Y0264931D02*
X0304998Y0263997D01*
X0304064Y0262919D02*
X0306400Y0262919D01*
X0306867Y0262452D01*
X0306867Y0261518D01*
X0306400Y0261051D01*
X0304064Y0261051D01*
X0303899Y0273473D02*
X0304667Y0273473D01*
X0303899Y0273473D02*
X0300830Y0276542D01*
X0300063Y0276542D01*
X0313755Y0286140D02*
X0313755Y0290744D01*
X0316057Y0290744D01*
X0316824Y0289977D01*
X0316824Y0288442D01*
X0316057Y0287675D01*
X0313755Y0287675D01*
X0315289Y0287675D02*
X0316824Y0286140D01*
X0318359Y0286907D02*
X0319126Y0286140D01*
X0320661Y0286140D01*
X0321428Y0286907D01*
X0321428Y0287675D01*
X0320661Y0288442D01*
X0318359Y0288442D01*
X0318359Y0286907D01*
X0318359Y0288442D02*
X0319893Y0289977D01*
X0321428Y0290744D01*
X0322963Y0290744D02*
X0326032Y0290744D01*
X0326032Y0289977D01*
X0322963Y0286907D01*
X0322963Y0286140D01*
X0274844Y0296907D02*
X0274844Y0297675D01*
X0274076Y0298442D01*
X0271775Y0298442D01*
X0271775Y0296907D01*
X0272542Y0296140D01*
X0274076Y0296140D01*
X0274844Y0296907D01*
X0271775Y0298442D02*
X0273309Y0299977D01*
X0274844Y0300744D01*
X0270240Y0300744D02*
X0268705Y0299977D01*
X0267171Y0298442D01*
X0269473Y0298442D01*
X0270240Y0297675D01*
X0270240Y0296907D01*
X0269473Y0296140D01*
X0267938Y0296140D01*
X0267171Y0296907D01*
X0267171Y0298442D01*
X0265636Y0298442D02*
X0264869Y0297675D01*
X0262567Y0297675D01*
X0264101Y0297675D02*
X0265636Y0296140D01*
X0265636Y0298442D02*
X0265636Y0299977D01*
X0264869Y0300744D01*
X0262567Y0300744D01*
X0262567Y0296140D01*
X0258188Y0277508D02*
X0259722Y0275973D01*
X0258955Y0274438D02*
X0262024Y0271369D01*
X0262792Y0271369D01*
X0262024Y0269834D02*
X0262792Y0269067D01*
X0262792Y0267532D01*
X0262024Y0266765D01*
X0258955Y0266765D01*
X0258188Y0267532D01*
X0258188Y0269067D01*
X0258955Y0269834D01*
X0258188Y0271369D02*
X0258188Y0274438D01*
X0258955Y0274438D01*
X0263186Y0235119D02*
X0264720Y0235119D01*
X0263953Y0235119D02*
X0263953Y0230515D01*
X0263186Y0230515D02*
X0264720Y0230515D01*
X0266255Y0231282D02*
X0267022Y0230515D01*
X0268557Y0230515D01*
X0269324Y0231282D01*
X0270859Y0230515D02*
X0273928Y0230515D01*
X0272393Y0230515D02*
X0272393Y0235119D01*
X0270859Y0233584D01*
X0269324Y0234352D02*
X0268557Y0235119D01*
X0267022Y0235119D01*
X0266255Y0234352D01*
X0266255Y0231282D01*
X0275463Y0230515D02*
X0278532Y0230515D01*
X0276997Y0230515D02*
X0276997Y0235119D01*
X0275463Y0233584D01*
X0297113Y0223344D02*
X0297113Y0221810D01*
X0297880Y0221042D01*
X0297113Y0223344D02*
X0297880Y0224111D01*
X0298647Y0224111D01*
X0301717Y0221042D01*
X0301717Y0224111D01*
X0301717Y0219508D02*
X0301717Y0216438D01*
X0301717Y0217973D02*
X0297113Y0217973D01*
X0298647Y0216438D01*
X0297880Y0214904D02*
X0297113Y0214136D01*
X0297113Y0212602D01*
X0297880Y0211834D01*
X0300949Y0211834D01*
X0301717Y0212602D01*
X0301717Y0214136D01*
X0300949Y0214904D01*
X0301717Y0210300D02*
X0301717Y0208765D01*
X0301775Y0208727D02*
X0301775Y0207959D01*
X0302542Y0207192D01*
X0304076Y0207192D01*
X0304844Y0206425D01*
X0304844Y0205657D01*
X0304076Y0204890D01*
X0302542Y0204890D01*
X0301775Y0205657D01*
X0301775Y0206425D01*
X0302542Y0207192D01*
X0304076Y0207192D02*
X0304844Y0207959D01*
X0304844Y0208727D01*
X0304076Y0209494D01*
X0302542Y0209494D01*
X0301775Y0208727D01*
X0301717Y0209532D02*
X0297113Y0209532D01*
X0297113Y0208765D02*
X0297113Y0210300D01*
X0295636Y0208727D02*
X0294869Y0209494D01*
X0293334Y0209494D01*
X0292567Y0208727D01*
X0292567Y0205657D01*
X0293334Y0204890D01*
X0294869Y0204890D01*
X0295636Y0205657D01*
X0297171Y0205657D02*
X0297938Y0204890D01*
X0299473Y0204890D01*
X0300240Y0205657D01*
X0300240Y0206425D01*
X0299473Y0207192D01*
X0297171Y0207192D01*
X0297171Y0205657D01*
X0297171Y0207192D02*
X0298705Y0208727D01*
X0300240Y0209494D01*
X0312022Y0196994D02*
X0311255Y0196227D01*
X0311255Y0193157D01*
X0312022Y0192390D01*
X0313557Y0192390D01*
X0314324Y0193157D01*
X0315859Y0193157D02*
X0315859Y0192390D01*
X0315859Y0193157D02*
X0318928Y0196227D01*
X0318928Y0196994D01*
X0315859Y0196994D01*
X0314324Y0196227D02*
X0313557Y0196994D01*
X0312022Y0196994D01*
X0320463Y0196227D02*
X0321230Y0196994D01*
X0322765Y0196994D01*
X0323532Y0196227D01*
X0323532Y0195459D01*
X0320463Y0192390D01*
X0323532Y0192390D01*
X0323274Y0179042D02*
X0324042Y0178275D01*
X0324042Y0176740D01*
X0323274Y0175973D01*
X0320205Y0179042D01*
X0323274Y0179042D01*
X0320205Y0179042D02*
X0319438Y0178275D01*
X0319438Y0176740D01*
X0320205Y0175973D01*
X0323274Y0175973D01*
X0320205Y0174438D02*
X0323274Y0171369D01*
X0324042Y0171369D01*
X0324042Y0169834D02*
X0322507Y0168300D01*
X0322507Y0169067D02*
X0322507Y0166765D01*
X0322847Y0167161D02*
X0321313Y0168696D01*
X0325917Y0168696D01*
X0325917Y0170230D02*
X0325917Y0167161D01*
X0324042Y0166765D02*
X0319438Y0166765D01*
X0319438Y0169067D01*
X0320205Y0169834D01*
X0321740Y0169834D01*
X0322507Y0169067D01*
X0322080Y0165626D02*
X0325149Y0162557D01*
X0325917Y0162557D01*
X0325917Y0161023D02*
X0324382Y0159488D01*
X0324382Y0160255D02*
X0324382Y0157953D01*
X0325917Y0157953D02*
X0321313Y0157953D01*
X0321313Y0160255D01*
X0322080Y0161023D01*
X0323615Y0161023D01*
X0324382Y0160255D01*
X0321313Y0162557D02*
X0321313Y0165626D01*
X0322080Y0165626D01*
X0319438Y0171369D02*
X0319438Y0174438D01*
X0320205Y0174438D01*
X0319751Y0139494D02*
X0318984Y0138727D01*
X0319751Y0139494D02*
X0321286Y0139494D01*
X0322053Y0138727D01*
X0322053Y0137959D01*
X0318984Y0134890D01*
X0322053Y0134890D01*
X0323588Y0135657D02*
X0323588Y0136425D01*
X0324355Y0137192D01*
X0325890Y0137192D01*
X0326657Y0136425D01*
X0326657Y0135657D01*
X0325890Y0134890D01*
X0324355Y0134890D01*
X0323588Y0135657D01*
X0324355Y0137192D02*
X0323588Y0137959D01*
X0323588Y0138727D01*
X0324355Y0139494D01*
X0325890Y0139494D01*
X0326657Y0138727D01*
X0326657Y0137959D01*
X0325890Y0137192D01*
X0317449Y0137192D02*
X0316682Y0136425D01*
X0314380Y0136425D01*
X0315914Y0136425D02*
X0317449Y0134890D01*
X0317449Y0137192D02*
X0317449Y0138727D01*
X0316682Y0139494D01*
X0314380Y0139494D01*
X0314380Y0134890D01*
X0304524Y0125292D02*
X0305292Y0124525D01*
X0305292Y0122990D01*
X0304524Y0122223D01*
X0303757Y0122223D01*
X0302990Y0122990D01*
X0302990Y0124525D01*
X0303757Y0125292D01*
X0304524Y0125292D01*
X0302990Y0124525D02*
X0302222Y0125292D01*
X0301455Y0125292D01*
X0300688Y0124525D01*
X0300688Y0122990D01*
X0301455Y0122223D01*
X0302222Y0122223D01*
X0302990Y0122990D01*
X0302222Y0120688D02*
X0301455Y0120688D01*
X0300688Y0119921D01*
X0300688Y0118386D01*
X0301455Y0117619D01*
X0301455Y0116084D02*
X0300688Y0115317D01*
X0300688Y0113782D01*
X0301455Y0113015D01*
X0304524Y0113015D01*
X0305292Y0113782D01*
X0305292Y0115317D01*
X0304524Y0116084D01*
X0304689Y0116161D02*
X0305156Y0115694D01*
X0305623Y0115694D01*
X0306090Y0116161D01*
X0306090Y0117562D01*
X0305292Y0117619D02*
X0302222Y0120688D01*
X0305292Y0120688D02*
X0305292Y0117619D01*
X0305156Y0117562D02*
X0304689Y0117095D01*
X0304689Y0116161D01*
X0305156Y0117562D02*
X0307025Y0117562D01*
X0307492Y0117095D01*
X0307492Y0116161D01*
X0307025Y0115694D01*
X0307025Y0114615D02*
X0304689Y0114615D01*
X0304689Y0112747D02*
X0307025Y0112747D01*
X0307492Y0113214D01*
X0307492Y0114148D01*
X0307025Y0114615D01*
X0282167Y0114692D02*
X0282167Y0113157D01*
X0281399Y0112390D01*
X0278330Y0112390D01*
X0277563Y0113157D01*
X0277563Y0114692D01*
X0278330Y0115459D01*
X0278330Y0116994D02*
X0277563Y0117761D01*
X0277563Y0119296D01*
X0278330Y0120063D01*
X0279097Y0120063D01*
X0279865Y0119296D01*
X0280632Y0120063D01*
X0281399Y0120063D01*
X0282167Y0119296D01*
X0282167Y0117761D01*
X0281399Y0116994D01*
X0281399Y0115459D02*
X0282167Y0114692D01*
X0279865Y0118529D02*
X0279865Y0119296D01*
X0281399Y0121598D02*
X0278330Y0121598D01*
X0277563Y0122365D01*
X0277563Y0123900D01*
X0278330Y0124667D01*
X0281399Y0121598D01*
X0282167Y0122365D01*
X0282167Y0123900D01*
X0281399Y0124667D01*
X0278330Y0124667D01*
X0276542Y0124667D02*
X0276542Y0121598D01*
X0276542Y0123133D02*
X0271938Y0123133D01*
X0273472Y0121598D01*
X0273472Y0120063D02*
X0274240Y0119296D01*
X0275007Y0120063D01*
X0275774Y0120063D01*
X0276542Y0119296D01*
X0276542Y0117761D01*
X0275774Y0116994D01*
X0275774Y0115459D02*
X0276542Y0114692D01*
X0276542Y0113157D01*
X0275774Y0112390D01*
X0272705Y0112390D01*
X0271938Y0113157D01*
X0271938Y0114692D01*
X0272705Y0115459D01*
X0272705Y0116994D02*
X0271938Y0117761D01*
X0271938Y0119296D01*
X0272705Y0120063D01*
X0273472Y0120063D01*
X0274240Y0119296D02*
X0274240Y0118529D01*
X0269667Y0118584D02*
X0268132Y0117050D01*
X0268132Y0117817D02*
X0268132Y0115515D01*
X0269667Y0115515D02*
X0265063Y0115515D01*
X0265063Y0117817D01*
X0265830Y0118584D01*
X0267365Y0118584D01*
X0268132Y0117817D01*
X0268899Y0120119D02*
X0269667Y0120886D01*
X0269667Y0122421D01*
X0268899Y0123188D01*
X0268132Y0123188D01*
X0267365Y0122421D01*
X0267365Y0121654D01*
X0267365Y0122421D02*
X0266597Y0123188D01*
X0265830Y0123188D01*
X0265063Y0122421D01*
X0265063Y0120886D01*
X0265830Y0120119D01*
X0263417Y0120886D02*
X0262649Y0120119D01*
X0263417Y0120886D02*
X0263417Y0122421D01*
X0262649Y0123188D01*
X0261882Y0123188D01*
X0261115Y0122421D01*
X0261115Y0121654D01*
X0261115Y0122421D02*
X0260347Y0123188D01*
X0259580Y0123188D01*
X0258813Y0122421D01*
X0258813Y0120886D01*
X0259580Y0120119D01*
X0259580Y0118584D02*
X0258813Y0117817D01*
X0258813Y0116282D01*
X0259580Y0115515D01*
X0262649Y0115515D01*
X0263417Y0116282D01*
X0263417Y0117817D01*
X0262649Y0118584D01*
X0263417Y0124723D02*
X0260347Y0127792D01*
X0259580Y0127792D01*
X0258813Y0127025D01*
X0258813Y0125490D01*
X0259580Y0124723D01*
X0263417Y0124723D02*
X0263417Y0127792D01*
X0265063Y0127025D02*
X0265830Y0127792D01*
X0268899Y0124723D01*
X0269667Y0125490D01*
X0269667Y0127025D01*
X0268899Y0127792D01*
X0265830Y0127792D01*
X0265063Y0127025D02*
X0265063Y0125490D01*
X0265830Y0124723D01*
X0268899Y0124723D01*
X0267796Y0144890D02*
X0270865Y0147959D01*
X0270865Y0148727D01*
X0270098Y0149494D01*
X0268563Y0149494D01*
X0267796Y0148727D01*
X0266261Y0148727D02*
X0266261Y0147192D01*
X0265494Y0146425D01*
X0263192Y0146425D01*
X0264726Y0146425D02*
X0266261Y0144890D01*
X0267796Y0144890D02*
X0270865Y0144890D01*
X0272400Y0144890D02*
X0272400Y0145657D01*
X0275469Y0148727D01*
X0275469Y0149494D01*
X0272400Y0149494D01*
X0266261Y0148727D02*
X0265494Y0149494D01*
X0263192Y0149494D01*
X0263192Y0144890D01*
X0276938Y0189828D02*
X0276938Y0192130D01*
X0277705Y0192898D01*
X0279240Y0192898D01*
X0280007Y0192130D01*
X0280007Y0189828D01*
X0281542Y0189828D02*
X0276938Y0189828D01*
X0280007Y0191363D02*
X0281542Y0192898D01*
X0281542Y0194432D02*
X0280774Y0194432D01*
X0277705Y0197501D01*
X0276938Y0197501D01*
X0276938Y0194432D01*
X0276938Y0199036D02*
X0276938Y0202105D01*
X0277705Y0202105D01*
X0280774Y0199036D01*
X0281542Y0199036D01*
X0276094Y0203157D02*
X0275326Y0202390D01*
X0273792Y0202390D01*
X0273025Y0203157D01*
X0273025Y0203925D01*
X0273792Y0204692D01*
X0275326Y0204692D01*
X0276094Y0203925D01*
X0276094Y0203157D01*
X0275326Y0204692D02*
X0276094Y0205459D01*
X0276094Y0206227D01*
X0275326Y0206994D01*
X0273792Y0206994D01*
X0273025Y0206227D01*
X0273025Y0205459D01*
X0273792Y0204692D01*
X0271490Y0206227D02*
X0268421Y0203157D01*
X0268421Y0202390D01*
X0266886Y0202390D02*
X0265351Y0203925D01*
X0266119Y0203925D02*
X0263817Y0203925D01*
X0263817Y0202390D02*
X0263817Y0206994D01*
X0266119Y0206994D01*
X0266886Y0206227D01*
X0266886Y0204692D01*
X0266119Y0203925D01*
X0268421Y0206994D02*
X0271490Y0206994D01*
X0271490Y0206227D01*
X0209667Y0169463D02*
X0209667Y0167928D01*
X0208899Y0167161D01*
X0208132Y0167161D01*
X0207365Y0167928D01*
X0207365Y0169463D01*
X0208132Y0170230D01*
X0208899Y0170230D01*
X0209667Y0169463D01*
X0207792Y0169834D02*
X0206257Y0168300D01*
X0206257Y0169067D02*
X0206257Y0166765D01*
X0206597Y0167161D02*
X0205830Y0167161D01*
X0205063Y0167928D01*
X0205063Y0169463D01*
X0205830Y0170230D01*
X0206597Y0170230D01*
X0207365Y0169463D01*
X0206257Y0169067D02*
X0205490Y0169834D01*
X0203955Y0169834D01*
X0203188Y0169067D01*
X0203188Y0166765D01*
X0207792Y0166765D01*
X0207365Y0165626D02*
X0208899Y0165626D01*
X0209667Y0164859D01*
X0209667Y0163325D01*
X0208899Y0162557D01*
X0207365Y0162557D02*
X0206597Y0164092D01*
X0206597Y0164859D01*
X0207365Y0165626D01*
X0206597Y0167161D02*
X0207365Y0167928D01*
X0205063Y0165626D02*
X0205063Y0162557D01*
X0207365Y0162557D01*
X0207365Y0161023D02*
X0205830Y0161023D01*
X0205063Y0160255D01*
X0205063Y0157953D01*
X0209667Y0157953D01*
X0208132Y0157953D02*
X0208132Y0160255D01*
X0207365Y0161023D01*
X0208132Y0159488D02*
X0209667Y0161023D01*
X0207024Y0171369D02*
X0207792Y0172136D01*
X0207792Y0173671D01*
X0207024Y0174438D01*
X0205490Y0174438D01*
X0204722Y0173671D01*
X0204722Y0172904D01*
X0205490Y0171369D01*
X0203188Y0171369D01*
X0203188Y0174438D01*
X0203188Y0175973D02*
X0203188Y0179042D01*
X0203955Y0179042D01*
X0207024Y0175973D01*
X0207792Y0175973D01*
X0206515Y0192390D02*
X0204980Y0192390D01*
X0204213Y0193157D01*
X0202678Y0193157D02*
X0201911Y0192390D01*
X0200376Y0192390D01*
X0199609Y0193157D01*
X0198074Y0193157D02*
X0197307Y0192390D01*
X0195772Y0192390D01*
X0195005Y0193157D01*
X0195005Y0196227D01*
X0195772Y0196994D01*
X0197307Y0196994D01*
X0198074Y0196227D01*
X0199609Y0196994D02*
X0199609Y0194692D01*
X0201143Y0195459D01*
X0201911Y0195459D01*
X0202678Y0194692D01*
X0202678Y0193157D01*
X0204980Y0194692D02*
X0207282Y0194692D01*
X0207282Y0193157D02*
X0207282Y0196227D01*
X0206515Y0196994D01*
X0204980Y0196994D01*
X0204213Y0196227D01*
X0204213Y0195459D01*
X0204980Y0194692D01*
X0206515Y0192390D02*
X0207282Y0193157D01*
X0202678Y0196994D02*
X0199609Y0196994D01*
X0188594Y0205657D02*
X0187826Y0204890D01*
X0186292Y0204890D01*
X0185525Y0205657D01*
X0185525Y0207192D02*
X0187059Y0207959D01*
X0187826Y0207959D01*
X0188594Y0207192D01*
X0188594Y0205657D01*
X0185525Y0207192D02*
X0185525Y0209494D01*
X0188594Y0209494D01*
X0185467Y0209532D02*
X0180863Y0209532D01*
X0180921Y0209494D02*
X0180921Y0207192D01*
X0182455Y0207959D01*
X0183223Y0207959D01*
X0183990Y0207192D01*
X0183990Y0205657D01*
X0183223Y0204890D01*
X0181688Y0204890D01*
X0180921Y0205657D01*
X0179386Y0205657D02*
X0178619Y0204890D01*
X0177084Y0204890D01*
X0176317Y0205657D01*
X0176317Y0208727D01*
X0177084Y0209494D01*
X0178619Y0209494D01*
X0179386Y0208727D01*
X0180863Y0208765D02*
X0180863Y0210300D01*
X0180921Y0209494D02*
X0183990Y0209494D01*
X0185467Y0208765D02*
X0185467Y0210300D01*
X0184699Y0211834D02*
X0185467Y0212602D01*
X0185467Y0214136D01*
X0184699Y0214904D01*
X0185467Y0216438D02*
X0185467Y0219508D01*
X0185467Y0217973D02*
X0180863Y0217973D01*
X0182397Y0216438D01*
X0181630Y0214904D02*
X0180863Y0214136D01*
X0180863Y0212602D01*
X0181630Y0211834D01*
X0184699Y0211834D01*
X0184699Y0221042D02*
X0181630Y0224111D01*
X0184699Y0224111D01*
X0185467Y0223344D01*
X0185467Y0221810D01*
X0184699Y0221042D01*
X0181630Y0221042D01*
X0180863Y0221810D01*
X0180863Y0223344D01*
X0181630Y0224111D01*
X0162282Y0231282D02*
X0161515Y0230515D01*
X0159980Y0230515D01*
X0159213Y0231282D01*
X0157678Y0231282D02*
X0156911Y0230515D01*
X0155376Y0230515D01*
X0154609Y0231282D01*
X0154609Y0234352D01*
X0155376Y0235119D01*
X0156911Y0235119D01*
X0157678Y0234352D01*
X0159213Y0234352D02*
X0159213Y0233584D01*
X0159980Y0232817D01*
X0162282Y0232817D01*
X0162282Y0231282D02*
X0162282Y0234352D01*
X0161515Y0235119D01*
X0159980Y0235119D01*
X0159213Y0234352D01*
X0153074Y0235119D02*
X0151540Y0235119D01*
X0152307Y0235119D02*
X0152307Y0230515D01*
X0151540Y0230515D02*
X0153074Y0230515D01*
X0155240Y0206994D02*
X0153705Y0206227D01*
X0152171Y0204692D01*
X0154473Y0204692D01*
X0155240Y0203925D01*
X0155240Y0203157D01*
X0154473Y0202390D01*
X0152938Y0202390D01*
X0152171Y0203157D01*
X0152171Y0204692D01*
X0150636Y0204692D02*
X0149869Y0203925D01*
X0147567Y0203925D01*
X0149101Y0203925D02*
X0150636Y0202390D01*
X0150636Y0204692D02*
X0150636Y0206227D01*
X0149869Y0206994D01*
X0147567Y0206994D01*
X0147567Y0202390D01*
X0156775Y0203157D02*
X0157542Y0202390D01*
X0159076Y0202390D01*
X0159844Y0203157D01*
X0159844Y0204692D01*
X0159076Y0205459D01*
X0158309Y0205459D01*
X0156775Y0204692D01*
X0156775Y0206994D01*
X0159844Y0206994D01*
X0160688Y0201338D02*
X0162990Y0199036D01*
X0162990Y0202105D01*
X0165292Y0201338D02*
X0160688Y0201338D01*
X0160688Y0197501D02*
X0161455Y0195967D01*
X0162990Y0194432D01*
X0162990Y0196734D01*
X0163757Y0197501D01*
X0164524Y0197501D01*
X0165292Y0196734D01*
X0165292Y0195200D01*
X0164524Y0194432D01*
X0162990Y0194432D01*
X0162990Y0192898D02*
X0163757Y0192130D01*
X0163757Y0189828D01*
X0165292Y0189828D02*
X0160688Y0189828D01*
X0160688Y0192130D01*
X0161455Y0192898D01*
X0162990Y0192898D01*
X0163757Y0191363D02*
X0165292Y0192898D01*
X0158451Y0149494D02*
X0156150Y0147192D01*
X0159219Y0147192D01*
X0158451Y0144890D02*
X0158451Y0149494D01*
X0153080Y0149494D02*
X0153080Y0144890D01*
X0151546Y0144890D02*
X0154615Y0144890D01*
X0151546Y0147959D02*
X0153080Y0149494D01*
X0150011Y0148727D02*
X0150011Y0147192D01*
X0149244Y0146425D01*
X0146942Y0146425D01*
X0148476Y0146425D02*
X0150011Y0144890D01*
X0146942Y0144890D02*
X0146942Y0149494D01*
X0149244Y0149494D01*
X0150011Y0148727D01*
X0149580Y0127792D02*
X0148813Y0127792D01*
X0148813Y0124723D01*
X0147167Y0125490D02*
X0147167Y0127025D01*
X0146399Y0127792D01*
X0143330Y0127792D01*
X0142563Y0127025D01*
X0142563Y0125490D01*
X0143330Y0124723D01*
X0144097Y0124723D01*
X0144865Y0125490D01*
X0144865Y0127792D01*
X0147167Y0125490D02*
X0146399Y0124723D01*
X0147167Y0123188D02*
X0147167Y0120119D01*
X0147167Y0121654D02*
X0142563Y0121654D01*
X0144097Y0120119D01*
X0143330Y0118584D02*
X0142563Y0117817D01*
X0142563Y0116282D01*
X0143330Y0115515D01*
X0146399Y0115515D01*
X0147167Y0116282D01*
X0147167Y0117817D01*
X0146399Y0118584D01*
X0148813Y0117817D02*
X0149580Y0118584D01*
X0151115Y0118584D01*
X0151882Y0117817D01*
X0151882Y0115515D01*
X0153417Y0115515D02*
X0148813Y0115515D01*
X0148813Y0117817D01*
X0150347Y0120119D02*
X0148813Y0121654D01*
X0153417Y0121654D01*
X0153417Y0123188D02*
X0153417Y0120119D01*
X0153417Y0118584D02*
X0151882Y0117050D01*
X0155688Y0118529D02*
X0160292Y0118529D01*
X0161313Y0118529D02*
X0165917Y0118529D01*
X0165917Y0120063D02*
X0165917Y0116994D01*
X0165149Y0115459D02*
X0165917Y0114692D01*
X0165917Y0113157D01*
X0165149Y0112390D01*
X0162080Y0112390D01*
X0161313Y0113157D01*
X0161313Y0114692D01*
X0162080Y0115459D01*
X0162847Y0116994D02*
X0161313Y0118529D01*
X0160292Y0120063D02*
X0160292Y0116994D01*
X0159524Y0115459D02*
X0160292Y0114692D01*
X0160292Y0113157D01*
X0159524Y0112390D01*
X0156455Y0112390D01*
X0155688Y0113157D01*
X0155688Y0114692D01*
X0156455Y0115459D01*
X0157222Y0116994D02*
X0155688Y0118529D01*
X0156455Y0121598D02*
X0155688Y0122365D01*
X0155688Y0123900D01*
X0156455Y0124667D01*
X0157222Y0124667D01*
X0157990Y0123900D01*
X0157990Y0122365D01*
X0157222Y0121598D01*
X0156455Y0121598D01*
X0157990Y0122365D02*
X0158757Y0121598D01*
X0159524Y0121598D01*
X0160292Y0122365D01*
X0160292Y0123900D01*
X0159524Y0124667D01*
X0158757Y0124667D01*
X0157990Y0123900D01*
X0161313Y0124667D02*
X0161313Y0121598D01*
X0161313Y0124667D02*
X0162080Y0124667D01*
X0165149Y0121598D01*
X0165917Y0121598D01*
X0153417Y0124723D02*
X0152649Y0124723D01*
X0149580Y0127792D01*
X0184438Y0125292D02*
X0184438Y0122223D01*
X0186740Y0122223D01*
X0185972Y0123758D01*
X0185972Y0124525D01*
X0186740Y0125292D01*
X0188274Y0125292D01*
X0189042Y0124525D01*
X0189042Y0122990D01*
X0188274Y0122223D01*
X0189042Y0120688D02*
X0189042Y0117619D01*
X0188439Y0117562D02*
X0188906Y0116628D01*
X0189840Y0115694D01*
X0189840Y0117095D01*
X0190308Y0117562D01*
X0190775Y0117562D01*
X0191242Y0117095D01*
X0191242Y0116161D01*
X0190775Y0115694D01*
X0189840Y0115694D01*
X0189042Y0115317D02*
X0188274Y0116084D01*
X0189042Y0115317D02*
X0189042Y0113782D01*
X0188274Y0113015D01*
X0185205Y0113015D01*
X0184438Y0113782D01*
X0184438Y0115317D01*
X0185205Y0116084D01*
X0185972Y0117619D02*
X0184438Y0119154D01*
X0189042Y0119154D01*
X0188439Y0114615D02*
X0190775Y0114615D01*
X0191242Y0114148D01*
X0191242Y0113214D01*
X0190775Y0112747D01*
X0188439Y0112747D01*
X0198130Y0134890D02*
X0198130Y0139494D01*
X0200432Y0139494D01*
X0201199Y0138727D01*
X0201199Y0137192D01*
X0200432Y0136425D01*
X0198130Y0136425D01*
X0199664Y0136425D02*
X0201199Y0134890D01*
X0202734Y0134890D02*
X0205803Y0134890D01*
X0204268Y0134890D02*
X0204268Y0139494D01*
X0202734Y0137959D01*
X0207338Y0137192D02*
X0207338Y0139494D01*
X0210407Y0139494D01*
X0209640Y0137959D02*
X0210407Y0137192D01*
X0210407Y0135657D01*
X0209640Y0134890D01*
X0208105Y0134890D01*
X0207338Y0135657D01*
X0207338Y0137192D02*
X0208872Y0137959D01*
X0209640Y0137959D01*
X0162140Y0083869D02*
X0162907Y0083102D01*
X0162907Y0082334D01*
X0162140Y0081567D01*
X0162907Y0080800D01*
X0162907Y0080032D01*
X0162140Y0079265D01*
X0160605Y0079265D01*
X0159838Y0080032D01*
X0158303Y0080032D02*
X0157536Y0079265D01*
X0156001Y0079265D01*
X0155234Y0080032D01*
X0155234Y0083102D01*
X0156001Y0083869D01*
X0157536Y0083869D01*
X0158303Y0083102D01*
X0159838Y0083102D02*
X0160605Y0083869D01*
X0162140Y0083869D01*
X0162140Y0081567D02*
X0161372Y0081567D01*
X0153699Y0079265D02*
X0152165Y0079265D01*
X0152932Y0079265D02*
X0152932Y0083869D01*
X0152165Y0083869D02*
X0153699Y0083869D01*
X0181488Y0067490D02*
X0183790Y0065188D01*
X0183790Y0068258D01*
X0186092Y0067490D02*
X0181488Y0067490D01*
X0182255Y0063654D02*
X0181488Y0062886D01*
X0181488Y0061352D01*
X0182255Y0060584D01*
X0185324Y0060584D01*
X0186092Y0061352D01*
X0186092Y0062886D01*
X0185324Y0063654D01*
X0186092Y0059050D02*
X0186092Y0057515D01*
X0186092Y0058282D02*
X0181488Y0058282D01*
X0181488Y0057515D02*
X0181488Y0059050D01*
X0183080Y0058244D02*
X0183080Y0053640D01*
X0181546Y0053640D02*
X0184615Y0053640D01*
X0186150Y0054407D02*
X0186917Y0053640D01*
X0188451Y0053640D01*
X0189219Y0054407D01*
X0189219Y0055175D01*
X0188451Y0055942D01*
X0186150Y0055942D01*
X0186150Y0054407D01*
X0186150Y0055942D02*
X0187684Y0057477D01*
X0189219Y0058244D01*
X0183080Y0058244D02*
X0181546Y0056709D01*
X0180011Y0057477D02*
X0179244Y0058244D01*
X0177709Y0058244D01*
X0176942Y0057477D01*
X0176942Y0054407D01*
X0177709Y0053640D01*
X0179244Y0053640D01*
X0180011Y0054407D01*
X0165917Y0050088D02*
X0165917Y0048553D01*
X0165149Y0047786D01*
X0163615Y0047786D02*
X0162847Y0049321D01*
X0162847Y0050088D01*
X0163615Y0050855D01*
X0165149Y0050855D01*
X0165917Y0050088D01*
X0163615Y0047786D02*
X0161313Y0047786D01*
X0161313Y0050855D01*
X0160469Y0051907D02*
X0160469Y0052675D01*
X0159701Y0053442D01*
X0157400Y0053442D01*
X0157400Y0051907D01*
X0158167Y0051140D01*
X0159701Y0051140D01*
X0160469Y0051907D01*
X0157400Y0053442D02*
X0158934Y0054977D01*
X0160469Y0055744D01*
X0155865Y0054977D02*
X0155098Y0055744D01*
X0153563Y0055744D01*
X0152796Y0054977D01*
X0151261Y0054977D02*
X0151261Y0053442D01*
X0150494Y0052675D01*
X0148192Y0052675D01*
X0149726Y0052675D02*
X0151261Y0051140D01*
X0152796Y0051140D02*
X0155865Y0054209D01*
X0155865Y0054977D01*
X0155865Y0051140D02*
X0152796Y0051140D01*
X0151261Y0054977D02*
X0150494Y0055744D01*
X0148192Y0055744D01*
X0148192Y0051140D01*
X0161313Y0045484D02*
X0161313Y0043950D01*
X0162080Y0043182D01*
X0162080Y0041648D02*
X0163615Y0041648D01*
X0164382Y0040880D01*
X0164382Y0038578D01*
X0165917Y0038578D02*
X0161313Y0038578D01*
X0161313Y0040880D01*
X0162080Y0041648D01*
X0164382Y0040113D02*
X0165917Y0041648D01*
X0165917Y0043182D02*
X0162847Y0046251D01*
X0162080Y0046251D01*
X0161313Y0045484D01*
X0165917Y0046251D02*
X0165917Y0043182D01*
X0195630Y0041907D02*
X0196397Y0041140D01*
X0197932Y0041140D01*
X0198699Y0041907D01*
X0200234Y0041140D02*
X0203303Y0044209D01*
X0203303Y0044977D01*
X0202536Y0045744D01*
X0201001Y0045744D01*
X0200234Y0044977D01*
X0198699Y0044977D02*
X0197932Y0045744D01*
X0196397Y0045744D01*
X0195630Y0044977D01*
X0195630Y0041907D01*
X0200234Y0041140D02*
X0203303Y0041140D01*
X0204838Y0041907D02*
X0207907Y0044977D01*
X0207907Y0041907D01*
X0207140Y0041140D01*
X0205605Y0041140D01*
X0204838Y0041907D01*
X0204838Y0044977D01*
X0205605Y0045744D01*
X0207140Y0045744D01*
X0207907Y0044977D01*
X0207649Y0027792D02*
X0208417Y0027025D01*
X0208417Y0025490D01*
X0207649Y0024723D01*
X0206882Y0024723D01*
X0206115Y0025490D01*
X0206115Y0027025D01*
X0206882Y0027792D01*
X0207649Y0027792D01*
X0206115Y0027025D02*
X0205347Y0027792D01*
X0204580Y0027792D01*
X0203813Y0027025D01*
X0203813Y0025490D01*
X0204580Y0024723D01*
X0205347Y0024723D01*
X0206115Y0025490D01*
X0208417Y0023188D02*
X0208417Y0020119D01*
X0207990Y0018980D02*
X0207990Y0016678D01*
X0207222Y0015911D01*
X0206455Y0015911D01*
X0205688Y0016678D01*
X0205688Y0018213D01*
X0206455Y0018980D01*
X0209524Y0018980D01*
X0210292Y0018213D01*
X0210292Y0016678D01*
X0209524Y0015911D01*
X0208417Y0015515D02*
X0203813Y0015515D01*
X0203813Y0017817D01*
X0204580Y0018584D01*
X0206115Y0018584D01*
X0206882Y0017817D01*
X0206882Y0015515D01*
X0206882Y0017050D02*
X0208417Y0018584D01*
X0208417Y0021654D02*
X0203813Y0021654D01*
X0205347Y0020119D01*
X0205688Y0012842D02*
X0210292Y0012842D01*
X0210292Y0014376D02*
X0210292Y0011307D01*
X0210292Y0009773D02*
X0208757Y0008238D01*
X0208757Y0009005D02*
X0208757Y0006703D01*
X0210292Y0006703D02*
X0205688Y0006703D01*
X0205688Y0009005D01*
X0206455Y0009773D01*
X0207990Y0009773D01*
X0208757Y0009005D01*
X0207222Y0011307D02*
X0205688Y0012842D01*
X0264442Y0051140D02*
X0264442Y0055744D01*
X0266744Y0055744D01*
X0267511Y0054977D01*
X0267511Y0053442D01*
X0266744Y0052675D01*
X0264442Y0052675D01*
X0265976Y0052675D02*
X0267511Y0051140D01*
X0269046Y0051907D02*
X0269813Y0051140D01*
X0271348Y0051140D01*
X0272115Y0051907D01*
X0272115Y0052675D01*
X0271348Y0053442D01*
X0270580Y0053442D01*
X0271348Y0053442D02*
X0272115Y0054209D01*
X0272115Y0054977D01*
X0271348Y0055744D01*
X0269813Y0055744D01*
X0269046Y0054977D01*
X0273650Y0054977D02*
X0273650Y0054209D01*
X0274417Y0053442D01*
X0276719Y0053442D01*
X0276719Y0051907D02*
X0276719Y0054977D01*
X0275951Y0055744D01*
X0274417Y0055744D01*
X0273650Y0054977D01*
X0273650Y0051907D02*
X0274417Y0051140D01*
X0275951Y0051140D01*
X0276719Y0051907D01*
X0278330Y0050855D02*
X0277563Y0050088D01*
X0277563Y0048553D01*
X0278330Y0047786D01*
X0279097Y0047786D01*
X0279865Y0048553D01*
X0279865Y0050088D01*
X0280632Y0050855D01*
X0281399Y0050855D01*
X0282167Y0050088D01*
X0282167Y0048553D01*
X0281399Y0047786D01*
X0280632Y0047786D01*
X0279865Y0048553D01*
X0279865Y0050088D02*
X0279097Y0050855D01*
X0278330Y0050855D01*
X0278330Y0046251D02*
X0279097Y0046251D01*
X0279865Y0045484D01*
X0280632Y0046251D01*
X0281399Y0046251D01*
X0282167Y0045484D01*
X0282167Y0043950D01*
X0281399Y0043182D01*
X0282167Y0041648D02*
X0280632Y0040113D01*
X0280632Y0040880D02*
X0280632Y0038578D01*
X0282167Y0038578D02*
X0277563Y0038578D01*
X0277563Y0040880D01*
X0278330Y0041648D01*
X0279865Y0041648D01*
X0280632Y0040880D01*
X0278330Y0043182D02*
X0277563Y0043950D01*
X0277563Y0045484D01*
X0278330Y0046251D01*
X0279865Y0045484D02*
X0279865Y0044717D01*
X0293192Y0054407D02*
X0293192Y0057477D01*
X0293959Y0058244D01*
X0295494Y0058244D01*
X0296261Y0057477D01*
X0297738Y0057515D02*
X0297738Y0059050D01*
X0297738Y0058282D02*
X0302342Y0058282D01*
X0302342Y0057515D02*
X0302342Y0059050D01*
X0303167Y0058244D02*
X0302400Y0057477D01*
X0302400Y0056709D01*
X0303167Y0055942D01*
X0305469Y0055942D01*
X0305469Y0054407D02*
X0305469Y0057477D01*
X0304701Y0058244D01*
X0303167Y0058244D01*
X0300865Y0057477D02*
X0300865Y0056709D01*
X0297796Y0053640D01*
X0300865Y0053640D01*
X0302400Y0054407D02*
X0303167Y0053640D01*
X0304701Y0053640D01*
X0305469Y0054407D01*
X0300865Y0057477D02*
X0300098Y0058244D01*
X0298563Y0058244D01*
X0297796Y0057477D01*
X0298505Y0060584D02*
X0297738Y0061352D01*
X0297738Y0062886D01*
X0298505Y0063654D01*
X0300040Y0065188D02*
X0300040Y0067490D01*
X0300807Y0068258D01*
X0301574Y0068258D01*
X0302342Y0067490D01*
X0302342Y0065956D01*
X0301574Y0065188D01*
X0300040Y0065188D01*
X0298505Y0066723D01*
X0297738Y0068258D01*
X0301574Y0063654D02*
X0302342Y0062886D01*
X0302342Y0061352D01*
X0301574Y0060584D01*
X0298505Y0060584D01*
X0296261Y0054407D02*
X0295494Y0053640D01*
X0293959Y0053640D01*
X0293192Y0054407D01*
X0311880Y0044977D02*
X0311880Y0041907D01*
X0312647Y0041140D01*
X0314182Y0041140D01*
X0314949Y0041907D01*
X0316484Y0041907D02*
X0317251Y0041140D01*
X0318786Y0041140D01*
X0319553Y0041907D01*
X0319553Y0042675D01*
X0318786Y0043442D01*
X0318018Y0043442D01*
X0318786Y0043442D02*
X0319553Y0044209D01*
X0319553Y0044977D01*
X0318786Y0045744D01*
X0317251Y0045744D01*
X0316484Y0044977D01*
X0314949Y0044977D02*
X0314182Y0045744D01*
X0312647Y0045744D01*
X0311880Y0044977D01*
X0321088Y0044977D02*
X0321855Y0045744D01*
X0323390Y0045744D01*
X0324157Y0044977D01*
X0324157Y0044209D01*
X0323390Y0043442D01*
X0324157Y0042675D01*
X0324157Y0041907D01*
X0323390Y0041140D01*
X0321855Y0041140D01*
X0321088Y0041907D01*
X0322622Y0043442D02*
X0323390Y0043442D01*
X0324667Y0027792D02*
X0324667Y0024723D01*
X0324667Y0026258D02*
X0320063Y0026258D01*
X0321597Y0024723D01*
X0321597Y0023188D02*
X0322365Y0022421D01*
X0323132Y0023188D01*
X0323899Y0023188D01*
X0324667Y0022421D01*
X0324667Y0020886D01*
X0323899Y0020119D01*
X0323472Y0018980D02*
X0322705Y0018980D01*
X0321938Y0018213D01*
X0321938Y0016678D01*
X0322705Y0015911D01*
X0323132Y0015515D02*
X0323132Y0017817D01*
X0322365Y0018584D01*
X0320830Y0018584D01*
X0320063Y0017817D01*
X0320063Y0015515D01*
X0324667Y0015515D01*
X0325007Y0014376D02*
X0325774Y0014376D01*
X0326542Y0013609D01*
X0326542Y0012075D01*
X0325774Y0011307D01*
X0326542Y0009773D02*
X0325007Y0008238D01*
X0325007Y0009005D02*
X0325007Y0006703D01*
X0326542Y0006703D02*
X0321938Y0006703D01*
X0321938Y0009005D01*
X0322705Y0009773D01*
X0324240Y0009773D01*
X0325007Y0009005D01*
X0322705Y0011307D02*
X0321938Y0012075D01*
X0321938Y0013609D01*
X0322705Y0014376D01*
X0323472Y0014376D01*
X0324240Y0013609D01*
X0325007Y0014376D01*
X0324240Y0013609D02*
X0324240Y0012842D01*
X0326542Y0015911D02*
X0323472Y0018980D01*
X0324667Y0018584D02*
X0323132Y0017050D01*
X0326542Y0015911D02*
X0326542Y0018980D01*
X0322365Y0021654D02*
X0322365Y0022421D01*
X0321597Y0023188D02*
X0320830Y0023188D01*
X0320063Y0022421D01*
X0320063Y0020886D01*
X0320830Y0020119D01*
X0278390Y0079265D02*
X0276855Y0079265D01*
X0276088Y0080032D01*
X0274553Y0080032D02*
X0273786Y0079265D01*
X0272251Y0079265D01*
X0271484Y0080032D01*
X0271484Y0083102D01*
X0272251Y0083869D01*
X0273786Y0083869D01*
X0274553Y0083102D01*
X0276088Y0083869D02*
X0276088Y0081567D01*
X0277622Y0082334D01*
X0278390Y0082334D01*
X0279157Y0081567D01*
X0279157Y0080032D01*
X0278390Y0079265D01*
X0279157Y0083869D02*
X0276088Y0083869D01*
X0269949Y0083869D02*
X0268415Y0083869D01*
X0269182Y0083869D02*
X0269182Y0079265D01*
X0268415Y0079265D02*
X0269949Y0079265D01*
X0089157Y0045744D02*
X0089157Y0044977D01*
X0086088Y0041907D01*
X0086088Y0041140D01*
X0084553Y0041907D02*
X0083786Y0041140D01*
X0082251Y0041140D01*
X0081484Y0041907D01*
X0081484Y0044977D01*
X0082251Y0045744D01*
X0083786Y0045744D01*
X0084553Y0044977D01*
X0086088Y0045744D02*
X0089157Y0045744D01*
X0088899Y0023188D02*
X0087365Y0023188D01*
X0086597Y0022421D01*
X0086597Y0021654D01*
X0087365Y0020119D01*
X0085063Y0020119D01*
X0085063Y0023188D01*
X0086938Y0018980D02*
X0087705Y0017446D01*
X0089240Y0015911D01*
X0089240Y0018213D01*
X0090007Y0018980D01*
X0090774Y0018980D01*
X0091542Y0018213D01*
X0091542Y0016678D01*
X0090774Y0015911D01*
X0089240Y0015911D01*
X0089667Y0015515D02*
X0085063Y0015515D01*
X0085063Y0017817D01*
X0085830Y0018584D01*
X0087365Y0018584D01*
X0088132Y0017817D01*
X0088132Y0015515D01*
X0087705Y0014376D02*
X0089240Y0014376D01*
X0090007Y0013609D01*
X0090007Y0011307D01*
X0091542Y0011307D02*
X0086938Y0011307D01*
X0086938Y0013609D01*
X0087705Y0014376D01*
X0088132Y0017050D02*
X0089667Y0018584D01*
X0088899Y0020119D02*
X0089667Y0020886D01*
X0089667Y0022421D01*
X0088899Y0023188D01*
X0091542Y0014376D02*
X0090007Y0012842D01*
X0065098Y0053640D02*
X0063563Y0053640D01*
X0062796Y0054407D01*
X0061261Y0054407D02*
X0060494Y0053640D01*
X0058959Y0053640D01*
X0058192Y0054407D01*
X0058192Y0057477D01*
X0058959Y0058244D01*
X0060494Y0058244D01*
X0061261Y0057477D01*
X0062738Y0057515D02*
X0062738Y0059050D01*
X0062738Y0058282D02*
X0067342Y0058282D01*
X0067342Y0057515D02*
X0067342Y0059050D01*
X0066574Y0060584D02*
X0063505Y0060584D01*
X0062738Y0061352D01*
X0062738Y0062886D01*
X0063505Y0063654D01*
X0063505Y0065188D02*
X0062738Y0065956D01*
X0062738Y0067490D01*
X0063505Y0068258D01*
X0064272Y0068258D01*
X0067342Y0065188D01*
X0067342Y0068258D01*
X0066574Y0063654D02*
X0067342Y0062886D01*
X0067342Y0061352D01*
X0066574Y0060584D01*
X0065098Y0058244D02*
X0063563Y0058244D01*
X0062796Y0057477D01*
X0064330Y0055942D02*
X0065098Y0055942D01*
X0065865Y0055175D01*
X0065865Y0054407D01*
X0065098Y0053640D01*
X0065098Y0055942D02*
X0065865Y0056709D01*
X0065865Y0057477D01*
X0065098Y0058244D01*
X0047167Y0050855D02*
X0047167Y0047786D01*
X0044097Y0050855D01*
X0043330Y0050855D01*
X0042563Y0050088D01*
X0042563Y0048553D01*
X0043330Y0047786D01*
X0042563Y0044717D02*
X0047167Y0044717D01*
X0047167Y0046251D02*
X0047167Y0043182D01*
X0047167Y0041648D02*
X0045632Y0040113D01*
X0045632Y0040880D02*
X0045632Y0038578D01*
X0047167Y0038578D02*
X0042563Y0038578D01*
X0042563Y0040880D01*
X0043330Y0041648D01*
X0044865Y0041648D01*
X0045632Y0040880D01*
X0044097Y0043182D02*
X0042563Y0044717D01*
X0040951Y0051140D02*
X0039417Y0051140D01*
X0038650Y0051907D01*
X0037115Y0051140D02*
X0034046Y0051140D01*
X0035580Y0051140D02*
X0035580Y0055744D01*
X0034046Y0054209D01*
X0032511Y0053442D02*
X0032511Y0054977D01*
X0031744Y0055744D01*
X0029442Y0055744D01*
X0029442Y0051140D01*
X0029442Y0052675D02*
X0031744Y0052675D01*
X0032511Y0053442D01*
X0030976Y0052675D02*
X0032511Y0051140D01*
X0038650Y0054977D02*
X0039417Y0055744D01*
X0040951Y0055744D01*
X0041719Y0054977D01*
X0041719Y0054209D01*
X0040951Y0053442D01*
X0041719Y0052675D01*
X0041719Y0051907D01*
X0040951Y0051140D01*
X0040951Y0053442D02*
X0040184Y0053442D01*
X0041088Y0079265D02*
X0044157Y0079265D01*
X0042622Y0079265D02*
X0042622Y0083869D01*
X0041088Y0082334D01*
X0039553Y0083102D02*
X0038786Y0083869D01*
X0037251Y0083869D01*
X0036484Y0083102D01*
X0036484Y0080032D01*
X0037251Y0079265D01*
X0038786Y0079265D01*
X0039553Y0080032D01*
X0034949Y0079265D02*
X0033415Y0079265D01*
X0034182Y0079265D02*
X0034182Y0083869D01*
X0033415Y0083869D02*
X0034949Y0083869D01*
D13*
X0068842Y0077315D02*
X0068842Y0063315D01*
X0094642Y0063315D01*
X0094642Y0077315D01*
X0068842Y0077315D01*
X0074621Y0096540D02*
X0074621Y0102840D01*
X0079542Y0095556D02*
X0082691Y0095556D01*
X0087613Y0096540D02*
X0087613Y0102840D01*
X0076240Y0041782D02*
X0072893Y0041782D01*
X0072893Y0031939D01*
X0067381Y0031939D01*
X0076240Y0026034D02*
X0076240Y0041782D01*
X0053602Y0031939D02*
X0048090Y0031939D01*
X0048090Y0041782D01*
X0044744Y0041782D01*
X0044744Y0026034D01*
X0051633Y0012254D02*
X0069350Y0012254D01*
X0163494Y0026034D02*
X0163494Y0041782D01*
X0166840Y0041782D01*
X0166840Y0031939D01*
X0172352Y0031939D01*
X0186131Y0031939D02*
X0191643Y0031939D01*
X0191643Y0041782D01*
X0194990Y0041782D01*
X0194990Y0026034D01*
X0188100Y0012254D02*
X0170383Y0012254D01*
X0187592Y0063315D02*
X0187592Y0077315D01*
X0213392Y0077315D01*
X0213392Y0063315D01*
X0187592Y0063315D01*
X0193371Y0096540D02*
X0193371Y0102840D01*
X0198292Y0095556D02*
X0201441Y0095556D01*
X0206363Y0096540D02*
X0206363Y0102840D01*
X0187475Y0163504D02*
X0169758Y0163504D01*
X0162869Y0177284D02*
X0162869Y0193032D01*
X0166215Y0193032D01*
X0166215Y0183189D01*
X0171727Y0183189D01*
X0185506Y0183189D02*
X0191018Y0183189D01*
X0191018Y0193032D01*
X0194365Y0193032D01*
X0194365Y0177284D01*
X0186967Y0214565D02*
X0186967Y0228565D01*
X0212767Y0228565D01*
X0212767Y0214565D01*
X0186967Y0214565D01*
X0192746Y0247790D02*
X0192746Y0254090D01*
X0197667Y0246806D02*
X0200816Y0246806D01*
X0205738Y0247790D02*
X0205738Y0254090D01*
X0279119Y0193032D02*
X0282465Y0193032D01*
X0282465Y0183189D01*
X0287977Y0183189D01*
X0279119Y0177284D02*
X0279119Y0193032D01*
X0301756Y0183189D02*
X0307268Y0183189D01*
X0307268Y0193032D01*
X0310615Y0193032D01*
X0310615Y0177284D01*
X0303725Y0163504D02*
X0286008Y0163504D01*
X0303217Y0214565D02*
X0303217Y0228565D01*
X0329017Y0228565D01*
X0329017Y0214565D01*
X0303217Y0214565D01*
X0308996Y0247790D02*
X0308996Y0254090D01*
X0313917Y0246806D02*
X0317066Y0246806D01*
X0321988Y0247790D02*
X0321988Y0254090D01*
X0322613Y0102840D02*
X0322613Y0096540D01*
X0317691Y0095556D02*
X0314542Y0095556D01*
X0309621Y0096540D02*
X0309621Y0102840D01*
X0303842Y0077315D02*
X0329642Y0077315D01*
X0329642Y0063315D01*
X0303842Y0063315D01*
X0303842Y0077315D01*
X0307893Y0041782D02*
X0311240Y0041782D01*
X0311240Y0026034D01*
X0307893Y0031939D02*
X0302381Y0031939D01*
X0307893Y0031939D02*
X0307893Y0041782D01*
X0288602Y0031939D02*
X0283090Y0031939D01*
X0283090Y0041782D01*
X0279744Y0041782D01*
X0279744Y0026034D01*
X0286633Y0012254D02*
X0304350Y0012254D01*
X0075615Y0177284D02*
X0075615Y0193032D01*
X0072268Y0193032D01*
X0072268Y0183189D01*
X0066756Y0183189D01*
X0052977Y0183189D02*
X0047465Y0183189D01*
X0047465Y0193032D01*
X0044119Y0193032D01*
X0044119Y0177284D01*
X0051008Y0163504D02*
X0068725Y0163504D01*
X0068217Y0214565D02*
X0068217Y0228565D01*
X0094017Y0228565D01*
X0094017Y0214565D01*
X0068217Y0214565D01*
X0073996Y0247790D02*
X0073996Y0254090D01*
X0078917Y0246806D02*
X0082066Y0246806D01*
X0086988Y0247790D02*
X0086988Y0254090D01*
D14*
X0088939Y0299065D03*
X0147689Y0299065D03*
X0207689Y0299065D03*
X0263939Y0299065D03*
X0323939Y0299065D03*
X0324564Y0147815D03*
X0264564Y0147815D03*
X0208314Y0147815D03*
X0148314Y0147815D03*
X0089564Y0147815D03*
X0029564Y0147815D03*
X0028939Y0299065D03*
D15*
X0056658Y0269749D02*
X0068075Y0269749D01*
X0068075Y0264631D01*
X0056658Y0264631D01*
X0056658Y0269749D01*
X0175408Y0269749D02*
X0175408Y0264631D01*
X0186825Y0264631D01*
X0186825Y0269749D01*
X0175408Y0269749D01*
X0291658Y0269749D02*
X0291658Y0264631D01*
X0303075Y0264631D01*
X0303075Y0269749D01*
X0291658Y0269749D01*
X0292283Y0118499D02*
X0303700Y0118499D01*
X0303700Y0113381D01*
X0292283Y0113381D01*
X0292283Y0118499D01*
X0187450Y0118499D02*
X0187450Y0113381D01*
X0176033Y0113381D01*
X0176033Y0118499D01*
X0187450Y0118499D01*
X0068700Y0118499D02*
X0068700Y0113381D01*
X0057283Y0113381D01*
X0057283Y0118499D01*
X0068700Y0118499D01*
D16*
X0066771Y0119729D03*
X0059212Y0119729D03*
X0059212Y0112151D03*
X0066771Y0112151D03*
X0177962Y0112151D03*
X0185521Y0112151D03*
X0185521Y0119729D03*
X0177962Y0119729D03*
X0294212Y0119729D03*
X0301771Y0119729D03*
X0301771Y0112151D03*
X0294212Y0112151D03*
X0293587Y0263401D03*
X0301146Y0263401D03*
X0301146Y0270979D03*
X0293587Y0270979D03*
X0184896Y0270979D03*
X0184896Y0263401D03*
X0177337Y0263401D03*
X0177337Y0270979D03*
X0066146Y0270979D03*
X0058587Y0270979D03*
X0058587Y0263401D03*
X0066146Y0263401D03*
D17*
X0083415Y0295320D02*
X0084666Y0295320D01*
X0084917Y0295571D01*
X0084917Y0296071D01*
X0084666Y0296321D01*
X0083415Y0296321D01*
X0083666Y0296794D02*
X0083415Y0297044D01*
X0083415Y0297544D01*
X0083666Y0297794D01*
X0083666Y0298267D02*
X0083415Y0298517D01*
X0083415Y0299017D01*
X0083666Y0299268D01*
X0083916Y0299268D01*
X0084166Y0299017D01*
X0084416Y0299268D01*
X0084666Y0299268D01*
X0084917Y0299017D01*
X0084917Y0298517D01*
X0084666Y0298267D01*
X0084666Y0297794D02*
X0084416Y0297794D01*
X0084166Y0297544D01*
X0084166Y0297044D01*
X0083916Y0296794D01*
X0083666Y0296794D01*
X0083165Y0297294D02*
X0085167Y0297294D01*
X0084917Y0297544D02*
X0084666Y0297794D01*
X0084917Y0297544D02*
X0084917Y0297044D01*
X0084666Y0296794D01*
X0084166Y0298767D02*
X0084166Y0299017D01*
X0201915Y0297294D02*
X0203917Y0297294D01*
X0203667Y0297544D02*
X0203416Y0297794D01*
X0203166Y0297794D01*
X0202916Y0297544D01*
X0202916Y0297044D01*
X0202666Y0296794D01*
X0202416Y0296794D01*
X0202165Y0297044D01*
X0202165Y0297544D01*
X0202416Y0297794D01*
X0202916Y0298267D02*
X0202165Y0299017D01*
X0203667Y0299017D01*
X0202916Y0299268D02*
X0202916Y0298267D01*
X0203667Y0297544D02*
X0203667Y0297044D01*
X0203416Y0296794D01*
X0203416Y0296321D02*
X0202165Y0296321D01*
X0202165Y0295320D02*
X0203416Y0295320D01*
X0203667Y0295571D01*
X0203667Y0296071D01*
X0203416Y0296321D01*
X0318165Y0297294D02*
X0320167Y0297294D01*
X0319917Y0297544D02*
X0319666Y0297794D01*
X0319416Y0297794D01*
X0319166Y0297544D01*
X0319166Y0297044D01*
X0318916Y0296794D01*
X0318666Y0296794D01*
X0318415Y0297044D01*
X0318415Y0297544D01*
X0318666Y0297794D01*
X0318415Y0298267D02*
X0319166Y0298267D01*
X0318916Y0298767D01*
X0318916Y0299017D01*
X0319166Y0299268D01*
X0319666Y0299268D01*
X0319917Y0299017D01*
X0319917Y0298517D01*
X0319666Y0298267D01*
X0319917Y0297544D02*
X0319917Y0297044D01*
X0319666Y0296794D01*
X0319666Y0296321D02*
X0318415Y0296321D01*
X0318415Y0295320D02*
X0319666Y0295320D01*
X0319917Y0295571D01*
X0319917Y0296071D01*
X0319666Y0296321D01*
X0318415Y0298267D02*
X0318415Y0299268D01*
X0319291Y0148018D02*
X0319040Y0147767D01*
X0319040Y0147267D01*
X0319291Y0147017D01*
X0319291Y0146544D02*
X0319040Y0146294D01*
X0319040Y0145794D01*
X0319291Y0145544D01*
X0319541Y0145544D01*
X0319791Y0145794D01*
X0319791Y0146294D01*
X0320041Y0146544D01*
X0320291Y0146544D01*
X0320542Y0146294D01*
X0320542Y0145794D01*
X0320291Y0145544D01*
X0320291Y0145071D02*
X0319040Y0145071D01*
X0319040Y0144070D02*
X0320291Y0144070D01*
X0320542Y0144321D01*
X0320542Y0144821D01*
X0320291Y0145071D01*
X0320792Y0146044D02*
X0318790Y0146044D01*
X0320542Y0147017D02*
X0319541Y0148018D01*
X0319291Y0148018D01*
X0320542Y0148018D02*
X0320542Y0147017D01*
X0204542Y0146044D02*
X0202540Y0146044D01*
X0202790Y0146294D02*
X0203041Y0146544D01*
X0202790Y0146294D02*
X0202790Y0145794D01*
X0203041Y0145544D01*
X0203291Y0145544D01*
X0203541Y0145794D01*
X0203541Y0146294D01*
X0203791Y0146544D01*
X0204041Y0146544D01*
X0204292Y0146294D01*
X0204292Y0145794D01*
X0204041Y0145544D01*
X0204041Y0145071D02*
X0202790Y0145071D01*
X0202790Y0144070D02*
X0204041Y0144070D01*
X0204292Y0144321D01*
X0204292Y0144821D01*
X0204041Y0145071D01*
X0204292Y0147017D02*
X0204292Y0148018D01*
X0204292Y0147517D02*
X0202790Y0147517D01*
X0203291Y0147017D01*
X0085792Y0144571D02*
X0083790Y0144571D01*
X0084040Y0144821D02*
X0084291Y0145071D01*
X0084040Y0144821D02*
X0084040Y0144320D01*
X0084291Y0144070D01*
X0084541Y0144070D01*
X0084791Y0144320D01*
X0084791Y0144821D01*
X0085041Y0145071D01*
X0085291Y0145071D01*
X0085542Y0144821D01*
X0085542Y0144320D01*
X0085291Y0144070D01*
X0085291Y0143598D02*
X0084040Y0143598D01*
X0084040Y0142597D02*
X0085291Y0142597D01*
X0085542Y0142847D01*
X0085542Y0143348D01*
X0085291Y0143598D01*
X0085542Y0145544D02*
X0085542Y0146544D01*
X0085542Y0146044D02*
X0084040Y0146044D01*
X0084541Y0145544D01*
X0084291Y0147017D02*
X0084040Y0147267D01*
X0084040Y0147767D01*
X0084291Y0148018D01*
X0084541Y0148018D01*
X0084791Y0147767D01*
X0085041Y0148018D01*
X0085291Y0148018D01*
X0085542Y0147767D01*
X0085542Y0147267D01*
X0085291Y0147017D01*
X0084791Y0147517D02*
X0084791Y0147767D01*
D18*
X0066299Y0134779D02*
X0066301Y0134860D01*
X0066307Y0134942D01*
X0066317Y0135023D01*
X0066331Y0135103D01*
X0066348Y0135182D01*
X0066370Y0135261D01*
X0066395Y0135338D01*
X0066424Y0135415D01*
X0066457Y0135489D01*
X0066494Y0135562D01*
X0066533Y0135633D01*
X0066577Y0135702D01*
X0066623Y0135769D01*
X0066673Y0135833D01*
X0066726Y0135895D01*
X0066782Y0135955D01*
X0066840Y0136011D01*
X0066902Y0136065D01*
X0066966Y0136116D01*
X0067032Y0136163D01*
X0067100Y0136207D01*
X0067171Y0136248D01*
X0067243Y0136285D01*
X0067318Y0136319D01*
X0067393Y0136349D01*
X0067471Y0136375D01*
X0067549Y0136398D01*
X0067628Y0136416D01*
X0067708Y0136431D01*
X0067789Y0136442D01*
X0067870Y0136449D01*
X0067952Y0136452D01*
X0068033Y0136451D01*
X0068114Y0136446D01*
X0068195Y0136437D01*
X0068276Y0136424D01*
X0068356Y0136407D01*
X0068434Y0136387D01*
X0068512Y0136362D01*
X0068589Y0136334D01*
X0068664Y0136302D01*
X0068737Y0136267D01*
X0068808Y0136228D01*
X0068878Y0136185D01*
X0068945Y0136140D01*
X0069011Y0136091D01*
X0069073Y0136039D01*
X0069133Y0135983D01*
X0069190Y0135925D01*
X0069245Y0135865D01*
X0069296Y0135801D01*
X0069344Y0135736D01*
X0069389Y0135668D01*
X0069431Y0135598D01*
X0069469Y0135526D01*
X0069504Y0135452D01*
X0069535Y0135377D01*
X0069562Y0135300D01*
X0069585Y0135222D01*
X0069605Y0135143D01*
X0069621Y0135063D01*
X0069633Y0134982D01*
X0069641Y0134901D01*
X0069645Y0134820D01*
X0069645Y0134738D01*
X0069641Y0134657D01*
X0069633Y0134576D01*
X0069621Y0134495D01*
X0069605Y0134415D01*
X0069585Y0134336D01*
X0069562Y0134258D01*
X0069535Y0134181D01*
X0069504Y0134106D01*
X0069469Y0134032D01*
X0069431Y0133960D01*
X0069389Y0133890D01*
X0069344Y0133822D01*
X0069296Y0133757D01*
X0069245Y0133693D01*
X0069190Y0133633D01*
X0069133Y0133575D01*
X0069073Y0133519D01*
X0069011Y0133467D01*
X0068945Y0133418D01*
X0068878Y0133373D01*
X0068809Y0133330D01*
X0068737Y0133291D01*
X0068664Y0133256D01*
X0068589Y0133224D01*
X0068512Y0133196D01*
X0068434Y0133171D01*
X0068356Y0133151D01*
X0068276Y0133134D01*
X0068195Y0133121D01*
X0068114Y0133112D01*
X0068033Y0133107D01*
X0067952Y0133106D01*
X0067870Y0133109D01*
X0067789Y0133116D01*
X0067708Y0133127D01*
X0067628Y0133142D01*
X0067549Y0133160D01*
X0067471Y0133183D01*
X0067393Y0133209D01*
X0067318Y0133239D01*
X0067243Y0133273D01*
X0067171Y0133310D01*
X0067100Y0133351D01*
X0067032Y0133395D01*
X0066966Y0133442D01*
X0066902Y0133493D01*
X0066840Y0133547D01*
X0066782Y0133603D01*
X0066726Y0133663D01*
X0066673Y0133725D01*
X0066623Y0133789D01*
X0066577Y0133856D01*
X0066533Y0133925D01*
X0066494Y0133996D01*
X0066457Y0134069D01*
X0066424Y0134143D01*
X0066395Y0134220D01*
X0066370Y0134297D01*
X0066348Y0134376D01*
X0066331Y0134455D01*
X0066317Y0134535D01*
X0066307Y0134616D01*
X0066301Y0134698D01*
X0066299Y0134779D01*
X0066792Y0133600D02*
X0066792Y0135960D01*
X0051338Y0134779D02*
X0051340Y0134860D01*
X0051346Y0134942D01*
X0051356Y0135023D01*
X0051370Y0135103D01*
X0051387Y0135182D01*
X0051409Y0135261D01*
X0051434Y0135338D01*
X0051463Y0135415D01*
X0051496Y0135489D01*
X0051533Y0135562D01*
X0051572Y0135633D01*
X0051616Y0135702D01*
X0051662Y0135769D01*
X0051712Y0135833D01*
X0051765Y0135895D01*
X0051821Y0135955D01*
X0051879Y0136011D01*
X0051941Y0136065D01*
X0052005Y0136116D01*
X0052071Y0136163D01*
X0052139Y0136207D01*
X0052210Y0136248D01*
X0052282Y0136285D01*
X0052357Y0136319D01*
X0052432Y0136349D01*
X0052510Y0136375D01*
X0052588Y0136398D01*
X0052667Y0136416D01*
X0052747Y0136431D01*
X0052828Y0136442D01*
X0052909Y0136449D01*
X0052991Y0136452D01*
X0053072Y0136451D01*
X0053153Y0136446D01*
X0053234Y0136437D01*
X0053315Y0136424D01*
X0053395Y0136407D01*
X0053473Y0136387D01*
X0053551Y0136362D01*
X0053628Y0136334D01*
X0053703Y0136302D01*
X0053776Y0136267D01*
X0053847Y0136228D01*
X0053917Y0136185D01*
X0053984Y0136140D01*
X0054050Y0136091D01*
X0054112Y0136039D01*
X0054172Y0135983D01*
X0054229Y0135925D01*
X0054284Y0135865D01*
X0054335Y0135801D01*
X0054383Y0135736D01*
X0054428Y0135668D01*
X0054470Y0135598D01*
X0054508Y0135526D01*
X0054543Y0135452D01*
X0054574Y0135377D01*
X0054601Y0135300D01*
X0054624Y0135222D01*
X0054644Y0135143D01*
X0054660Y0135063D01*
X0054672Y0134982D01*
X0054680Y0134901D01*
X0054684Y0134820D01*
X0054684Y0134738D01*
X0054680Y0134657D01*
X0054672Y0134576D01*
X0054660Y0134495D01*
X0054644Y0134415D01*
X0054624Y0134336D01*
X0054601Y0134258D01*
X0054574Y0134181D01*
X0054543Y0134106D01*
X0054508Y0134032D01*
X0054470Y0133960D01*
X0054428Y0133890D01*
X0054383Y0133822D01*
X0054335Y0133757D01*
X0054284Y0133693D01*
X0054229Y0133633D01*
X0054172Y0133575D01*
X0054112Y0133519D01*
X0054050Y0133467D01*
X0053984Y0133418D01*
X0053917Y0133373D01*
X0053848Y0133330D01*
X0053776Y0133291D01*
X0053703Y0133256D01*
X0053628Y0133224D01*
X0053551Y0133196D01*
X0053473Y0133171D01*
X0053395Y0133151D01*
X0053315Y0133134D01*
X0053234Y0133121D01*
X0053153Y0133112D01*
X0053072Y0133107D01*
X0052991Y0133106D01*
X0052909Y0133109D01*
X0052828Y0133116D01*
X0052747Y0133127D01*
X0052667Y0133142D01*
X0052588Y0133160D01*
X0052510Y0133183D01*
X0052432Y0133209D01*
X0052357Y0133239D01*
X0052282Y0133273D01*
X0052210Y0133310D01*
X0052139Y0133351D01*
X0052071Y0133395D01*
X0052005Y0133442D01*
X0051941Y0133493D01*
X0051879Y0133547D01*
X0051821Y0133603D01*
X0051765Y0133663D01*
X0051712Y0133725D01*
X0051662Y0133789D01*
X0051616Y0133856D01*
X0051572Y0133925D01*
X0051533Y0133996D01*
X0051496Y0134069D01*
X0051463Y0134143D01*
X0051434Y0134220D01*
X0051409Y0134297D01*
X0051387Y0134376D01*
X0051370Y0134455D01*
X0051356Y0134535D01*
X0051346Y0134616D01*
X0051340Y0134698D01*
X0051338Y0134779D01*
X0170088Y0134779D02*
X0170090Y0134860D01*
X0170096Y0134942D01*
X0170106Y0135023D01*
X0170120Y0135103D01*
X0170137Y0135182D01*
X0170159Y0135261D01*
X0170184Y0135338D01*
X0170213Y0135415D01*
X0170246Y0135489D01*
X0170283Y0135562D01*
X0170322Y0135633D01*
X0170366Y0135702D01*
X0170412Y0135769D01*
X0170462Y0135833D01*
X0170515Y0135895D01*
X0170571Y0135955D01*
X0170629Y0136011D01*
X0170691Y0136065D01*
X0170755Y0136116D01*
X0170821Y0136163D01*
X0170889Y0136207D01*
X0170960Y0136248D01*
X0171032Y0136285D01*
X0171107Y0136319D01*
X0171182Y0136349D01*
X0171260Y0136375D01*
X0171338Y0136398D01*
X0171417Y0136416D01*
X0171497Y0136431D01*
X0171578Y0136442D01*
X0171659Y0136449D01*
X0171741Y0136452D01*
X0171822Y0136451D01*
X0171903Y0136446D01*
X0171984Y0136437D01*
X0172065Y0136424D01*
X0172145Y0136407D01*
X0172223Y0136387D01*
X0172301Y0136362D01*
X0172378Y0136334D01*
X0172453Y0136302D01*
X0172526Y0136267D01*
X0172597Y0136228D01*
X0172667Y0136185D01*
X0172734Y0136140D01*
X0172800Y0136091D01*
X0172862Y0136039D01*
X0172922Y0135983D01*
X0172979Y0135925D01*
X0173034Y0135865D01*
X0173085Y0135801D01*
X0173133Y0135736D01*
X0173178Y0135668D01*
X0173220Y0135598D01*
X0173258Y0135526D01*
X0173293Y0135452D01*
X0173324Y0135377D01*
X0173351Y0135300D01*
X0173374Y0135222D01*
X0173394Y0135143D01*
X0173410Y0135063D01*
X0173422Y0134982D01*
X0173430Y0134901D01*
X0173434Y0134820D01*
X0173434Y0134738D01*
X0173430Y0134657D01*
X0173422Y0134576D01*
X0173410Y0134495D01*
X0173394Y0134415D01*
X0173374Y0134336D01*
X0173351Y0134258D01*
X0173324Y0134181D01*
X0173293Y0134106D01*
X0173258Y0134032D01*
X0173220Y0133960D01*
X0173178Y0133890D01*
X0173133Y0133822D01*
X0173085Y0133757D01*
X0173034Y0133693D01*
X0172979Y0133633D01*
X0172922Y0133575D01*
X0172862Y0133519D01*
X0172800Y0133467D01*
X0172734Y0133418D01*
X0172667Y0133373D01*
X0172598Y0133330D01*
X0172526Y0133291D01*
X0172453Y0133256D01*
X0172378Y0133224D01*
X0172301Y0133196D01*
X0172223Y0133171D01*
X0172145Y0133151D01*
X0172065Y0133134D01*
X0171984Y0133121D01*
X0171903Y0133112D01*
X0171822Y0133107D01*
X0171741Y0133106D01*
X0171659Y0133109D01*
X0171578Y0133116D01*
X0171497Y0133127D01*
X0171417Y0133142D01*
X0171338Y0133160D01*
X0171260Y0133183D01*
X0171182Y0133209D01*
X0171107Y0133239D01*
X0171032Y0133273D01*
X0170960Y0133310D01*
X0170889Y0133351D01*
X0170821Y0133395D01*
X0170755Y0133442D01*
X0170691Y0133493D01*
X0170629Y0133547D01*
X0170571Y0133603D01*
X0170515Y0133663D01*
X0170462Y0133725D01*
X0170412Y0133789D01*
X0170366Y0133856D01*
X0170322Y0133925D01*
X0170283Y0133996D01*
X0170246Y0134069D01*
X0170213Y0134143D01*
X0170184Y0134220D01*
X0170159Y0134297D01*
X0170137Y0134376D01*
X0170120Y0134455D01*
X0170106Y0134535D01*
X0170096Y0134616D01*
X0170090Y0134698D01*
X0170088Y0134779D01*
X0185542Y0133600D02*
X0185542Y0135960D01*
X0185049Y0134779D02*
X0185051Y0134860D01*
X0185057Y0134942D01*
X0185067Y0135023D01*
X0185081Y0135103D01*
X0185098Y0135182D01*
X0185120Y0135261D01*
X0185145Y0135338D01*
X0185174Y0135415D01*
X0185207Y0135489D01*
X0185244Y0135562D01*
X0185283Y0135633D01*
X0185327Y0135702D01*
X0185373Y0135769D01*
X0185423Y0135833D01*
X0185476Y0135895D01*
X0185532Y0135955D01*
X0185590Y0136011D01*
X0185652Y0136065D01*
X0185716Y0136116D01*
X0185782Y0136163D01*
X0185850Y0136207D01*
X0185921Y0136248D01*
X0185993Y0136285D01*
X0186068Y0136319D01*
X0186143Y0136349D01*
X0186221Y0136375D01*
X0186299Y0136398D01*
X0186378Y0136416D01*
X0186458Y0136431D01*
X0186539Y0136442D01*
X0186620Y0136449D01*
X0186702Y0136452D01*
X0186783Y0136451D01*
X0186864Y0136446D01*
X0186945Y0136437D01*
X0187026Y0136424D01*
X0187106Y0136407D01*
X0187184Y0136387D01*
X0187262Y0136362D01*
X0187339Y0136334D01*
X0187414Y0136302D01*
X0187487Y0136267D01*
X0187558Y0136228D01*
X0187628Y0136185D01*
X0187695Y0136140D01*
X0187761Y0136091D01*
X0187823Y0136039D01*
X0187883Y0135983D01*
X0187940Y0135925D01*
X0187995Y0135865D01*
X0188046Y0135801D01*
X0188094Y0135736D01*
X0188139Y0135668D01*
X0188181Y0135598D01*
X0188219Y0135526D01*
X0188254Y0135452D01*
X0188285Y0135377D01*
X0188312Y0135300D01*
X0188335Y0135222D01*
X0188355Y0135143D01*
X0188371Y0135063D01*
X0188383Y0134982D01*
X0188391Y0134901D01*
X0188395Y0134820D01*
X0188395Y0134738D01*
X0188391Y0134657D01*
X0188383Y0134576D01*
X0188371Y0134495D01*
X0188355Y0134415D01*
X0188335Y0134336D01*
X0188312Y0134258D01*
X0188285Y0134181D01*
X0188254Y0134106D01*
X0188219Y0134032D01*
X0188181Y0133960D01*
X0188139Y0133890D01*
X0188094Y0133822D01*
X0188046Y0133757D01*
X0187995Y0133693D01*
X0187940Y0133633D01*
X0187883Y0133575D01*
X0187823Y0133519D01*
X0187761Y0133467D01*
X0187695Y0133418D01*
X0187628Y0133373D01*
X0187559Y0133330D01*
X0187487Y0133291D01*
X0187414Y0133256D01*
X0187339Y0133224D01*
X0187262Y0133196D01*
X0187184Y0133171D01*
X0187106Y0133151D01*
X0187026Y0133134D01*
X0186945Y0133121D01*
X0186864Y0133112D01*
X0186783Y0133107D01*
X0186702Y0133106D01*
X0186620Y0133109D01*
X0186539Y0133116D01*
X0186458Y0133127D01*
X0186378Y0133142D01*
X0186299Y0133160D01*
X0186221Y0133183D01*
X0186143Y0133209D01*
X0186068Y0133239D01*
X0185993Y0133273D01*
X0185921Y0133310D01*
X0185850Y0133351D01*
X0185782Y0133395D01*
X0185716Y0133442D01*
X0185652Y0133493D01*
X0185590Y0133547D01*
X0185532Y0133603D01*
X0185476Y0133663D01*
X0185423Y0133725D01*
X0185373Y0133789D01*
X0185327Y0133856D01*
X0185283Y0133925D01*
X0185244Y0133996D01*
X0185207Y0134069D01*
X0185174Y0134143D01*
X0185145Y0134220D01*
X0185120Y0134297D01*
X0185098Y0134376D01*
X0185081Y0134455D01*
X0185067Y0134535D01*
X0185057Y0134616D01*
X0185051Y0134698D01*
X0185049Y0134779D01*
X0286338Y0134779D02*
X0286340Y0134860D01*
X0286346Y0134942D01*
X0286356Y0135023D01*
X0286370Y0135103D01*
X0286387Y0135182D01*
X0286409Y0135261D01*
X0286434Y0135338D01*
X0286463Y0135415D01*
X0286496Y0135489D01*
X0286533Y0135562D01*
X0286572Y0135633D01*
X0286616Y0135702D01*
X0286662Y0135769D01*
X0286712Y0135833D01*
X0286765Y0135895D01*
X0286821Y0135955D01*
X0286879Y0136011D01*
X0286941Y0136065D01*
X0287005Y0136116D01*
X0287071Y0136163D01*
X0287139Y0136207D01*
X0287210Y0136248D01*
X0287282Y0136285D01*
X0287357Y0136319D01*
X0287432Y0136349D01*
X0287510Y0136375D01*
X0287588Y0136398D01*
X0287667Y0136416D01*
X0287747Y0136431D01*
X0287828Y0136442D01*
X0287909Y0136449D01*
X0287991Y0136452D01*
X0288072Y0136451D01*
X0288153Y0136446D01*
X0288234Y0136437D01*
X0288315Y0136424D01*
X0288395Y0136407D01*
X0288473Y0136387D01*
X0288551Y0136362D01*
X0288628Y0136334D01*
X0288703Y0136302D01*
X0288776Y0136267D01*
X0288847Y0136228D01*
X0288917Y0136185D01*
X0288984Y0136140D01*
X0289050Y0136091D01*
X0289112Y0136039D01*
X0289172Y0135983D01*
X0289229Y0135925D01*
X0289284Y0135865D01*
X0289335Y0135801D01*
X0289383Y0135736D01*
X0289428Y0135668D01*
X0289470Y0135598D01*
X0289508Y0135526D01*
X0289543Y0135452D01*
X0289574Y0135377D01*
X0289601Y0135300D01*
X0289624Y0135222D01*
X0289644Y0135143D01*
X0289660Y0135063D01*
X0289672Y0134982D01*
X0289680Y0134901D01*
X0289684Y0134820D01*
X0289684Y0134738D01*
X0289680Y0134657D01*
X0289672Y0134576D01*
X0289660Y0134495D01*
X0289644Y0134415D01*
X0289624Y0134336D01*
X0289601Y0134258D01*
X0289574Y0134181D01*
X0289543Y0134106D01*
X0289508Y0134032D01*
X0289470Y0133960D01*
X0289428Y0133890D01*
X0289383Y0133822D01*
X0289335Y0133757D01*
X0289284Y0133693D01*
X0289229Y0133633D01*
X0289172Y0133575D01*
X0289112Y0133519D01*
X0289050Y0133467D01*
X0288984Y0133418D01*
X0288917Y0133373D01*
X0288848Y0133330D01*
X0288776Y0133291D01*
X0288703Y0133256D01*
X0288628Y0133224D01*
X0288551Y0133196D01*
X0288473Y0133171D01*
X0288395Y0133151D01*
X0288315Y0133134D01*
X0288234Y0133121D01*
X0288153Y0133112D01*
X0288072Y0133107D01*
X0287991Y0133106D01*
X0287909Y0133109D01*
X0287828Y0133116D01*
X0287747Y0133127D01*
X0287667Y0133142D01*
X0287588Y0133160D01*
X0287510Y0133183D01*
X0287432Y0133209D01*
X0287357Y0133239D01*
X0287282Y0133273D01*
X0287210Y0133310D01*
X0287139Y0133351D01*
X0287071Y0133395D01*
X0287005Y0133442D01*
X0286941Y0133493D01*
X0286879Y0133547D01*
X0286821Y0133603D01*
X0286765Y0133663D01*
X0286712Y0133725D01*
X0286662Y0133789D01*
X0286616Y0133856D01*
X0286572Y0133925D01*
X0286533Y0133996D01*
X0286496Y0134069D01*
X0286463Y0134143D01*
X0286434Y0134220D01*
X0286409Y0134297D01*
X0286387Y0134376D01*
X0286370Y0134455D01*
X0286356Y0134535D01*
X0286346Y0134616D01*
X0286340Y0134698D01*
X0286338Y0134779D01*
X0301792Y0133600D02*
X0301792Y0135960D01*
X0301299Y0134779D02*
X0301301Y0134860D01*
X0301307Y0134942D01*
X0301317Y0135023D01*
X0301331Y0135103D01*
X0301348Y0135182D01*
X0301370Y0135261D01*
X0301395Y0135338D01*
X0301424Y0135415D01*
X0301457Y0135489D01*
X0301494Y0135562D01*
X0301533Y0135633D01*
X0301577Y0135702D01*
X0301623Y0135769D01*
X0301673Y0135833D01*
X0301726Y0135895D01*
X0301782Y0135955D01*
X0301840Y0136011D01*
X0301902Y0136065D01*
X0301966Y0136116D01*
X0302032Y0136163D01*
X0302100Y0136207D01*
X0302171Y0136248D01*
X0302243Y0136285D01*
X0302318Y0136319D01*
X0302393Y0136349D01*
X0302471Y0136375D01*
X0302549Y0136398D01*
X0302628Y0136416D01*
X0302708Y0136431D01*
X0302789Y0136442D01*
X0302870Y0136449D01*
X0302952Y0136452D01*
X0303033Y0136451D01*
X0303114Y0136446D01*
X0303195Y0136437D01*
X0303276Y0136424D01*
X0303356Y0136407D01*
X0303434Y0136387D01*
X0303512Y0136362D01*
X0303589Y0136334D01*
X0303664Y0136302D01*
X0303737Y0136267D01*
X0303808Y0136228D01*
X0303878Y0136185D01*
X0303945Y0136140D01*
X0304011Y0136091D01*
X0304073Y0136039D01*
X0304133Y0135983D01*
X0304190Y0135925D01*
X0304245Y0135865D01*
X0304296Y0135801D01*
X0304344Y0135736D01*
X0304389Y0135668D01*
X0304431Y0135598D01*
X0304469Y0135526D01*
X0304504Y0135452D01*
X0304535Y0135377D01*
X0304562Y0135300D01*
X0304585Y0135222D01*
X0304605Y0135143D01*
X0304621Y0135063D01*
X0304633Y0134982D01*
X0304641Y0134901D01*
X0304645Y0134820D01*
X0304645Y0134738D01*
X0304641Y0134657D01*
X0304633Y0134576D01*
X0304621Y0134495D01*
X0304605Y0134415D01*
X0304585Y0134336D01*
X0304562Y0134258D01*
X0304535Y0134181D01*
X0304504Y0134106D01*
X0304469Y0134032D01*
X0304431Y0133960D01*
X0304389Y0133890D01*
X0304344Y0133822D01*
X0304296Y0133757D01*
X0304245Y0133693D01*
X0304190Y0133633D01*
X0304133Y0133575D01*
X0304073Y0133519D01*
X0304011Y0133467D01*
X0303945Y0133418D01*
X0303878Y0133373D01*
X0303809Y0133330D01*
X0303737Y0133291D01*
X0303664Y0133256D01*
X0303589Y0133224D01*
X0303512Y0133196D01*
X0303434Y0133171D01*
X0303356Y0133151D01*
X0303276Y0133134D01*
X0303195Y0133121D01*
X0303114Y0133112D01*
X0303033Y0133107D01*
X0302952Y0133106D01*
X0302870Y0133109D01*
X0302789Y0133116D01*
X0302708Y0133127D01*
X0302628Y0133142D01*
X0302549Y0133160D01*
X0302471Y0133183D01*
X0302393Y0133209D01*
X0302318Y0133239D01*
X0302243Y0133273D01*
X0302171Y0133310D01*
X0302100Y0133351D01*
X0302032Y0133395D01*
X0301966Y0133442D01*
X0301902Y0133493D01*
X0301840Y0133547D01*
X0301782Y0133603D01*
X0301726Y0133663D01*
X0301673Y0133725D01*
X0301623Y0133789D01*
X0301577Y0133856D01*
X0301533Y0133925D01*
X0301494Y0133996D01*
X0301457Y0134069D01*
X0301424Y0134143D01*
X0301395Y0134220D01*
X0301370Y0134297D01*
X0301348Y0134376D01*
X0301331Y0134455D01*
X0301317Y0134535D01*
X0301307Y0134616D01*
X0301301Y0134698D01*
X0301299Y0134779D01*
X0301167Y0284850D02*
X0301167Y0287210D01*
X0300674Y0286029D02*
X0300676Y0286110D01*
X0300682Y0286192D01*
X0300692Y0286273D01*
X0300706Y0286353D01*
X0300723Y0286432D01*
X0300745Y0286511D01*
X0300770Y0286588D01*
X0300799Y0286665D01*
X0300832Y0286739D01*
X0300869Y0286812D01*
X0300908Y0286883D01*
X0300952Y0286952D01*
X0300998Y0287019D01*
X0301048Y0287083D01*
X0301101Y0287145D01*
X0301157Y0287205D01*
X0301215Y0287261D01*
X0301277Y0287315D01*
X0301341Y0287366D01*
X0301407Y0287413D01*
X0301475Y0287457D01*
X0301546Y0287498D01*
X0301618Y0287535D01*
X0301693Y0287569D01*
X0301768Y0287599D01*
X0301846Y0287625D01*
X0301924Y0287648D01*
X0302003Y0287666D01*
X0302083Y0287681D01*
X0302164Y0287692D01*
X0302245Y0287699D01*
X0302327Y0287702D01*
X0302408Y0287701D01*
X0302489Y0287696D01*
X0302570Y0287687D01*
X0302651Y0287674D01*
X0302731Y0287657D01*
X0302809Y0287637D01*
X0302887Y0287612D01*
X0302964Y0287584D01*
X0303039Y0287552D01*
X0303112Y0287517D01*
X0303183Y0287478D01*
X0303253Y0287435D01*
X0303320Y0287390D01*
X0303386Y0287341D01*
X0303448Y0287289D01*
X0303508Y0287233D01*
X0303565Y0287175D01*
X0303620Y0287115D01*
X0303671Y0287051D01*
X0303719Y0286986D01*
X0303764Y0286918D01*
X0303806Y0286848D01*
X0303844Y0286776D01*
X0303879Y0286702D01*
X0303910Y0286627D01*
X0303937Y0286550D01*
X0303960Y0286472D01*
X0303980Y0286393D01*
X0303996Y0286313D01*
X0304008Y0286232D01*
X0304016Y0286151D01*
X0304020Y0286070D01*
X0304020Y0285988D01*
X0304016Y0285907D01*
X0304008Y0285826D01*
X0303996Y0285745D01*
X0303980Y0285665D01*
X0303960Y0285586D01*
X0303937Y0285508D01*
X0303910Y0285431D01*
X0303879Y0285356D01*
X0303844Y0285282D01*
X0303806Y0285210D01*
X0303764Y0285140D01*
X0303719Y0285072D01*
X0303671Y0285007D01*
X0303620Y0284943D01*
X0303565Y0284883D01*
X0303508Y0284825D01*
X0303448Y0284769D01*
X0303386Y0284717D01*
X0303320Y0284668D01*
X0303253Y0284623D01*
X0303184Y0284580D01*
X0303112Y0284541D01*
X0303039Y0284506D01*
X0302964Y0284474D01*
X0302887Y0284446D01*
X0302809Y0284421D01*
X0302731Y0284401D01*
X0302651Y0284384D01*
X0302570Y0284371D01*
X0302489Y0284362D01*
X0302408Y0284357D01*
X0302327Y0284356D01*
X0302245Y0284359D01*
X0302164Y0284366D01*
X0302083Y0284377D01*
X0302003Y0284392D01*
X0301924Y0284410D01*
X0301846Y0284433D01*
X0301768Y0284459D01*
X0301693Y0284489D01*
X0301618Y0284523D01*
X0301546Y0284560D01*
X0301475Y0284601D01*
X0301407Y0284645D01*
X0301341Y0284692D01*
X0301277Y0284743D01*
X0301215Y0284797D01*
X0301157Y0284853D01*
X0301101Y0284913D01*
X0301048Y0284975D01*
X0300998Y0285039D01*
X0300952Y0285106D01*
X0300908Y0285175D01*
X0300869Y0285246D01*
X0300832Y0285319D01*
X0300799Y0285393D01*
X0300770Y0285470D01*
X0300745Y0285547D01*
X0300723Y0285626D01*
X0300706Y0285705D01*
X0300692Y0285785D01*
X0300682Y0285866D01*
X0300676Y0285948D01*
X0300674Y0286029D01*
X0285713Y0286029D02*
X0285715Y0286110D01*
X0285721Y0286192D01*
X0285731Y0286273D01*
X0285745Y0286353D01*
X0285762Y0286432D01*
X0285784Y0286511D01*
X0285809Y0286588D01*
X0285838Y0286665D01*
X0285871Y0286739D01*
X0285908Y0286812D01*
X0285947Y0286883D01*
X0285991Y0286952D01*
X0286037Y0287019D01*
X0286087Y0287083D01*
X0286140Y0287145D01*
X0286196Y0287205D01*
X0286254Y0287261D01*
X0286316Y0287315D01*
X0286380Y0287366D01*
X0286446Y0287413D01*
X0286514Y0287457D01*
X0286585Y0287498D01*
X0286657Y0287535D01*
X0286732Y0287569D01*
X0286807Y0287599D01*
X0286885Y0287625D01*
X0286963Y0287648D01*
X0287042Y0287666D01*
X0287122Y0287681D01*
X0287203Y0287692D01*
X0287284Y0287699D01*
X0287366Y0287702D01*
X0287447Y0287701D01*
X0287528Y0287696D01*
X0287609Y0287687D01*
X0287690Y0287674D01*
X0287770Y0287657D01*
X0287848Y0287637D01*
X0287926Y0287612D01*
X0288003Y0287584D01*
X0288078Y0287552D01*
X0288151Y0287517D01*
X0288222Y0287478D01*
X0288292Y0287435D01*
X0288359Y0287390D01*
X0288425Y0287341D01*
X0288487Y0287289D01*
X0288547Y0287233D01*
X0288604Y0287175D01*
X0288659Y0287115D01*
X0288710Y0287051D01*
X0288758Y0286986D01*
X0288803Y0286918D01*
X0288845Y0286848D01*
X0288883Y0286776D01*
X0288918Y0286702D01*
X0288949Y0286627D01*
X0288976Y0286550D01*
X0288999Y0286472D01*
X0289019Y0286393D01*
X0289035Y0286313D01*
X0289047Y0286232D01*
X0289055Y0286151D01*
X0289059Y0286070D01*
X0289059Y0285988D01*
X0289055Y0285907D01*
X0289047Y0285826D01*
X0289035Y0285745D01*
X0289019Y0285665D01*
X0288999Y0285586D01*
X0288976Y0285508D01*
X0288949Y0285431D01*
X0288918Y0285356D01*
X0288883Y0285282D01*
X0288845Y0285210D01*
X0288803Y0285140D01*
X0288758Y0285072D01*
X0288710Y0285007D01*
X0288659Y0284943D01*
X0288604Y0284883D01*
X0288547Y0284825D01*
X0288487Y0284769D01*
X0288425Y0284717D01*
X0288359Y0284668D01*
X0288292Y0284623D01*
X0288223Y0284580D01*
X0288151Y0284541D01*
X0288078Y0284506D01*
X0288003Y0284474D01*
X0287926Y0284446D01*
X0287848Y0284421D01*
X0287770Y0284401D01*
X0287690Y0284384D01*
X0287609Y0284371D01*
X0287528Y0284362D01*
X0287447Y0284357D01*
X0287366Y0284356D01*
X0287284Y0284359D01*
X0287203Y0284366D01*
X0287122Y0284377D01*
X0287042Y0284392D01*
X0286963Y0284410D01*
X0286885Y0284433D01*
X0286807Y0284459D01*
X0286732Y0284489D01*
X0286657Y0284523D01*
X0286585Y0284560D01*
X0286514Y0284601D01*
X0286446Y0284645D01*
X0286380Y0284692D01*
X0286316Y0284743D01*
X0286254Y0284797D01*
X0286196Y0284853D01*
X0286140Y0284913D01*
X0286087Y0284975D01*
X0286037Y0285039D01*
X0285991Y0285106D01*
X0285947Y0285175D01*
X0285908Y0285246D01*
X0285871Y0285319D01*
X0285838Y0285393D01*
X0285809Y0285470D01*
X0285784Y0285547D01*
X0285762Y0285626D01*
X0285745Y0285705D01*
X0285731Y0285785D01*
X0285721Y0285866D01*
X0285715Y0285948D01*
X0285713Y0286029D01*
X0184424Y0286029D02*
X0184426Y0286110D01*
X0184432Y0286192D01*
X0184442Y0286273D01*
X0184456Y0286353D01*
X0184473Y0286432D01*
X0184495Y0286511D01*
X0184520Y0286588D01*
X0184549Y0286665D01*
X0184582Y0286739D01*
X0184619Y0286812D01*
X0184658Y0286883D01*
X0184702Y0286952D01*
X0184748Y0287019D01*
X0184798Y0287083D01*
X0184851Y0287145D01*
X0184907Y0287205D01*
X0184965Y0287261D01*
X0185027Y0287315D01*
X0185091Y0287366D01*
X0185157Y0287413D01*
X0185225Y0287457D01*
X0185296Y0287498D01*
X0185368Y0287535D01*
X0185443Y0287569D01*
X0185518Y0287599D01*
X0185596Y0287625D01*
X0185674Y0287648D01*
X0185753Y0287666D01*
X0185833Y0287681D01*
X0185914Y0287692D01*
X0185995Y0287699D01*
X0186077Y0287702D01*
X0186158Y0287701D01*
X0186239Y0287696D01*
X0186320Y0287687D01*
X0186401Y0287674D01*
X0186481Y0287657D01*
X0186559Y0287637D01*
X0186637Y0287612D01*
X0186714Y0287584D01*
X0186789Y0287552D01*
X0186862Y0287517D01*
X0186933Y0287478D01*
X0187003Y0287435D01*
X0187070Y0287390D01*
X0187136Y0287341D01*
X0187198Y0287289D01*
X0187258Y0287233D01*
X0187315Y0287175D01*
X0187370Y0287115D01*
X0187421Y0287051D01*
X0187469Y0286986D01*
X0187514Y0286918D01*
X0187556Y0286848D01*
X0187594Y0286776D01*
X0187629Y0286702D01*
X0187660Y0286627D01*
X0187687Y0286550D01*
X0187710Y0286472D01*
X0187730Y0286393D01*
X0187746Y0286313D01*
X0187758Y0286232D01*
X0187766Y0286151D01*
X0187770Y0286070D01*
X0187770Y0285988D01*
X0187766Y0285907D01*
X0187758Y0285826D01*
X0187746Y0285745D01*
X0187730Y0285665D01*
X0187710Y0285586D01*
X0187687Y0285508D01*
X0187660Y0285431D01*
X0187629Y0285356D01*
X0187594Y0285282D01*
X0187556Y0285210D01*
X0187514Y0285140D01*
X0187469Y0285072D01*
X0187421Y0285007D01*
X0187370Y0284943D01*
X0187315Y0284883D01*
X0187258Y0284825D01*
X0187198Y0284769D01*
X0187136Y0284717D01*
X0187070Y0284668D01*
X0187003Y0284623D01*
X0186934Y0284580D01*
X0186862Y0284541D01*
X0186789Y0284506D01*
X0186714Y0284474D01*
X0186637Y0284446D01*
X0186559Y0284421D01*
X0186481Y0284401D01*
X0186401Y0284384D01*
X0186320Y0284371D01*
X0186239Y0284362D01*
X0186158Y0284357D01*
X0186077Y0284356D01*
X0185995Y0284359D01*
X0185914Y0284366D01*
X0185833Y0284377D01*
X0185753Y0284392D01*
X0185674Y0284410D01*
X0185596Y0284433D01*
X0185518Y0284459D01*
X0185443Y0284489D01*
X0185368Y0284523D01*
X0185296Y0284560D01*
X0185225Y0284601D01*
X0185157Y0284645D01*
X0185091Y0284692D01*
X0185027Y0284743D01*
X0184965Y0284797D01*
X0184907Y0284853D01*
X0184851Y0284913D01*
X0184798Y0284975D01*
X0184748Y0285039D01*
X0184702Y0285106D01*
X0184658Y0285175D01*
X0184619Y0285246D01*
X0184582Y0285319D01*
X0184549Y0285393D01*
X0184520Y0285470D01*
X0184495Y0285547D01*
X0184473Y0285626D01*
X0184456Y0285705D01*
X0184442Y0285785D01*
X0184432Y0285866D01*
X0184426Y0285948D01*
X0184424Y0286029D01*
X0184917Y0284850D02*
X0184917Y0287210D01*
X0169463Y0286029D02*
X0169465Y0286110D01*
X0169471Y0286192D01*
X0169481Y0286273D01*
X0169495Y0286353D01*
X0169512Y0286432D01*
X0169534Y0286511D01*
X0169559Y0286588D01*
X0169588Y0286665D01*
X0169621Y0286739D01*
X0169658Y0286812D01*
X0169697Y0286883D01*
X0169741Y0286952D01*
X0169787Y0287019D01*
X0169837Y0287083D01*
X0169890Y0287145D01*
X0169946Y0287205D01*
X0170004Y0287261D01*
X0170066Y0287315D01*
X0170130Y0287366D01*
X0170196Y0287413D01*
X0170264Y0287457D01*
X0170335Y0287498D01*
X0170407Y0287535D01*
X0170482Y0287569D01*
X0170557Y0287599D01*
X0170635Y0287625D01*
X0170713Y0287648D01*
X0170792Y0287666D01*
X0170872Y0287681D01*
X0170953Y0287692D01*
X0171034Y0287699D01*
X0171116Y0287702D01*
X0171197Y0287701D01*
X0171278Y0287696D01*
X0171359Y0287687D01*
X0171440Y0287674D01*
X0171520Y0287657D01*
X0171598Y0287637D01*
X0171676Y0287612D01*
X0171753Y0287584D01*
X0171828Y0287552D01*
X0171901Y0287517D01*
X0171972Y0287478D01*
X0172042Y0287435D01*
X0172109Y0287390D01*
X0172175Y0287341D01*
X0172237Y0287289D01*
X0172297Y0287233D01*
X0172354Y0287175D01*
X0172409Y0287115D01*
X0172460Y0287051D01*
X0172508Y0286986D01*
X0172553Y0286918D01*
X0172595Y0286848D01*
X0172633Y0286776D01*
X0172668Y0286702D01*
X0172699Y0286627D01*
X0172726Y0286550D01*
X0172749Y0286472D01*
X0172769Y0286393D01*
X0172785Y0286313D01*
X0172797Y0286232D01*
X0172805Y0286151D01*
X0172809Y0286070D01*
X0172809Y0285988D01*
X0172805Y0285907D01*
X0172797Y0285826D01*
X0172785Y0285745D01*
X0172769Y0285665D01*
X0172749Y0285586D01*
X0172726Y0285508D01*
X0172699Y0285431D01*
X0172668Y0285356D01*
X0172633Y0285282D01*
X0172595Y0285210D01*
X0172553Y0285140D01*
X0172508Y0285072D01*
X0172460Y0285007D01*
X0172409Y0284943D01*
X0172354Y0284883D01*
X0172297Y0284825D01*
X0172237Y0284769D01*
X0172175Y0284717D01*
X0172109Y0284668D01*
X0172042Y0284623D01*
X0171973Y0284580D01*
X0171901Y0284541D01*
X0171828Y0284506D01*
X0171753Y0284474D01*
X0171676Y0284446D01*
X0171598Y0284421D01*
X0171520Y0284401D01*
X0171440Y0284384D01*
X0171359Y0284371D01*
X0171278Y0284362D01*
X0171197Y0284357D01*
X0171116Y0284356D01*
X0171034Y0284359D01*
X0170953Y0284366D01*
X0170872Y0284377D01*
X0170792Y0284392D01*
X0170713Y0284410D01*
X0170635Y0284433D01*
X0170557Y0284459D01*
X0170482Y0284489D01*
X0170407Y0284523D01*
X0170335Y0284560D01*
X0170264Y0284601D01*
X0170196Y0284645D01*
X0170130Y0284692D01*
X0170066Y0284743D01*
X0170004Y0284797D01*
X0169946Y0284853D01*
X0169890Y0284913D01*
X0169837Y0284975D01*
X0169787Y0285039D01*
X0169741Y0285106D01*
X0169697Y0285175D01*
X0169658Y0285246D01*
X0169621Y0285319D01*
X0169588Y0285393D01*
X0169559Y0285470D01*
X0169534Y0285547D01*
X0169512Y0285626D01*
X0169495Y0285705D01*
X0169481Y0285785D01*
X0169471Y0285866D01*
X0169465Y0285948D01*
X0169463Y0286029D01*
X0065674Y0286029D02*
X0065676Y0286110D01*
X0065682Y0286192D01*
X0065692Y0286273D01*
X0065706Y0286353D01*
X0065723Y0286432D01*
X0065745Y0286511D01*
X0065770Y0286588D01*
X0065799Y0286665D01*
X0065832Y0286739D01*
X0065869Y0286812D01*
X0065908Y0286883D01*
X0065952Y0286952D01*
X0065998Y0287019D01*
X0066048Y0287083D01*
X0066101Y0287145D01*
X0066157Y0287205D01*
X0066215Y0287261D01*
X0066277Y0287315D01*
X0066341Y0287366D01*
X0066407Y0287413D01*
X0066475Y0287457D01*
X0066546Y0287498D01*
X0066618Y0287535D01*
X0066693Y0287569D01*
X0066768Y0287599D01*
X0066846Y0287625D01*
X0066924Y0287648D01*
X0067003Y0287666D01*
X0067083Y0287681D01*
X0067164Y0287692D01*
X0067245Y0287699D01*
X0067327Y0287702D01*
X0067408Y0287701D01*
X0067489Y0287696D01*
X0067570Y0287687D01*
X0067651Y0287674D01*
X0067731Y0287657D01*
X0067809Y0287637D01*
X0067887Y0287612D01*
X0067964Y0287584D01*
X0068039Y0287552D01*
X0068112Y0287517D01*
X0068183Y0287478D01*
X0068253Y0287435D01*
X0068320Y0287390D01*
X0068386Y0287341D01*
X0068448Y0287289D01*
X0068508Y0287233D01*
X0068565Y0287175D01*
X0068620Y0287115D01*
X0068671Y0287051D01*
X0068719Y0286986D01*
X0068764Y0286918D01*
X0068806Y0286848D01*
X0068844Y0286776D01*
X0068879Y0286702D01*
X0068910Y0286627D01*
X0068937Y0286550D01*
X0068960Y0286472D01*
X0068980Y0286393D01*
X0068996Y0286313D01*
X0069008Y0286232D01*
X0069016Y0286151D01*
X0069020Y0286070D01*
X0069020Y0285988D01*
X0069016Y0285907D01*
X0069008Y0285826D01*
X0068996Y0285745D01*
X0068980Y0285665D01*
X0068960Y0285586D01*
X0068937Y0285508D01*
X0068910Y0285431D01*
X0068879Y0285356D01*
X0068844Y0285282D01*
X0068806Y0285210D01*
X0068764Y0285140D01*
X0068719Y0285072D01*
X0068671Y0285007D01*
X0068620Y0284943D01*
X0068565Y0284883D01*
X0068508Y0284825D01*
X0068448Y0284769D01*
X0068386Y0284717D01*
X0068320Y0284668D01*
X0068253Y0284623D01*
X0068184Y0284580D01*
X0068112Y0284541D01*
X0068039Y0284506D01*
X0067964Y0284474D01*
X0067887Y0284446D01*
X0067809Y0284421D01*
X0067731Y0284401D01*
X0067651Y0284384D01*
X0067570Y0284371D01*
X0067489Y0284362D01*
X0067408Y0284357D01*
X0067327Y0284356D01*
X0067245Y0284359D01*
X0067164Y0284366D01*
X0067083Y0284377D01*
X0067003Y0284392D01*
X0066924Y0284410D01*
X0066846Y0284433D01*
X0066768Y0284459D01*
X0066693Y0284489D01*
X0066618Y0284523D01*
X0066546Y0284560D01*
X0066475Y0284601D01*
X0066407Y0284645D01*
X0066341Y0284692D01*
X0066277Y0284743D01*
X0066215Y0284797D01*
X0066157Y0284853D01*
X0066101Y0284913D01*
X0066048Y0284975D01*
X0065998Y0285039D01*
X0065952Y0285106D01*
X0065908Y0285175D01*
X0065869Y0285246D01*
X0065832Y0285319D01*
X0065799Y0285393D01*
X0065770Y0285470D01*
X0065745Y0285547D01*
X0065723Y0285626D01*
X0065706Y0285705D01*
X0065692Y0285785D01*
X0065682Y0285866D01*
X0065676Y0285948D01*
X0065674Y0286029D01*
X0066167Y0284850D02*
X0066167Y0287210D01*
X0050713Y0286029D02*
X0050715Y0286110D01*
X0050721Y0286192D01*
X0050731Y0286273D01*
X0050745Y0286353D01*
X0050762Y0286432D01*
X0050784Y0286511D01*
X0050809Y0286588D01*
X0050838Y0286665D01*
X0050871Y0286739D01*
X0050908Y0286812D01*
X0050947Y0286883D01*
X0050991Y0286952D01*
X0051037Y0287019D01*
X0051087Y0287083D01*
X0051140Y0287145D01*
X0051196Y0287205D01*
X0051254Y0287261D01*
X0051316Y0287315D01*
X0051380Y0287366D01*
X0051446Y0287413D01*
X0051514Y0287457D01*
X0051585Y0287498D01*
X0051657Y0287535D01*
X0051732Y0287569D01*
X0051807Y0287599D01*
X0051885Y0287625D01*
X0051963Y0287648D01*
X0052042Y0287666D01*
X0052122Y0287681D01*
X0052203Y0287692D01*
X0052284Y0287699D01*
X0052366Y0287702D01*
X0052447Y0287701D01*
X0052528Y0287696D01*
X0052609Y0287687D01*
X0052690Y0287674D01*
X0052770Y0287657D01*
X0052848Y0287637D01*
X0052926Y0287612D01*
X0053003Y0287584D01*
X0053078Y0287552D01*
X0053151Y0287517D01*
X0053222Y0287478D01*
X0053292Y0287435D01*
X0053359Y0287390D01*
X0053425Y0287341D01*
X0053487Y0287289D01*
X0053547Y0287233D01*
X0053604Y0287175D01*
X0053659Y0287115D01*
X0053710Y0287051D01*
X0053758Y0286986D01*
X0053803Y0286918D01*
X0053845Y0286848D01*
X0053883Y0286776D01*
X0053918Y0286702D01*
X0053949Y0286627D01*
X0053976Y0286550D01*
X0053999Y0286472D01*
X0054019Y0286393D01*
X0054035Y0286313D01*
X0054047Y0286232D01*
X0054055Y0286151D01*
X0054059Y0286070D01*
X0054059Y0285988D01*
X0054055Y0285907D01*
X0054047Y0285826D01*
X0054035Y0285745D01*
X0054019Y0285665D01*
X0053999Y0285586D01*
X0053976Y0285508D01*
X0053949Y0285431D01*
X0053918Y0285356D01*
X0053883Y0285282D01*
X0053845Y0285210D01*
X0053803Y0285140D01*
X0053758Y0285072D01*
X0053710Y0285007D01*
X0053659Y0284943D01*
X0053604Y0284883D01*
X0053547Y0284825D01*
X0053487Y0284769D01*
X0053425Y0284717D01*
X0053359Y0284668D01*
X0053292Y0284623D01*
X0053223Y0284580D01*
X0053151Y0284541D01*
X0053078Y0284506D01*
X0053003Y0284474D01*
X0052926Y0284446D01*
X0052848Y0284421D01*
X0052770Y0284401D01*
X0052690Y0284384D01*
X0052609Y0284371D01*
X0052528Y0284362D01*
X0052447Y0284357D01*
X0052366Y0284356D01*
X0052284Y0284359D01*
X0052203Y0284366D01*
X0052122Y0284377D01*
X0052042Y0284392D01*
X0051963Y0284410D01*
X0051885Y0284433D01*
X0051807Y0284459D01*
X0051732Y0284489D01*
X0051657Y0284523D01*
X0051585Y0284560D01*
X0051514Y0284601D01*
X0051446Y0284645D01*
X0051380Y0284692D01*
X0051316Y0284743D01*
X0051254Y0284797D01*
X0051196Y0284853D01*
X0051140Y0284913D01*
X0051087Y0284975D01*
X0051037Y0285039D01*
X0050991Y0285106D01*
X0050947Y0285175D01*
X0050908Y0285246D01*
X0050871Y0285319D01*
X0050838Y0285393D01*
X0050809Y0285470D01*
X0050784Y0285547D01*
X0050762Y0285626D01*
X0050745Y0285705D01*
X0050731Y0285785D01*
X0050721Y0285866D01*
X0050715Y0285948D01*
X0050713Y0286029D01*
D19*
X0048056Y0282879D02*
X0044119Y0282879D01*
X0044119Y0286816D01*
X0044119Y0298627D02*
X0044119Y0302564D01*
X0071678Y0282879D02*
X0075615Y0282879D01*
X0075587Y0282950D02*
X0075587Y0286816D01*
X0075615Y0286816D01*
X0075615Y0298627D02*
X0075615Y0302564D01*
X0162869Y0302564D02*
X0162869Y0298627D01*
X0162869Y0286816D02*
X0162869Y0282879D01*
X0166806Y0282879D01*
X0190428Y0282879D02*
X0194365Y0282879D01*
X0194337Y0282950D02*
X0194337Y0286816D01*
X0194365Y0286816D01*
X0194365Y0298627D02*
X0194365Y0302564D01*
X0279119Y0302564D02*
X0279119Y0298627D01*
X0279119Y0286816D02*
X0279119Y0282879D01*
X0283056Y0282879D01*
X0306678Y0282879D02*
X0310615Y0282879D01*
X0310587Y0282950D02*
X0310587Y0286816D01*
X0310615Y0286816D01*
X0310615Y0298627D02*
X0310615Y0302564D01*
X0311240Y0151314D02*
X0311240Y0147377D01*
X0311212Y0135566D02*
X0311240Y0135566D01*
X0311212Y0135566D02*
X0311212Y0131700D01*
X0311240Y0131629D02*
X0307303Y0131629D01*
X0283681Y0131629D02*
X0279744Y0131629D01*
X0279744Y0135566D01*
X0279744Y0147377D02*
X0279744Y0151314D01*
X0194990Y0151314D02*
X0194990Y0147377D01*
X0194962Y0135566D02*
X0194990Y0135566D01*
X0194962Y0135566D02*
X0194962Y0131700D01*
X0194990Y0131629D02*
X0191053Y0131629D01*
X0167431Y0131629D02*
X0163494Y0131629D01*
X0163494Y0135566D01*
X0163494Y0147377D02*
X0163494Y0151314D01*
X0076240Y0151314D02*
X0076240Y0147377D01*
X0076212Y0135566D02*
X0076240Y0135566D01*
X0076212Y0135566D02*
X0076212Y0131700D01*
X0076240Y0131629D02*
X0072303Y0131629D01*
X0048681Y0131629D02*
X0044744Y0131629D01*
X0044744Y0135566D01*
X0044744Y0147377D02*
X0044744Y0151314D01*
M02*
