G75*
%MOIN*%
%OFA0B0*%
%FSLAX25Y25*%
%IPPOS*%
%LPD*%
%AMOC8*
5,1,8,0,0,1.08239X$1,22.5*
%
%ADD10C,0.06600*%
%ADD11R,0.01584X0.04537*%
%ADD12R,0.04537X0.01584*%
%ADD13R,0.10443X0.06899*%
%ADD14C,0.02372*%
%ADD15R,0.03356X0.04143*%
%ADD16R,0.04143X0.03356*%
%ADD17R,0.05718X0.06506*%
%ADD18R,0.04400X0.04400*%
%ADD19R,0.03300X0.03300*%
D10*
X0011867Y0016565D02*
X0017867Y0016565D01*
X0017867Y0026565D02*
X0011867Y0026565D01*
X0011867Y0036565D02*
X0017867Y0036565D01*
X0017867Y0046565D02*
X0011867Y0046565D01*
X0011867Y0056565D02*
X0017867Y0056565D01*
X0017867Y0066565D02*
X0011867Y0066565D01*
X0011867Y0076565D02*
X0017867Y0076565D01*
X0017867Y0086565D02*
X0011867Y0086565D01*
X0011867Y0096565D02*
X0017867Y0096565D01*
X0017867Y0106565D02*
X0011867Y0106565D01*
X0011867Y0116565D02*
X0017867Y0116565D01*
X0017867Y0126565D02*
X0011867Y0126565D01*
X0011867Y0136565D02*
X0017867Y0136565D01*
X0017867Y0146565D02*
X0011867Y0146565D01*
X0101867Y0146565D02*
X0107867Y0146565D01*
X0107867Y0136565D02*
X0101867Y0136565D01*
X0101867Y0126565D02*
X0107867Y0126565D01*
X0107867Y0116565D02*
X0101867Y0116565D01*
X0101867Y0106565D02*
X0107867Y0106565D01*
X0107867Y0096565D02*
X0101867Y0096565D01*
X0101867Y0086565D02*
X0107867Y0086565D01*
X0107867Y0076565D02*
X0101867Y0076565D01*
X0101867Y0066565D02*
X0107867Y0066565D01*
X0107867Y0056565D02*
X0101867Y0056565D01*
X0101867Y0046565D02*
X0107867Y0046565D01*
X0107867Y0036565D02*
X0101867Y0036565D01*
X0101867Y0026565D02*
X0107867Y0026565D01*
X0107867Y0016565D02*
X0101867Y0016565D01*
D11*
X0046225Y0042655D03*
X0044256Y0042655D03*
X0042288Y0042655D03*
X0040319Y0042655D03*
X0038351Y0042655D03*
X0036382Y0042655D03*
X0034414Y0042655D03*
X0032445Y0042655D03*
X0030477Y0042655D03*
X0028508Y0042655D03*
X0028508Y0056726D03*
X0030477Y0056726D03*
X0032445Y0056726D03*
X0034414Y0056726D03*
X0036382Y0056726D03*
X0038351Y0056726D03*
X0040319Y0056726D03*
X0042288Y0056726D03*
X0044256Y0056726D03*
X0046225Y0056726D03*
D12*
X0047650Y0052643D03*
X0047650Y0050674D03*
X0047650Y0048706D03*
X0047650Y0046737D03*
X0027083Y0046737D03*
X0027083Y0048706D03*
X0027083Y0050674D03*
X0027083Y0052643D03*
D13*
X0033617Y0100940D03*
D14*
X0033617Y0105862D02*
X0033617Y0107436D01*
X0037554Y0107436D02*
X0037554Y0105862D01*
X0029680Y0105862D02*
X0029680Y0107436D01*
X0029680Y0096018D02*
X0029680Y0094444D01*
X0033617Y0094444D02*
X0033617Y0096018D01*
X0037554Y0096018D02*
X0037554Y0094444D01*
D15*
X0034926Y0089065D03*
X0029808Y0089065D03*
X0031683Y0115315D03*
X0031683Y0120940D03*
X0036801Y0120940D03*
X0036801Y0115315D03*
X0057308Y0069065D03*
X0062426Y0069065D03*
X0062426Y0061565D03*
X0057308Y0061565D03*
X0057308Y0042815D03*
X0062426Y0042815D03*
D16*
X0052367Y0051506D03*
X0052367Y0056624D03*
X0044242Y0074006D03*
X0044242Y0079124D03*
X0036742Y0079124D03*
X0036742Y0074006D03*
X0040492Y0036624D03*
X0040492Y0031506D03*
X0082992Y0032874D03*
X0082992Y0027756D03*
X0091742Y0027756D03*
X0091742Y0032874D03*
X0081117Y0094631D03*
X0081117Y0099749D03*
D17*
X0044232Y0066565D03*
X0036752Y0066565D03*
D18*
X0031742Y0075315D03*
X0039867Y0083440D03*
X0049242Y0085940D03*
X0049242Y0090315D03*
X0057992Y0090315D03*
X0062367Y0090315D03*
X0066117Y0103440D03*
X0079867Y0117815D03*
X0091117Y0094690D03*
X0087367Y0069690D03*
X0072367Y0065940D03*
X0089867Y0041565D03*
X0079242Y0023440D03*
X0074242Y0034065D03*
X0051742Y0064065D03*
X0034867Y0033440D03*
X0026742Y0020940D03*
X0024242Y0031565D03*
X0023617Y0040940D03*
X0023617Y0055940D03*
X0047992Y0102190D03*
X0049242Y0107815D03*
X0048617Y0121565D03*
X0042992Y0122190D03*
X0032992Y0110940D03*
X0029867Y0129065D03*
D19*
X0032367Y0137190D03*
X0039242Y0130940D03*
X0021742Y0120940D03*
X0026742Y0109690D03*
X0026742Y0076565D03*
X0065492Y0126565D03*
X0087992Y0137190D03*
X0081742Y0075940D03*
X0081742Y0065315D03*
M02*
