%
M48
M72
T01C0.0130
T02C0.0240
T03C0.0400
%
T01
X2674Y7657
X2174Y12094
X2674Y10969
X3924Y13094
X3237Y13719
X6549Y12657
X8174Y6532
X8174Y7594
X8799Y13719
T02
X2362Y4094
X3174Y7532
X3299Y11094
X4299Y12219
X4862Y12157
X2674Y2094
X2424Y3157
X5174Y6407
X7237Y6594
X8987Y4157
X3487Y3344
X7924Y2344
X7424Y3407
X8737Y6969
X3987Y8344
X4924Y9032
X4799Y10219
X4924Y10782
X2987Y12907
X4924Y8594
X5799Y9032
X6237Y9032
X7987Y11782
X9112Y9469
X6612Y10344
X2362Y5594
T03
X1487Y14657
X1487Y13657
X1487Y9657
X1487Y10657
X1487Y11657
X1487Y12657
X1487Y2657
X1487Y3657
X1487Y4657
X1487Y5657
X1487Y6657
X1487Y7657
X1487Y8657
X1487Y1657
X10487Y13657
X10487Y12657
X10487Y11657
X10487Y9657
X10487Y10657
X10487Y8657
X10487Y7657
X10487Y5657
X10487Y4657
X10487Y3657
X10487Y2657
X10487Y1657
X10487Y14657
X10487Y6657
M30
